G04 #@! TF.GenerationSoftware,KiCad,Pcbnew,(5.0.1-3-g963ef8bb5)*
G04 #@! TF.CreationDate,2019-05-15T15:03:22+02:00*
G04 #@! TF.ProjectId,HapticDriverShield,48617074696344726976657253686965,rev?*
G04 #@! TF.SameCoordinates,Original*
G04 #@! TF.FileFunction,Legend,Top*
G04 #@! TF.FilePolarity,Positive*
%FSLAX46Y46*%
G04 Gerber Fmt 4.6, Leading zero omitted, Abs format (unit mm)*
G04 Created by KiCad (PCBNEW (5.0.1-3-g963ef8bb5)) date 2019 May 15, Wednesday 15:03:22*
%MOMM*%
%LPD*%
G01*
G04 APERTURE LIST*
%ADD10C,0.250000*%
%ADD11C,0.300000*%
%ADD12C,0.150000*%
%ADD13C,0.120000*%
%ADD14C,0.010000*%
G04 APERTURE END LIST*
D10*
X104000000Y-113791666D02*
X104476190Y-113791666D01*
X103904761Y-114077380D02*
X104238095Y-113077380D01*
X104571428Y-114077380D01*
X105476190Y-114077380D02*
X105142857Y-113601190D01*
X104904761Y-114077380D02*
X104904761Y-113077380D01*
X105285714Y-113077380D01*
X105380952Y-113125000D01*
X105428571Y-113172619D01*
X105476190Y-113267857D01*
X105476190Y-113410714D01*
X105428571Y-113505952D01*
X105380952Y-113553571D01*
X105285714Y-113601190D01*
X104904761Y-113601190D01*
X105904761Y-114077380D02*
X105904761Y-113077380D01*
X106142857Y-113077380D01*
X106285714Y-113125000D01*
X106380952Y-113220238D01*
X106428571Y-113315476D01*
X106476190Y-113505952D01*
X106476190Y-113648809D01*
X106428571Y-113839285D01*
X106380952Y-113934523D01*
X106285714Y-114029761D01*
X106142857Y-114077380D01*
X105904761Y-114077380D01*
X106904761Y-113077380D02*
X106904761Y-113886904D01*
X106952380Y-113982142D01*
X107000000Y-114029761D01*
X107095238Y-114077380D01*
X107285714Y-114077380D01*
X107380952Y-114029761D01*
X107428571Y-113982142D01*
X107476190Y-113886904D01*
X107476190Y-113077380D01*
X107952380Y-114077380D02*
X107952380Y-113077380D01*
X108428571Y-114077380D02*
X108428571Y-113077380D01*
X109000000Y-114077380D01*
X109000000Y-113077380D01*
X109666666Y-113077380D02*
X109857142Y-113077380D01*
X109952380Y-113125000D01*
X110047619Y-113220238D01*
X110095238Y-113410714D01*
X110095238Y-113744047D01*
X110047619Y-113934523D01*
X109952380Y-114029761D01*
X109857142Y-114077380D01*
X109666666Y-114077380D01*
X109571428Y-114029761D01*
X109476190Y-113934523D01*
X109428571Y-113744047D01*
X109428571Y-113410714D01*
X109476190Y-113220238D01*
X109571428Y-113125000D01*
X109666666Y-113077380D01*
X111285714Y-114077380D02*
X111285714Y-113077380D01*
X111285714Y-113553571D02*
X111857142Y-113553571D01*
X111857142Y-114077380D02*
X111857142Y-113077380D01*
X112285714Y-113791666D02*
X112761904Y-113791666D01*
X112190476Y-114077380D02*
X112523809Y-113077380D01*
X112857142Y-114077380D01*
X113190476Y-114077380D02*
X113190476Y-113077380D01*
X113571428Y-113077380D01*
X113666666Y-113125000D01*
X113714285Y-113172619D01*
X113761904Y-113267857D01*
X113761904Y-113410714D01*
X113714285Y-113505952D01*
X113666666Y-113553571D01*
X113571428Y-113601190D01*
X113190476Y-113601190D01*
X114047619Y-113077380D02*
X114619047Y-113077380D01*
X114333333Y-114077380D02*
X114333333Y-113077380D01*
X114952380Y-114077380D02*
X114952380Y-113077380D01*
X116000000Y-113982142D02*
X115952380Y-114029761D01*
X115809523Y-114077380D01*
X115714285Y-114077380D01*
X115571428Y-114029761D01*
X115476190Y-113934523D01*
X115428571Y-113839285D01*
X115380952Y-113648809D01*
X115380952Y-113505952D01*
X115428571Y-113315476D01*
X115476190Y-113220238D01*
X115571428Y-113125000D01*
X115714285Y-113077380D01*
X115809523Y-113077380D01*
X115952380Y-113125000D01*
X116000000Y-113172619D01*
X104642857Y-115827380D02*
X104642857Y-114827380D01*
X104880952Y-114827380D01*
X105023809Y-114875000D01*
X105119047Y-114970238D01*
X105166666Y-115065476D01*
X105214285Y-115255952D01*
X105214285Y-115398809D01*
X105166666Y-115589285D01*
X105119047Y-115684523D01*
X105023809Y-115779761D01*
X104880952Y-115827380D01*
X104642857Y-115827380D01*
X106214285Y-115827380D02*
X105880952Y-115351190D01*
X105642857Y-115827380D02*
X105642857Y-114827380D01*
X106023809Y-114827380D01*
X106119047Y-114875000D01*
X106166666Y-114922619D01*
X106214285Y-115017857D01*
X106214285Y-115160714D01*
X106166666Y-115255952D01*
X106119047Y-115303571D01*
X106023809Y-115351190D01*
X105642857Y-115351190D01*
X106642857Y-115827380D02*
X106642857Y-114827380D01*
X106976190Y-114827380D02*
X107309523Y-115827380D01*
X107642857Y-114827380D01*
X107976190Y-115303571D02*
X108309523Y-115303571D01*
X108452380Y-115827380D02*
X107976190Y-115827380D01*
X107976190Y-114827380D01*
X108452380Y-114827380D01*
X109452380Y-115827380D02*
X109119047Y-115351190D01*
X108880952Y-115827380D02*
X108880952Y-114827380D01*
X109261904Y-114827380D01*
X109357142Y-114875000D01*
X109404761Y-114922619D01*
X109452380Y-115017857D01*
X109452380Y-115160714D01*
X109404761Y-115255952D01*
X109357142Y-115303571D01*
X109261904Y-115351190D01*
X108880952Y-115351190D01*
X110595238Y-115779761D02*
X110738095Y-115827380D01*
X110976190Y-115827380D01*
X111071428Y-115779761D01*
X111119047Y-115732142D01*
X111166666Y-115636904D01*
X111166666Y-115541666D01*
X111119047Y-115446428D01*
X111071428Y-115398809D01*
X110976190Y-115351190D01*
X110785714Y-115303571D01*
X110690476Y-115255952D01*
X110642857Y-115208333D01*
X110595238Y-115113095D01*
X110595238Y-115017857D01*
X110642857Y-114922619D01*
X110690476Y-114875000D01*
X110785714Y-114827380D01*
X111023809Y-114827380D01*
X111166666Y-114875000D01*
X111595238Y-115827380D02*
X111595238Y-114827380D01*
X111595238Y-115303571D02*
X112166666Y-115303571D01*
X112166666Y-115827380D02*
X112166666Y-114827380D01*
X112642857Y-115827380D02*
X112642857Y-114827380D01*
X113119047Y-115303571D02*
X113452380Y-115303571D01*
X113595238Y-115827380D02*
X113119047Y-115827380D01*
X113119047Y-114827380D01*
X113595238Y-114827380D01*
X114500000Y-115827380D02*
X114023809Y-115827380D01*
X114023809Y-114827380D01*
X114833333Y-115827380D02*
X114833333Y-114827380D01*
X115071428Y-114827380D01*
X115214285Y-114875000D01*
X115309523Y-114970238D01*
X115357142Y-115065476D01*
X115404761Y-115255952D01*
X115404761Y-115398809D01*
X115357142Y-115589285D01*
X115309523Y-115684523D01*
X115214285Y-115779761D01*
X115071428Y-115827380D01*
X114833333Y-115827380D01*
X141780952Y-135252380D02*
X141780952Y-134252380D01*
X142114285Y-134966666D01*
X142447619Y-134252380D01*
X142447619Y-135252380D01*
X143495238Y-135157142D02*
X143447619Y-135204761D01*
X143304761Y-135252380D01*
X143209523Y-135252380D01*
X143066666Y-135204761D01*
X142971428Y-135109523D01*
X142923809Y-135014285D01*
X142876190Y-134823809D01*
X142876190Y-134680952D01*
X142923809Y-134490476D01*
X142971428Y-134395238D01*
X143066666Y-134300000D01*
X143209523Y-134252380D01*
X143304761Y-134252380D01*
X143447619Y-134300000D01*
X143495238Y-134347619D01*
X143923809Y-135252380D02*
X143923809Y-134252380D01*
X143923809Y-134728571D02*
X144495238Y-134728571D01*
X144495238Y-135252380D02*
X144495238Y-134252380D01*
X145495238Y-135252380D02*
X144923809Y-135252380D01*
X145209523Y-135252380D02*
X145209523Y-134252380D01*
X145114285Y-134395238D01*
X145019047Y-134490476D01*
X144923809Y-134538095D01*
X145971428Y-135252380D02*
X146161904Y-135252380D01*
X146257142Y-135204761D01*
X146304761Y-135157142D01*
X146400000Y-135014285D01*
X146447619Y-134823809D01*
X146447619Y-134442857D01*
X146400000Y-134347619D01*
X146352380Y-134300000D01*
X146257142Y-134252380D01*
X146066666Y-134252380D01*
X145971428Y-134300000D01*
X145923809Y-134347619D01*
X145876190Y-134442857D01*
X145876190Y-134680952D01*
X145923809Y-134776190D01*
X145971428Y-134823809D01*
X146066666Y-134871428D01*
X146257142Y-134871428D01*
X146352380Y-134823809D01*
X146400000Y-134776190D01*
X146447619Y-134680952D01*
X147066666Y-134252380D02*
X147161904Y-134252380D01*
X147257142Y-134300000D01*
X147304761Y-134347619D01*
X147352380Y-134442857D01*
X147400000Y-134633333D01*
X147400000Y-134871428D01*
X147352380Y-135061904D01*
X147304761Y-135157142D01*
X147257142Y-135204761D01*
X147161904Y-135252380D01*
X147066666Y-135252380D01*
X146971428Y-135204761D01*
X146923809Y-135157142D01*
X146876190Y-135061904D01*
X146828571Y-134871428D01*
X146828571Y-134633333D01*
X146876190Y-134442857D01*
X146923809Y-134347619D01*
X146971428Y-134300000D01*
X147066666Y-134252380D01*
X148304761Y-134252380D02*
X147828571Y-134252380D01*
X147780952Y-134728571D01*
X147828571Y-134680952D01*
X147923809Y-134633333D01*
X148161904Y-134633333D01*
X148257142Y-134680952D01*
X148304761Y-134728571D01*
X148352380Y-134823809D01*
X148352380Y-135061904D01*
X148304761Y-135157142D01*
X148257142Y-135204761D01*
X148161904Y-135252380D01*
X147923809Y-135252380D01*
X147828571Y-135204761D01*
X147780952Y-135157142D01*
X148971428Y-134252380D02*
X149066666Y-134252380D01*
X149161904Y-134300000D01*
X149209523Y-134347619D01*
X149257142Y-134442857D01*
X149304761Y-134633333D01*
X149304761Y-134871428D01*
X149257142Y-135061904D01*
X149209523Y-135157142D01*
X149161904Y-135204761D01*
X149066666Y-135252380D01*
X148971428Y-135252380D01*
X148876190Y-135204761D01*
X148828571Y-135157142D01*
X148780952Y-135061904D01*
X148733333Y-134871428D01*
X148733333Y-134633333D01*
X148780952Y-134442857D01*
X148828571Y-134347619D01*
X148876190Y-134300000D01*
X148971428Y-134252380D01*
X150161904Y-134252380D02*
X149971428Y-134252380D01*
X149876190Y-134300000D01*
X149828571Y-134347619D01*
X149733333Y-134490476D01*
X149685714Y-134680952D01*
X149685714Y-135061904D01*
X149733333Y-135157142D01*
X149780952Y-135204761D01*
X149876190Y-135252380D01*
X150066666Y-135252380D01*
X150161904Y-135204761D01*
X150209523Y-135157142D01*
X150257142Y-135061904D01*
X150257142Y-134823809D01*
X150209523Y-134728571D01*
X150161904Y-134680952D01*
X150066666Y-134633333D01*
X149876190Y-134633333D01*
X149780952Y-134680952D01*
X149733333Y-134728571D01*
X149685714Y-134823809D01*
X150542857Y-134252380D02*
X150876190Y-135252380D01*
X151209523Y-134252380D01*
X152066666Y-135252380D02*
X151495238Y-135252380D01*
X151780952Y-135252380D02*
X151780952Y-134252380D01*
X151685714Y-134395238D01*
X151590476Y-134490476D01*
X151495238Y-134538095D01*
D11*
X153378571Y-97614285D02*
X151878571Y-97614285D01*
X152950000Y-97114285D01*
X151878571Y-96614285D01*
X153378571Y-96614285D01*
X151878571Y-96042857D02*
X151878571Y-95114285D01*
X152450000Y-95614285D01*
X152450000Y-95400000D01*
X152521428Y-95257142D01*
X152592857Y-95185714D01*
X152735714Y-95114285D01*
X153092857Y-95114285D01*
X153235714Y-95185714D01*
X153307142Y-95257142D01*
X153378571Y-95400000D01*
X153378571Y-95828571D01*
X153307142Y-95971428D01*
X153235714Y-96042857D01*
X153278571Y-108714285D02*
X151778571Y-108714285D01*
X152850000Y-108214285D01*
X151778571Y-107714285D01*
X153278571Y-107714285D01*
X151921428Y-107071428D02*
X151850000Y-107000000D01*
X151778571Y-106857142D01*
X151778571Y-106500000D01*
X151850000Y-106357142D01*
X151921428Y-106285714D01*
X152064285Y-106214285D01*
X152207142Y-106214285D01*
X152421428Y-106285714D01*
X153278571Y-107142857D01*
X153278571Y-106214285D01*
X153178571Y-119614285D02*
X151678571Y-119614285D01*
X152750000Y-119114285D01*
X151678571Y-118614285D01*
X153178571Y-118614285D01*
X153178571Y-117114285D02*
X153178571Y-117971428D01*
X153178571Y-117542857D02*
X151678571Y-117542857D01*
X151892857Y-117685714D01*
X152035714Y-117828571D01*
X152107142Y-117971428D01*
X153078571Y-130614285D02*
X151578571Y-130614285D01*
X152650000Y-130114285D01*
X151578571Y-129614285D01*
X153078571Y-129614285D01*
X151578571Y-128614285D02*
X151578571Y-128471428D01*
X151650000Y-128328571D01*
X151721428Y-128257142D01*
X151864285Y-128185714D01*
X152150000Y-128114285D01*
X152507142Y-128114285D01*
X152792857Y-128185714D01*
X152935714Y-128257142D01*
X153007142Y-128328571D01*
X153078571Y-128471428D01*
X153078571Y-128614285D01*
X153007142Y-128757142D01*
X152935714Y-128828571D01*
X152792857Y-128900000D01*
X152507142Y-128971428D01*
X152150000Y-128971428D01*
X151864285Y-128900000D01*
X151721428Y-128828571D01*
X151650000Y-128757142D01*
X151578571Y-128614285D01*
X107485714Y-123100000D02*
X108057142Y-123100000D01*
X107371428Y-123442857D02*
X107771428Y-122242857D01*
X108171428Y-123442857D01*
X109257142Y-123442857D02*
X108857142Y-122871428D01*
X108571428Y-123442857D02*
X108571428Y-122242857D01*
X109028571Y-122242857D01*
X109142857Y-122300000D01*
X109200000Y-122357142D01*
X109257142Y-122471428D01*
X109257142Y-122642857D01*
X109200000Y-122757142D01*
X109142857Y-122814285D01*
X109028571Y-122871428D01*
X108571428Y-122871428D01*
X109771428Y-123442857D02*
X109771428Y-122242857D01*
X110057142Y-122242857D01*
X110228571Y-122300000D01*
X110342857Y-122414285D01*
X110400000Y-122528571D01*
X110457142Y-122757142D01*
X110457142Y-122928571D01*
X110400000Y-123157142D01*
X110342857Y-123271428D01*
X110228571Y-123385714D01*
X110057142Y-123442857D01*
X109771428Y-123442857D01*
X110971428Y-123442857D02*
X110971428Y-122242857D01*
X111657142Y-123442857D01*
X111657142Y-122242857D01*
X107414285Y-120014285D02*
X107814285Y-120014285D01*
X107985714Y-120642857D02*
X107414285Y-120642857D01*
X107414285Y-119442857D01*
X107985714Y-119442857D01*
X108385714Y-119442857D02*
X109185714Y-120642857D01*
X109185714Y-119442857D02*
X108385714Y-120642857D01*
X109471428Y-119442857D02*
X110157142Y-119442857D01*
X109814285Y-120642857D02*
X109814285Y-119442857D01*
X117285714Y-128542857D02*
X117285714Y-127342857D01*
X117742857Y-127342857D01*
X117857142Y-127400000D01*
X117914285Y-127457142D01*
X117971428Y-127571428D01*
X117971428Y-127742857D01*
X117914285Y-127857142D01*
X117857142Y-127914285D01*
X117742857Y-127971428D01*
X117285714Y-127971428D01*
X118371428Y-127342857D02*
X118657142Y-128542857D01*
X118885714Y-127685714D01*
X119114285Y-128542857D01*
X119400000Y-127342857D01*
X119857142Y-128542857D02*
X119857142Y-127342857D01*
X120257142Y-128200000D01*
X120657142Y-127342857D01*
X120657142Y-128542857D01*
X122657142Y-127342857D02*
X122428571Y-127342857D01*
X122314285Y-127400000D01*
X122257142Y-127457142D01*
X122142857Y-127628571D01*
X122085714Y-127857142D01*
X122085714Y-128314285D01*
X122142857Y-128428571D01*
X122200000Y-128485714D01*
X122314285Y-128542857D01*
X122542857Y-128542857D01*
X122657142Y-128485714D01*
X122714285Y-128428571D01*
X122771428Y-128314285D01*
X122771428Y-128028571D01*
X122714285Y-127914285D01*
X122657142Y-127857142D01*
X122542857Y-127800000D01*
X122314285Y-127800000D01*
X122200000Y-127857142D01*
X122142857Y-127914285D01*
X122085714Y-128028571D01*
X117285714Y-117542857D02*
X117285714Y-116342857D01*
X117742857Y-116342857D01*
X117857142Y-116400000D01*
X117914285Y-116457142D01*
X117971428Y-116571428D01*
X117971428Y-116742857D01*
X117914285Y-116857142D01*
X117857142Y-116914285D01*
X117742857Y-116971428D01*
X117285714Y-116971428D01*
X118371428Y-116342857D02*
X118657142Y-117542857D01*
X118885714Y-116685714D01*
X119114285Y-117542857D01*
X119400000Y-116342857D01*
X119857142Y-117542857D02*
X119857142Y-116342857D01*
X120257142Y-117200000D01*
X120657142Y-116342857D01*
X120657142Y-117542857D01*
X122200000Y-117542857D02*
X122428571Y-117542857D01*
X122542857Y-117485714D01*
X122600000Y-117428571D01*
X122714285Y-117257142D01*
X122771428Y-117028571D01*
X122771428Y-116571428D01*
X122714285Y-116457142D01*
X122657142Y-116400000D01*
X122542857Y-116342857D01*
X122314285Y-116342857D01*
X122200000Y-116400000D01*
X122142857Y-116457142D01*
X122085714Y-116571428D01*
X122085714Y-116857142D01*
X122142857Y-116971428D01*
X122200000Y-117028571D01*
X122314285Y-117085714D01*
X122542857Y-117085714D01*
X122657142Y-117028571D01*
X122714285Y-116971428D01*
X122771428Y-116857142D01*
X116714285Y-106492857D02*
X116714285Y-105292857D01*
X117171428Y-105292857D01*
X117285714Y-105350000D01*
X117342857Y-105407142D01*
X117400000Y-105521428D01*
X117400000Y-105692857D01*
X117342857Y-105807142D01*
X117285714Y-105864285D01*
X117171428Y-105921428D01*
X116714285Y-105921428D01*
X117800000Y-105292857D02*
X118085714Y-106492857D01*
X118314285Y-105635714D01*
X118542857Y-106492857D01*
X118828571Y-105292857D01*
X119285714Y-106492857D02*
X119285714Y-105292857D01*
X119685714Y-106150000D01*
X120085714Y-105292857D01*
X120085714Y-106492857D01*
X122200000Y-106492857D02*
X121514285Y-106492857D01*
X121857142Y-106492857D02*
X121857142Y-105292857D01*
X121742857Y-105464285D01*
X121628571Y-105578571D01*
X121514285Y-105635714D01*
X122942857Y-105292857D02*
X123057142Y-105292857D01*
X123171428Y-105350000D01*
X123228571Y-105407142D01*
X123285714Y-105521428D01*
X123342857Y-105750000D01*
X123342857Y-106035714D01*
X123285714Y-106264285D01*
X123228571Y-106378571D01*
X123171428Y-106435714D01*
X123057142Y-106492857D01*
X122942857Y-106492857D01*
X122828571Y-106435714D01*
X122771428Y-106378571D01*
X122714285Y-106264285D01*
X122657142Y-106035714D01*
X122657142Y-105750000D01*
X122714285Y-105521428D01*
X122771428Y-105407142D01*
X122828571Y-105350000D01*
X122942857Y-105292857D01*
X118071428Y-131700000D02*
X118642857Y-131700000D01*
X117957142Y-132042857D02*
X118357142Y-130842857D01*
X118757142Y-132042857D01*
X119157142Y-130842857D02*
X119157142Y-131814285D01*
X119214285Y-131928571D01*
X119271428Y-131985714D01*
X119385714Y-132042857D01*
X119614285Y-132042857D01*
X119728571Y-131985714D01*
X119785714Y-131928571D01*
X119842857Y-131814285D01*
X119842857Y-130842857D01*
X121557142Y-130842857D02*
X121671428Y-130842857D01*
X121785714Y-130900000D01*
X121842857Y-130957142D01*
X121900000Y-131071428D01*
X121957142Y-131300000D01*
X121957142Y-131585714D01*
X121900000Y-131814285D01*
X121842857Y-131928571D01*
X121785714Y-131985714D01*
X121671428Y-132042857D01*
X121557142Y-132042857D01*
X121442857Y-131985714D01*
X121385714Y-131928571D01*
X121328571Y-131814285D01*
X121271428Y-131585714D01*
X121271428Y-131300000D01*
X121328571Y-131071428D01*
X121385714Y-130957142D01*
X121442857Y-130900000D01*
X121557142Y-130842857D01*
X123042857Y-132042857D02*
X122471428Y-132042857D01*
X122471428Y-130842857D01*
X117957142Y-120700000D02*
X118528571Y-120700000D01*
X117842857Y-121042857D02*
X118242857Y-119842857D01*
X118642857Y-121042857D01*
X119042857Y-119842857D02*
X119042857Y-120814285D01*
X119100000Y-120928571D01*
X119157142Y-120985714D01*
X119271428Y-121042857D01*
X119500000Y-121042857D01*
X119614285Y-120985714D01*
X119671428Y-120928571D01*
X119728571Y-120814285D01*
X119728571Y-119842857D01*
X121442857Y-119842857D02*
X121557142Y-119842857D01*
X121671428Y-119900000D01*
X121728571Y-119957142D01*
X121785714Y-120071428D01*
X121842857Y-120300000D01*
X121842857Y-120585714D01*
X121785714Y-120814285D01*
X121728571Y-120928571D01*
X121671428Y-120985714D01*
X121557142Y-121042857D01*
X121442857Y-121042857D01*
X121328571Y-120985714D01*
X121271428Y-120928571D01*
X121214285Y-120814285D01*
X121157142Y-120585714D01*
X121157142Y-120300000D01*
X121214285Y-120071428D01*
X121271428Y-119957142D01*
X121328571Y-119900000D01*
X121442857Y-119842857D01*
X123042857Y-121042857D02*
X122642857Y-120471428D01*
X122357142Y-121042857D02*
X122357142Y-119842857D01*
X122814285Y-119842857D01*
X122928571Y-119900000D01*
X122985714Y-119957142D01*
X123042857Y-120071428D01*
X123042857Y-120242857D01*
X122985714Y-120357142D01*
X122928571Y-120414285D01*
X122814285Y-120471428D01*
X122357142Y-120471428D01*
X118071428Y-109700000D02*
X118642857Y-109700000D01*
X117957142Y-110042857D02*
X118357142Y-108842857D01*
X118757142Y-110042857D01*
X119157142Y-108842857D02*
X119157142Y-109814285D01*
X119214285Y-109928571D01*
X119271428Y-109985714D01*
X119385714Y-110042857D01*
X119614285Y-110042857D01*
X119728571Y-109985714D01*
X119785714Y-109928571D01*
X119842857Y-109814285D01*
X119842857Y-108842857D01*
X121957142Y-110042857D02*
X121271428Y-110042857D01*
X121614285Y-110042857D02*
X121614285Y-108842857D01*
X121500000Y-109014285D01*
X121385714Y-109128571D01*
X121271428Y-109185714D01*
X123042857Y-110042857D02*
X122471428Y-110042857D01*
X122471428Y-108842857D01*
X102571428Y-93475000D02*
X103285714Y-93475000D01*
X102428571Y-93903571D02*
X102928571Y-92403571D01*
X103428571Y-93903571D01*
X103928571Y-92403571D02*
X103928571Y-93617857D01*
X104000000Y-93760714D01*
X104071428Y-93832142D01*
X104214285Y-93903571D01*
X104500000Y-93903571D01*
X104642857Y-93832142D01*
X104714285Y-93760714D01*
X104785714Y-93617857D01*
X104785714Y-92403571D01*
X107428571Y-93903571D02*
X106571428Y-93903571D01*
X107000000Y-93903571D02*
X107000000Y-92403571D01*
X106857142Y-92617857D01*
X106714285Y-92760714D01*
X106571428Y-92832142D01*
X102571428Y-106250000D02*
X103285714Y-106250000D01*
X102428571Y-106678571D02*
X102928571Y-105178571D01*
X103428571Y-106678571D01*
X103928571Y-105178571D02*
X103928571Y-106392857D01*
X104000000Y-106535714D01*
X104071428Y-106607142D01*
X104214285Y-106678571D01*
X104500000Y-106678571D01*
X104642857Y-106607142D01*
X104714285Y-106535714D01*
X104785714Y-106392857D01*
X104785714Y-105178571D01*
X106928571Y-105178571D02*
X107071428Y-105178571D01*
X107214285Y-105250000D01*
X107285714Y-105321428D01*
X107357142Y-105464285D01*
X107428571Y-105750000D01*
X107428571Y-106107142D01*
X107357142Y-106392857D01*
X107285714Y-106535714D01*
X107214285Y-106607142D01*
X107071428Y-106678571D01*
X106928571Y-106678571D01*
X106785714Y-106607142D01*
X106714285Y-106535714D01*
X106642857Y-106392857D01*
X106571428Y-106107142D01*
X106571428Y-105750000D01*
X106642857Y-105464285D01*
X106714285Y-105321428D01*
X106785714Y-105250000D01*
X106928571Y-105178571D01*
X116714285Y-95542857D02*
X116714285Y-94342857D01*
X117171428Y-94342857D01*
X117285714Y-94400000D01*
X117342857Y-94457142D01*
X117400000Y-94571428D01*
X117400000Y-94742857D01*
X117342857Y-94857142D01*
X117285714Y-94914285D01*
X117171428Y-94971428D01*
X116714285Y-94971428D01*
X117800000Y-94342857D02*
X118085714Y-95542857D01*
X118314285Y-94685714D01*
X118542857Y-95542857D01*
X118828571Y-94342857D01*
X119285714Y-95542857D02*
X119285714Y-94342857D01*
X119685714Y-95200000D01*
X120085714Y-94342857D01*
X120085714Y-95542857D01*
X122200000Y-95542857D02*
X121514285Y-95542857D01*
X121857142Y-95542857D02*
X121857142Y-94342857D01*
X121742857Y-94514285D01*
X121628571Y-94628571D01*
X121514285Y-94685714D01*
X123342857Y-95542857D02*
X122657142Y-95542857D01*
X123000000Y-95542857D02*
X123000000Y-94342857D01*
X122885714Y-94514285D01*
X122771428Y-94628571D01*
X122657142Y-94685714D01*
X117957142Y-98700000D02*
X118528571Y-98700000D01*
X117842857Y-99042857D02*
X118242857Y-97842857D01*
X118642857Y-99042857D01*
X119042857Y-97842857D02*
X119042857Y-98814285D01*
X119100000Y-98928571D01*
X119157142Y-98985714D01*
X119271428Y-99042857D01*
X119500000Y-99042857D01*
X119614285Y-98985714D01*
X119671428Y-98928571D01*
X119728571Y-98814285D01*
X119728571Y-97842857D01*
X121842857Y-99042857D02*
X121157142Y-99042857D01*
X121500000Y-99042857D02*
X121500000Y-97842857D01*
X121385714Y-98014285D01*
X121271428Y-98128571D01*
X121157142Y-98185714D01*
X123042857Y-99042857D02*
X122642857Y-98471428D01*
X122357142Y-99042857D02*
X122357142Y-97842857D01*
X122814285Y-97842857D01*
X122928571Y-97900000D01*
X122985714Y-97957142D01*
X123042857Y-98071428D01*
X123042857Y-98242857D01*
X122985714Y-98357142D01*
X122928571Y-98414285D01*
X122814285Y-98471428D01*
X122357142Y-98471428D01*
D12*
G04 #@! TO.C,J71*
X88500000Y-102000000D02*
X88500000Y-96000000D01*
X102500000Y-102000000D02*
X88500000Y-102000000D01*
X102500000Y-90500000D02*
X102500000Y-102000000D01*
X88500000Y-90500000D02*
X102500000Y-90500000D01*
X88500000Y-96000000D02*
X88500000Y-90500000D01*
G04 #@! TO.C,J70*
X88500000Y-115000000D02*
X88500000Y-109000000D01*
X102500000Y-115000000D02*
X88500000Y-115000000D01*
X102500000Y-103500000D02*
X102500000Y-115000000D01*
X88500000Y-103500000D02*
X102500000Y-103500000D01*
X88500000Y-109000000D02*
X88500000Y-103500000D01*
D13*
G04 #@! TO.C,C00*
X136741422Y-133710000D02*
X137258578Y-133710000D01*
X136741422Y-132290000D02*
X137258578Y-132290000D01*
G04 #@! TO.C,C01*
X136741422Y-125290000D02*
X137258578Y-125290000D01*
X136741422Y-126710000D02*
X137258578Y-126710000D01*
G04 #@! TO.C,C10*
X136741422Y-121290000D02*
X137258578Y-121290000D01*
X136741422Y-122710000D02*
X137258578Y-122710000D01*
G04 #@! TO.C,C11*
X136741422Y-114290000D02*
X137258578Y-114290000D01*
X136741422Y-115710000D02*
X137258578Y-115710000D01*
G04 #@! TO.C,C20*
X136741422Y-110290000D02*
X137258578Y-110290000D01*
X136741422Y-111710000D02*
X137258578Y-111710000D01*
G04 #@! TO.C,C21*
X136741422Y-103290000D02*
X137258578Y-103290000D01*
X136741422Y-104710000D02*
X137258578Y-104710000D01*
G04 #@! TO.C,C30*
X136741422Y-100710000D02*
X137258578Y-100710000D01*
X136741422Y-99290000D02*
X137258578Y-99290000D01*
G04 #@! TO.C,C31*
X136741422Y-93710000D02*
X137258578Y-93710000D01*
X136741422Y-92290000D02*
X137258578Y-92290000D01*
G04 #@! TO.C,C60*
X106710000Y-131758578D02*
X106710000Y-131241422D01*
X105290000Y-131758578D02*
X105290000Y-131241422D01*
G04 #@! TO.C,C61*
X102290000Y-131758578D02*
X102290000Y-131241422D01*
X103710000Y-131758578D02*
X103710000Y-131241422D01*
G04 #@! TO.C,C62*
X100710000Y-131758578D02*
X100710000Y-131241422D01*
X99290000Y-131758578D02*
X99290000Y-131241422D01*
D12*
G04 #@! TO.C,J00*
X147000000Y-133400000D02*
X150600000Y-133400000D01*
X150600000Y-133400000D02*
X150600000Y-125600000D01*
X150600000Y-125600000D02*
X147000000Y-125600000D01*
X147000000Y-125600000D02*
X143300000Y-125600000D01*
X143300000Y-125600000D02*
X143300000Y-133400000D01*
X143300000Y-133400000D02*
X147000000Y-133400000D01*
X150100000Y-133400000D02*
X150100000Y-125600000D01*
X150900000Y-126500000D02*
X150900000Y-125300000D01*
X150900000Y-125300000D02*
X149700000Y-125300000D01*
G04 #@! TO.C,J10*
X150900000Y-114300000D02*
X149700000Y-114300000D01*
X150900000Y-115500000D02*
X150900000Y-114300000D01*
X150100000Y-122400000D02*
X150100000Y-114600000D01*
X143300000Y-122400000D02*
X147000000Y-122400000D01*
X143300000Y-114600000D02*
X143300000Y-122400000D01*
X147000000Y-114600000D02*
X143300000Y-114600000D01*
X150600000Y-114600000D02*
X147000000Y-114600000D01*
X150600000Y-122400000D02*
X150600000Y-114600000D01*
X147000000Y-122400000D02*
X150600000Y-122400000D01*
G04 #@! TO.C,J20*
X150900000Y-103300000D02*
X149700000Y-103300000D01*
X150900000Y-104500000D02*
X150900000Y-103300000D01*
X150100000Y-111400000D02*
X150100000Y-103600000D01*
X143300000Y-111400000D02*
X147000000Y-111400000D01*
X143300000Y-103600000D02*
X143300000Y-111400000D01*
X147000000Y-103600000D02*
X143300000Y-103600000D01*
X150600000Y-103600000D02*
X147000000Y-103600000D01*
X150600000Y-111400000D02*
X150600000Y-103600000D01*
X147000000Y-111400000D02*
X150600000Y-111400000D01*
G04 #@! TO.C,J30*
X147000000Y-100400000D02*
X150600000Y-100400000D01*
X150600000Y-100400000D02*
X150600000Y-92600000D01*
X150600000Y-92600000D02*
X147000000Y-92600000D01*
X147000000Y-92600000D02*
X143300000Y-92600000D01*
X143300000Y-92600000D02*
X143300000Y-100400000D01*
X143300000Y-100400000D02*
X147000000Y-100400000D01*
X150100000Y-100400000D02*
X150100000Y-92600000D01*
X150900000Y-93500000D02*
X150900000Y-92300000D01*
X150900000Y-92300000D02*
X149700000Y-92300000D01*
G04 #@! TO.C,J60*
X93150000Y-128850000D02*
X91750000Y-128850000D01*
X89350000Y-128850000D02*
X89200000Y-128850000D01*
X89200000Y-128850000D02*
X89200000Y-129150000D01*
X89200000Y-129150000D02*
X88750000Y-129150000D01*
X88750000Y-136850000D02*
X89200000Y-136850000D01*
X89200000Y-136850000D02*
X89200000Y-137150000D01*
X89200000Y-137150000D02*
X89350000Y-137150000D01*
X91750000Y-137150000D02*
X93150000Y-137150000D01*
X95325000Y-131925000D02*
X95325000Y-131200000D01*
X95325000Y-131200000D02*
X94900000Y-131200000D01*
X94900000Y-131200000D02*
X94900000Y-130475000D01*
X94900000Y-134800000D02*
X94900000Y-135525000D01*
D13*
G04 #@! TO.C,J61*
X93700000Y-125200000D02*
X85200000Y-125200000D01*
X85200000Y-125200000D02*
X85200000Y-116000000D01*
X85200000Y-116000000D02*
X99900000Y-116000000D01*
X99900000Y-123100000D02*
X99900000Y-125200000D01*
X99900000Y-125200000D02*
X98100000Y-125200000D01*
X100200000Y-117400000D02*
X100200000Y-115700000D01*
X100200000Y-115700000D02*
X98600000Y-115700000D01*
X99900000Y-116000000D02*
X99900000Y-118100000D01*
G04 #@! TO.C,R00*
X130741422Y-131790000D02*
X131258578Y-131790000D01*
X130741422Y-133210000D02*
X131258578Y-133210000D01*
G04 #@! TO.C,R01*
X130741422Y-125790000D02*
X131258578Y-125790000D01*
X130741422Y-127210000D02*
X131258578Y-127210000D01*
G04 #@! TO.C,R02*
X130741422Y-130210000D02*
X131258578Y-130210000D01*
X130741422Y-128790000D02*
X131258578Y-128790000D01*
G04 #@! TO.C,R10*
X130741422Y-120790000D02*
X131258578Y-120790000D01*
X130741422Y-122210000D02*
X131258578Y-122210000D01*
G04 #@! TO.C,R11*
X130741422Y-114790000D02*
X131258578Y-114790000D01*
X130741422Y-116210000D02*
X131258578Y-116210000D01*
G04 #@! TO.C,R12*
X130741422Y-119210000D02*
X131258578Y-119210000D01*
X130741422Y-117790000D02*
X131258578Y-117790000D01*
G04 #@! TO.C,R20*
X130741422Y-111210000D02*
X131258578Y-111210000D01*
X130741422Y-109790000D02*
X131258578Y-109790000D01*
G04 #@! TO.C,R21*
X130741422Y-105210000D02*
X131258578Y-105210000D01*
X130741422Y-103790000D02*
X131258578Y-103790000D01*
G04 #@! TO.C,R22*
X130741422Y-106790000D02*
X131258578Y-106790000D01*
X130741422Y-108210000D02*
X131258578Y-108210000D01*
G04 #@! TO.C,R30*
X130741422Y-100210000D02*
X131258578Y-100210000D01*
X130741422Y-98790000D02*
X131258578Y-98790000D01*
G04 #@! TO.C,R31*
X130741422Y-94210000D02*
X131258578Y-94210000D01*
X130741422Y-92790000D02*
X131258578Y-92790000D01*
G04 #@! TO.C,R32*
X130741422Y-95790000D02*
X131258578Y-95790000D01*
X130741422Y-97210000D02*
X131258578Y-97210000D01*
G04 #@! TO.C,R40*
X104241422Y-96290000D02*
X104758578Y-96290000D01*
X104241422Y-97710000D02*
X104758578Y-97710000D01*
G04 #@! TO.C,R41*
X104241422Y-100710000D02*
X104758578Y-100710000D01*
X104241422Y-99290000D02*
X104758578Y-99290000D01*
D12*
G04 #@! TO.C,U00*
X135375000Y-128050000D02*
X134300000Y-128050000D01*
X135375000Y-131125000D02*
X138625000Y-131125000D01*
X135375000Y-127875000D02*
X138625000Y-127875000D01*
X135375000Y-131125000D02*
X135375000Y-130850000D01*
X138625000Y-131125000D02*
X138625000Y-130850000D01*
X138625000Y-127875000D02*
X138625000Y-128150000D01*
X135375000Y-127875000D02*
X135375000Y-128050000D01*
G04 #@! TO.C,U10*
X135375000Y-116875000D02*
X135375000Y-117050000D01*
X138625000Y-116875000D02*
X138625000Y-117150000D01*
X138625000Y-120125000D02*
X138625000Y-119850000D01*
X135375000Y-120125000D02*
X135375000Y-119850000D01*
X135375000Y-116875000D02*
X138625000Y-116875000D01*
X135375000Y-120125000D02*
X138625000Y-120125000D01*
X135375000Y-117050000D02*
X134300000Y-117050000D01*
G04 #@! TO.C,U20*
X135375000Y-105875000D02*
X135375000Y-106050000D01*
X138625000Y-105875000D02*
X138625000Y-106150000D01*
X138625000Y-109125000D02*
X138625000Y-108850000D01*
X135375000Y-109125000D02*
X135375000Y-108850000D01*
X135375000Y-105875000D02*
X138625000Y-105875000D01*
X135375000Y-109125000D02*
X138625000Y-109125000D01*
X135375000Y-106050000D02*
X134300000Y-106050000D01*
G04 #@! TO.C,U30*
X135375000Y-95050000D02*
X134300000Y-95050000D01*
X135375000Y-98125000D02*
X138625000Y-98125000D01*
X135375000Y-94875000D02*
X138625000Y-94875000D01*
X135375000Y-98125000D02*
X135375000Y-97850000D01*
X138625000Y-98125000D02*
X138625000Y-97850000D01*
X138625000Y-94875000D02*
X138625000Y-95150000D01*
X135375000Y-94875000D02*
X135375000Y-95050000D01*
G04 #@! TO.C,U40*
X109675000Y-101025000D02*
X109675000Y-101000000D01*
X109675000Y-92975000D02*
X109675000Y-93000000D01*
X114325000Y-92975000D02*
X114325000Y-93000000D01*
X115400000Y-101075000D02*
X109675000Y-101075000D01*
X114325000Y-92975000D02*
X109675000Y-92975000D01*
G04 #@! TO.C,SW00*
X124250000Y-134500000D02*
X124250000Y-124500000D01*
X124250000Y-124500000D02*
X126750000Y-124500000D01*
X126750000Y-124500000D02*
X126750000Y-134500000D01*
X126750000Y-134500000D02*
X124250000Y-134500000D01*
G04 #@! TO.C,SW10*
X126750000Y-123500000D02*
X124250000Y-123500000D01*
X126750000Y-113500000D02*
X126750000Y-123500000D01*
X124250000Y-113500000D02*
X126750000Y-113500000D01*
X124250000Y-123500000D02*
X124250000Y-113500000D01*
G04 #@! TO.C,SW20*
X124250000Y-112500000D02*
X124250000Y-102500000D01*
X124250000Y-102500000D02*
X126750000Y-102500000D01*
X126750000Y-102500000D02*
X126750000Y-112500000D01*
X126750000Y-112500000D02*
X124250000Y-112500000D01*
G04 #@! TO.C,SW30*
X126750000Y-101500000D02*
X124250000Y-101500000D01*
X126750000Y-91500000D02*
X126750000Y-101500000D01*
X124250000Y-91500000D02*
X126750000Y-91500000D01*
X124250000Y-101500000D02*
X124250000Y-91500000D01*
D13*
G04 #@! TO.C,C40*
X112241422Y-102790000D02*
X112758578Y-102790000D01*
X112241422Y-104210000D02*
X112758578Y-104210000D01*
G04 #@! TO.C,JP60*
X103670000Y-120170000D02*
X106330000Y-120170000D01*
X103670000Y-120170000D02*
X103670000Y-125310000D01*
X103670000Y-125310000D02*
X106330000Y-125310000D01*
X106330000Y-120170000D02*
X106330000Y-125310000D01*
X106330000Y-117570000D02*
X106330000Y-118900000D01*
X105000000Y-117570000D02*
X106330000Y-117570000D01*
D14*
G04 #@! TO.C,G\002A\002A\002A*
G36*
X113259136Y-125515523D02*
X113271315Y-125537895D01*
X113275427Y-125568488D01*
X113274207Y-125583700D01*
X113257814Y-125655989D01*
X113229418Y-125724991D01*
X113187809Y-125792807D01*
X113131781Y-125861538D01*
X113089375Y-125905433D01*
X113059467Y-125934119D01*
X113028603Y-125962201D01*
X112995198Y-125990909D01*
X112957665Y-126021468D01*
X112914421Y-126055107D01*
X112863878Y-126093053D01*
X112804453Y-126136533D01*
X112734560Y-126186774D01*
X112652613Y-126245004D01*
X112631319Y-126260061D01*
X112527325Y-126334266D01*
X112436583Y-126400663D01*
X112357895Y-126460271D01*
X112290062Y-126514107D01*
X112231884Y-126563192D01*
X112182164Y-126608542D01*
X112139703Y-126651178D01*
X112103302Y-126692116D01*
X112071763Y-126732377D01*
X112065877Y-126740515D01*
X112027961Y-126798388D01*
X112001804Y-126850614D01*
X111985621Y-126901715D01*
X111977633Y-126956215D01*
X111976956Y-126966243D01*
X111978649Y-127047882D01*
X111993340Y-127119507D01*
X112020484Y-127180496D01*
X112059539Y-127230224D01*
X112109961Y-127268067D01*
X112171207Y-127293401D01*
X112242733Y-127305602D01*
X112273383Y-127306666D01*
X112362041Y-127298526D01*
X112453932Y-127274379D01*
X112548149Y-127234641D01*
X112643788Y-127179727D01*
X112739941Y-127110051D01*
X112784772Y-127072567D01*
X112822417Y-127041811D01*
X112851204Y-127023324D01*
X112871333Y-127017517D01*
X112883004Y-127024807D01*
X112886416Y-127045608D01*
X112881769Y-127080333D01*
X112869262Y-127129397D01*
X112849095Y-127193214D01*
X112846525Y-127200833D01*
X112784789Y-127362024D01*
X112709650Y-127522345D01*
X112622503Y-127679983D01*
X112524740Y-127833127D01*
X112417754Y-127979966D01*
X112302941Y-128118689D01*
X112181692Y-128247482D01*
X112055402Y-128364536D01*
X111925463Y-128468039D01*
X111813440Y-128543851D01*
X111693329Y-128610663D01*
X111567870Y-128665778D01*
X111441027Y-128707614D01*
X111349434Y-128728936D01*
X111295625Y-128737937D01*
X111242424Y-128744704D01*
X111193178Y-128749004D01*
X111151235Y-128750601D01*
X111119942Y-128749262D01*
X111105117Y-128746044D01*
X111087881Y-128734994D01*
X111085122Y-128721892D01*
X111097275Y-128706291D01*
X111124776Y-128687744D01*
X111168064Y-128665806D01*
X111195644Y-128653477D01*
X111240448Y-128631733D01*
X111287192Y-128605233D01*
X111327916Y-128578566D01*
X111336305Y-128572349D01*
X111415433Y-128504620D01*
X111490414Y-128426785D01*
X111558130Y-128342676D01*
X111615463Y-128256123D01*
X111654904Y-128180862D01*
X111680050Y-128119300D01*
X111704605Y-128047968D01*
X111727661Y-127970588D01*
X111748310Y-127890881D01*
X111765643Y-127812568D01*
X111778751Y-127739369D01*
X111786727Y-127675005D01*
X111788801Y-127632502D01*
X111788367Y-127600000D01*
X111786473Y-127580938D01*
X111782228Y-127571829D01*
X111774742Y-127569191D01*
X111772608Y-127569133D01*
X111760648Y-127575025D01*
X111744775Y-127593580D01*
X111723930Y-127626114D01*
X111716442Y-127638983D01*
X111686642Y-127683800D01*
X111646990Y-127733101D01*
X111601196Y-127783061D01*
X111552970Y-127829859D01*
X111506024Y-127869672D01*
X111464722Y-127898293D01*
X111387246Y-127937394D01*
X111313244Y-127961772D01*
X111243693Y-127971285D01*
X111179572Y-127965791D01*
X111126640Y-127947568D01*
X111077559Y-127914482D01*
X111036646Y-127869177D01*
X111005431Y-127815013D01*
X110985443Y-127755349D01*
X110978212Y-127693544D01*
X110984606Y-127635684D01*
X110992607Y-127605867D01*
X111002841Y-127576400D01*
X111016461Y-127545127D01*
X111034620Y-127509894D01*
X111058469Y-127468547D01*
X111089162Y-127418931D01*
X111127852Y-127358891D01*
X111153898Y-127319219D01*
X111189094Y-127264917D01*
X111223435Y-127210212D01*
X111255029Y-127158249D01*
X111281982Y-127112172D01*
X111302402Y-127075128D01*
X111310505Y-127059021D01*
X111331819Y-127009866D01*
X111350964Y-126957982D01*
X111366630Y-126907645D01*
X111377507Y-126863132D01*
X111382288Y-126828721D01*
X111382401Y-126824123D01*
X111380173Y-126802498D01*
X111373090Y-126793364D01*
X111360550Y-126797178D01*
X111341954Y-126814396D01*
X111316700Y-126845473D01*
X111284188Y-126890866D01*
X111273136Y-126907038D01*
X111210940Y-126989949D01*
X111136623Y-127072622D01*
X111048908Y-127156335D01*
X110946515Y-127242364D01*
X110904034Y-127275512D01*
X110852920Y-127314679D01*
X110794630Y-127359359D01*
X110735404Y-127404767D01*
X110681485Y-127446117D01*
X110667109Y-127457145D01*
X110595892Y-127514325D01*
X110526295Y-127574994D01*
X110460889Y-127636633D01*
X110402245Y-127696725D01*
X110352935Y-127752750D01*
X110316992Y-127800041D01*
X110272665Y-127869418D01*
X110237560Y-127935722D01*
X110210674Y-128002369D01*
X110191003Y-128072771D01*
X110177543Y-128150343D01*
X110169292Y-128238501D01*
X110165902Y-128314200D01*
X110163236Y-128384680D01*
X110159649Y-128439681D01*
X110154884Y-128480645D01*
X110148682Y-128509014D01*
X110140786Y-128526228D01*
X110130938Y-128533729D01*
X110126497Y-128534333D01*
X110114174Y-128527531D01*
X110101247Y-128506736D01*
X110087521Y-128471362D01*
X110072800Y-128420826D01*
X110056887Y-128354544D01*
X110041263Y-128280333D01*
X110015416Y-128117238D01*
X110004812Y-127961120D01*
X110009591Y-127811301D01*
X110029895Y-127667102D01*
X110065862Y-127527844D01*
X110117632Y-127392848D01*
X110185347Y-127261437D01*
X110269145Y-127132930D01*
X110281445Y-127116108D01*
X110374966Y-127002084D01*
X110484248Y-126890878D01*
X110608248Y-126783234D01*
X110745919Y-126679898D01*
X110896218Y-126581613D01*
X111058101Y-126489123D01*
X111230522Y-126403173D01*
X111365467Y-126343725D01*
X111411302Y-126325099D01*
X111457681Y-126307356D01*
X111506392Y-126289952D01*
X111559223Y-126272342D01*
X111617960Y-126253983D01*
X111684392Y-126234329D01*
X111760306Y-126212836D01*
X111847489Y-126188961D01*
X111947729Y-126162160D01*
X112051267Y-126134907D01*
X112123038Y-126115919D01*
X112194957Y-126096524D01*
X112263974Y-126077570D01*
X112327035Y-126059908D01*
X112381090Y-126044387D01*
X112423086Y-126031857D01*
X112436500Y-126027656D01*
X112585104Y-125976059D01*
X112718706Y-125920952D01*
X112839038Y-125861437D01*
X112947830Y-125796614D01*
X113046813Y-125725582D01*
X113096900Y-125684234D01*
X113131591Y-125652815D01*
X113156451Y-125626188D01*
X113175503Y-125599405D01*
X113192768Y-125567518D01*
X113194267Y-125564443D01*
X113210716Y-125532551D01*
X113223219Y-125513935D01*
X113233795Y-125506024D01*
X113240622Y-125505409D01*
X113259136Y-125515523D01*
X113259136Y-125515523D01*
G37*
X113259136Y-125515523D02*
X113271315Y-125537895D01*
X113275427Y-125568488D01*
X113274207Y-125583700D01*
X113257814Y-125655989D01*
X113229418Y-125724991D01*
X113187809Y-125792807D01*
X113131781Y-125861538D01*
X113089375Y-125905433D01*
X113059467Y-125934119D01*
X113028603Y-125962201D01*
X112995198Y-125990909D01*
X112957665Y-126021468D01*
X112914421Y-126055107D01*
X112863878Y-126093053D01*
X112804453Y-126136533D01*
X112734560Y-126186774D01*
X112652613Y-126245004D01*
X112631319Y-126260061D01*
X112527325Y-126334266D01*
X112436583Y-126400663D01*
X112357895Y-126460271D01*
X112290062Y-126514107D01*
X112231884Y-126563192D01*
X112182164Y-126608542D01*
X112139703Y-126651178D01*
X112103302Y-126692116D01*
X112071763Y-126732377D01*
X112065877Y-126740515D01*
X112027961Y-126798388D01*
X112001804Y-126850614D01*
X111985621Y-126901715D01*
X111977633Y-126956215D01*
X111976956Y-126966243D01*
X111978649Y-127047882D01*
X111993340Y-127119507D01*
X112020484Y-127180496D01*
X112059539Y-127230224D01*
X112109961Y-127268067D01*
X112171207Y-127293401D01*
X112242733Y-127305602D01*
X112273383Y-127306666D01*
X112362041Y-127298526D01*
X112453932Y-127274379D01*
X112548149Y-127234641D01*
X112643788Y-127179727D01*
X112739941Y-127110051D01*
X112784772Y-127072567D01*
X112822417Y-127041811D01*
X112851204Y-127023324D01*
X112871333Y-127017517D01*
X112883004Y-127024807D01*
X112886416Y-127045608D01*
X112881769Y-127080333D01*
X112869262Y-127129397D01*
X112849095Y-127193214D01*
X112846525Y-127200833D01*
X112784789Y-127362024D01*
X112709650Y-127522345D01*
X112622503Y-127679983D01*
X112524740Y-127833127D01*
X112417754Y-127979966D01*
X112302941Y-128118689D01*
X112181692Y-128247482D01*
X112055402Y-128364536D01*
X111925463Y-128468039D01*
X111813440Y-128543851D01*
X111693329Y-128610663D01*
X111567870Y-128665778D01*
X111441027Y-128707614D01*
X111349434Y-128728936D01*
X111295625Y-128737937D01*
X111242424Y-128744704D01*
X111193178Y-128749004D01*
X111151235Y-128750601D01*
X111119942Y-128749262D01*
X111105117Y-128746044D01*
X111087881Y-128734994D01*
X111085122Y-128721892D01*
X111097275Y-128706291D01*
X111124776Y-128687744D01*
X111168064Y-128665806D01*
X111195644Y-128653477D01*
X111240448Y-128631733D01*
X111287192Y-128605233D01*
X111327916Y-128578566D01*
X111336305Y-128572349D01*
X111415433Y-128504620D01*
X111490414Y-128426785D01*
X111558130Y-128342676D01*
X111615463Y-128256123D01*
X111654904Y-128180862D01*
X111680050Y-128119300D01*
X111704605Y-128047968D01*
X111727661Y-127970588D01*
X111748310Y-127890881D01*
X111765643Y-127812568D01*
X111778751Y-127739369D01*
X111786727Y-127675005D01*
X111788801Y-127632502D01*
X111788367Y-127600000D01*
X111786473Y-127580938D01*
X111782228Y-127571829D01*
X111774742Y-127569191D01*
X111772608Y-127569133D01*
X111760648Y-127575025D01*
X111744775Y-127593580D01*
X111723930Y-127626114D01*
X111716442Y-127638983D01*
X111686642Y-127683800D01*
X111646990Y-127733101D01*
X111601196Y-127783061D01*
X111552970Y-127829859D01*
X111506024Y-127869672D01*
X111464722Y-127898293D01*
X111387246Y-127937394D01*
X111313244Y-127961772D01*
X111243693Y-127971285D01*
X111179572Y-127965791D01*
X111126640Y-127947568D01*
X111077559Y-127914482D01*
X111036646Y-127869177D01*
X111005431Y-127815013D01*
X110985443Y-127755349D01*
X110978212Y-127693544D01*
X110984606Y-127635684D01*
X110992607Y-127605867D01*
X111002841Y-127576400D01*
X111016461Y-127545127D01*
X111034620Y-127509894D01*
X111058469Y-127468547D01*
X111089162Y-127418931D01*
X111127852Y-127358891D01*
X111153898Y-127319219D01*
X111189094Y-127264917D01*
X111223435Y-127210212D01*
X111255029Y-127158249D01*
X111281982Y-127112172D01*
X111302402Y-127075128D01*
X111310505Y-127059021D01*
X111331819Y-127009866D01*
X111350964Y-126957982D01*
X111366630Y-126907645D01*
X111377507Y-126863132D01*
X111382288Y-126828721D01*
X111382401Y-126824123D01*
X111380173Y-126802498D01*
X111373090Y-126793364D01*
X111360550Y-126797178D01*
X111341954Y-126814396D01*
X111316700Y-126845473D01*
X111284188Y-126890866D01*
X111273136Y-126907038D01*
X111210940Y-126989949D01*
X111136623Y-127072622D01*
X111048908Y-127156335D01*
X110946515Y-127242364D01*
X110904034Y-127275512D01*
X110852920Y-127314679D01*
X110794630Y-127359359D01*
X110735404Y-127404767D01*
X110681485Y-127446117D01*
X110667109Y-127457145D01*
X110595892Y-127514325D01*
X110526295Y-127574994D01*
X110460889Y-127636633D01*
X110402245Y-127696725D01*
X110352935Y-127752750D01*
X110316992Y-127800041D01*
X110272665Y-127869418D01*
X110237560Y-127935722D01*
X110210674Y-128002369D01*
X110191003Y-128072771D01*
X110177543Y-128150343D01*
X110169292Y-128238501D01*
X110165902Y-128314200D01*
X110163236Y-128384680D01*
X110159649Y-128439681D01*
X110154884Y-128480645D01*
X110148682Y-128509014D01*
X110140786Y-128526228D01*
X110130938Y-128533729D01*
X110126497Y-128534333D01*
X110114174Y-128527531D01*
X110101247Y-128506736D01*
X110087521Y-128471362D01*
X110072800Y-128420826D01*
X110056887Y-128354544D01*
X110041263Y-128280333D01*
X110015416Y-128117238D01*
X110004812Y-127961120D01*
X110009591Y-127811301D01*
X110029895Y-127667102D01*
X110065862Y-127527844D01*
X110117632Y-127392848D01*
X110185347Y-127261437D01*
X110269145Y-127132930D01*
X110281445Y-127116108D01*
X110374966Y-127002084D01*
X110484248Y-126890878D01*
X110608248Y-126783234D01*
X110745919Y-126679898D01*
X110896218Y-126581613D01*
X111058101Y-126489123D01*
X111230522Y-126403173D01*
X111365467Y-126343725D01*
X111411302Y-126325099D01*
X111457681Y-126307356D01*
X111506392Y-126289952D01*
X111559223Y-126272342D01*
X111617960Y-126253983D01*
X111684392Y-126234329D01*
X111760306Y-126212836D01*
X111847489Y-126188961D01*
X111947729Y-126162160D01*
X112051267Y-126134907D01*
X112123038Y-126115919D01*
X112194957Y-126096524D01*
X112263974Y-126077570D01*
X112327035Y-126059908D01*
X112381090Y-126044387D01*
X112423086Y-126031857D01*
X112436500Y-126027656D01*
X112585104Y-125976059D01*
X112718706Y-125920952D01*
X112839038Y-125861437D01*
X112947830Y-125796614D01*
X113046813Y-125725582D01*
X113096900Y-125684234D01*
X113131591Y-125652815D01*
X113156451Y-125626188D01*
X113175503Y-125599405D01*
X113192768Y-125567518D01*
X113194267Y-125564443D01*
X113210716Y-125532551D01*
X113223219Y-125513935D01*
X113233795Y-125506024D01*
X113240622Y-125505409D01*
X113259136Y-125515523D01*
G36*
X112178267Y-129635000D02*
X111103000Y-129635000D01*
X111103000Y-132429000D01*
X110146267Y-132429000D01*
X110146267Y-129635000D01*
X109071001Y-129635000D01*
X109071001Y-128966133D01*
X112178267Y-128966133D01*
X112178267Y-129635000D01*
X112178267Y-129635000D01*
G37*
X112178267Y-129635000D02*
X111103000Y-129635000D01*
X111103000Y-132429000D01*
X110146267Y-132429000D01*
X110146267Y-129635000D01*
X109071001Y-129635000D01*
X109071001Y-128966133D01*
X112178267Y-128966133D01*
X112178267Y-129635000D01*
G36*
X113585673Y-130107017D02*
X113588137Y-131247900D01*
X113610762Y-131330111D01*
X113647084Y-131434658D01*
X113695179Y-131527705D01*
X113754670Y-131608788D01*
X113825181Y-131677442D01*
X113906336Y-131733201D01*
X113957568Y-131759195D01*
X114012323Y-131781287D01*
X114066296Y-131797225D01*
X114124350Y-131808013D01*
X114191348Y-131814653D01*
X114238179Y-131817076D01*
X114321426Y-131818138D01*
X114393219Y-131813909D01*
X114458378Y-131803779D01*
X114521720Y-131787137D01*
X114550286Y-131777585D01*
X114622163Y-131747788D01*
X114684695Y-131711481D01*
X114743675Y-131664969D01*
X114777891Y-131632512D01*
X114841298Y-131557670D01*
X114891968Y-131472530D01*
X114930116Y-131376612D01*
X114955957Y-131269434D01*
X114963496Y-131218489D01*
X114964915Y-131197998D01*
X114966218Y-131160914D01*
X114967400Y-131107577D01*
X114968461Y-131038327D01*
X114969397Y-130953504D01*
X114970206Y-130853447D01*
X114970886Y-130738497D01*
X114971432Y-130608993D01*
X114971844Y-130465276D01*
X114972119Y-130307686D01*
X114972253Y-130136561D01*
X114972267Y-130056439D01*
X114972267Y-128966133D01*
X115929000Y-128966133D01*
X115928845Y-130119717D01*
X115928821Y-130288502D01*
X115928774Y-130441274D01*
X115928674Y-130578953D01*
X115928493Y-130702458D01*
X115928200Y-130812709D01*
X115927764Y-130910626D01*
X115927156Y-130997128D01*
X115926346Y-131073137D01*
X115925303Y-131139570D01*
X115923998Y-131197350D01*
X115922401Y-131247394D01*
X115920482Y-131290623D01*
X115918210Y-131327958D01*
X115915555Y-131360317D01*
X115912489Y-131388620D01*
X115908979Y-131413788D01*
X115904998Y-131436741D01*
X115900513Y-131458397D01*
X115895497Y-131479678D01*
X115889917Y-131501502D01*
X115883745Y-131524791D01*
X115882875Y-131528057D01*
X115838515Y-131663648D01*
X115780257Y-131789713D01*
X115708311Y-131906095D01*
X115622885Y-132012638D01*
X115524188Y-132109184D01*
X115412429Y-132195576D01*
X115287816Y-132271656D01*
X115150559Y-132337268D01*
X115000866Y-132392254D01*
X114838946Y-132436457D01*
X114665008Y-132469720D01*
X114624743Y-132475610D01*
X114590021Y-132479317D01*
X114542532Y-132482823D01*
X114485514Y-132486031D01*
X114422204Y-132488846D01*
X114355838Y-132491169D01*
X114289653Y-132492904D01*
X114226887Y-132493955D01*
X114170775Y-132494225D01*
X114124556Y-132493616D01*
X114091465Y-132492033D01*
X114087501Y-132491672D01*
X114012359Y-132483856D01*
X113950070Y-132476697D01*
X113896593Y-132469643D01*
X113847890Y-132462144D01*
X113799923Y-132453650D01*
X113778467Y-132449545D01*
X113613594Y-132410592D01*
X113460390Y-132360412D01*
X113319139Y-132299242D01*
X113190126Y-132227319D01*
X113073637Y-132144880D01*
X112969955Y-132052162D01*
X112879367Y-131949401D01*
X112802156Y-131836835D01*
X112738608Y-131714700D01*
X112689008Y-131583233D01*
X112673931Y-131531085D01*
X112667529Y-131507060D01*
X112661739Y-131484851D01*
X112656529Y-131463536D01*
X112651870Y-131442193D01*
X112647730Y-131419900D01*
X112644078Y-131395734D01*
X112640885Y-131368773D01*
X112638118Y-131338094D01*
X112635749Y-131302777D01*
X112633744Y-131261897D01*
X112632075Y-131214534D01*
X112630711Y-131159765D01*
X112629620Y-131096667D01*
X112628771Y-131024318D01*
X112628135Y-130941797D01*
X112627680Y-130848180D01*
X112627376Y-130742546D01*
X112627192Y-130623973D01*
X112627097Y-130491537D01*
X112627061Y-130344318D01*
X112627052Y-130181392D01*
X112627050Y-130123950D01*
X112627000Y-128966133D01*
X113583209Y-128966133D01*
X113585673Y-130107017D01*
X113585673Y-130107017D01*
G37*
X113585673Y-130107017D02*
X113588137Y-131247900D01*
X113610762Y-131330111D01*
X113647084Y-131434658D01*
X113695179Y-131527705D01*
X113754670Y-131608788D01*
X113825181Y-131677442D01*
X113906336Y-131733201D01*
X113957568Y-131759195D01*
X114012323Y-131781287D01*
X114066296Y-131797225D01*
X114124350Y-131808013D01*
X114191348Y-131814653D01*
X114238179Y-131817076D01*
X114321426Y-131818138D01*
X114393219Y-131813909D01*
X114458378Y-131803779D01*
X114521720Y-131787137D01*
X114550286Y-131777585D01*
X114622163Y-131747788D01*
X114684695Y-131711481D01*
X114743675Y-131664969D01*
X114777891Y-131632512D01*
X114841298Y-131557670D01*
X114891968Y-131472530D01*
X114930116Y-131376612D01*
X114955957Y-131269434D01*
X114963496Y-131218489D01*
X114964915Y-131197998D01*
X114966218Y-131160914D01*
X114967400Y-131107577D01*
X114968461Y-131038327D01*
X114969397Y-130953504D01*
X114970206Y-130853447D01*
X114970886Y-130738497D01*
X114971432Y-130608993D01*
X114971844Y-130465276D01*
X114972119Y-130307686D01*
X114972253Y-130136561D01*
X114972267Y-130056439D01*
X114972267Y-128966133D01*
X115929000Y-128966133D01*
X115928845Y-130119717D01*
X115928821Y-130288502D01*
X115928774Y-130441274D01*
X115928674Y-130578953D01*
X115928493Y-130702458D01*
X115928200Y-130812709D01*
X115927764Y-130910626D01*
X115927156Y-130997128D01*
X115926346Y-131073137D01*
X115925303Y-131139570D01*
X115923998Y-131197350D01*
X115922401Y-131247394D01*
X115920482Y-131290623D01*
X115918210Y-131327958D01*
X115915555Y-131360317D01*
X115912489Y-131388620D01*
X115908979Y-131413788D01*
X115904998Y-131436741D01*
X115900513Y-131458397D01*
X115895497Y-131479678D01*
X115889917Y-131501502D01*
X115883745Y-131524791D01*
X115882875Y-131528057D01*
X115838515Y-131663648D01*
X115780257Y-131789713D01*
X115708311Y-131906095D01*
X115622885Y-132012638D01*
X115524188Y-132109184D01*
X115412429Y-132195576D01*
X115287816Y-132271656D01*
X115150559Y-132337268D01*
X115000866Y-132392254D01*
X114838946Y-132436457D01*
X114665008Y-132469720D01*
X114624743Y-132475610D01*
X114590021Y-132479317D01*
X114542532Y-132482823D01*
X114485514Y-132486031D01*
X114422204Y-132488846D01*
X114355838Y-132491169D01*
X114289653Y-132492904D01*
X114226887Y-132493955D01*
X114170775Y-132494225D01*
X114124556Y-132493616D01*
X114091465Y-132492033D01*
X114087501Y-132491672D01*
X114012359Y-132483856D01*
X113950070Y-132476697D01*
X113896593Y-132469643D01*
X113847890Y-132462144D01*
X113799923Y-132453650D01*
X113778467Y-132449545D01*
X113613594Y-132410592D01*
X113460390Y-132360412D01*
X113319139Y-132299242D01*
X113190126Y-132227319D01*
X113073637Y-132144880D01*
X112969955Y-132052162D01*
X112879367Y-131949401D01*
X112802156Y-131836835D01*
X112738608Y-131714700D01*
X112689008Y-131583233D01*
X112673931Y-131531085D01*
X112667529Y-131507060D01*
X112661739Y-131484851D01*
X112656529Y-131463536D01*
X112651870Y-131442193D01*
X112647730Y-131419900D01*
X112644078Y-131395734D01*
X112640885Y-131368773D01*
X112638118Y-131338094D01*
X112635749Y-131302777D01*
X112633744Y-131261897D01*
X112632075Y-131214534D01*
X112630711Y-131159765D01*
X112629620Y-131096667D01*
X112628771Y-131024318D01*
X112628135Y-130941797D01*
X112627680Y-130848180D01*
X112627376Y-130742546D01*
X112627192Y-130623973D01*
X112627097Y-130491537D01*
X112627061Y-130344318D01*
X112627052Y-130181392D01*
X112627050Y-130123950D01*
X112627000Y-128966133D01*
X113583209Y-128966133D01*
X113585673Y-130107017D01*
G36*
X110141066Y-107294371D02*
X110239098Y-107294408D01*
X110336181Y-107294463D01*
X110431924Y-107294537D01*
X110525933Y-107294631D01*
X110617816Y-107294743D01*
X110707182Y-107294875D01*
X110793638Y-107295025D01*
X110876791Y-107295195D01*
X110956249Y-107295383D01*
X111031620Y-107295591D01*
X111102512Y-107295817D01*
X111168532Y-107296063D01*
X111229288Y-107296327D01*
X111284388Y-107296611D01*
X111333439Y-107296913D01*
X111376050Y-107297234D01*
X111411827Y-107297575D01*
X111440378Y-107297934D01*
X111461312Y-107298313D01*
X111474235Y-107298710D01*
X111475317Y-107298764D01*
X111608225Y-107308443D01*
X111735010Y-107323103D01*
X111856545Y-107342959D01*
X111973705Y-107368228D01*
X112087367Y-107399127D01*
X112198404Y-107435872D01*
X112307692Y-107478679D01*
X112416106Y-107527766D01*
X112432050Y-107535538D01*
X112545312Y-107595058D01*
X112652399Y-107659322D01*
X112754342Y-107729077D01*
X112852169Y-107805068D01*
X112946911Y-107888041D01*
X113029176Y-107968064D01*
X113111329Y-108055904D01*
X113186186Y-108144852D01*
X113254758Y-108236337D01*
X113318054Y-108331784D01*
X113377087Y-108432620D01*
X113429145Y-108532684D01*
X113485278Y-108655489D01*
X113533179Y-108779359D01*
X113573007Y-108904874D01*
X113604920Y-109032613D01*
X113629077Y-109163156D01*
X113645637Y-109297084D01*
X113648888Y-109334688D01*
X113650578Y-109362692D01*
X113651853Y-109397202D01*
X113652711Y-109436345D01*
X113653152Y-109478250D01*
X113653174Y-109521043D01*
X113652776Y-109562852D01*
X113651957Y-109601805D01*
X113650717Y-109636030D01*
X113649071Y-109663427D01*
X113634109Y-109800838D01*
X113611076Y-109935742D01*
X113580034Y-110067988D01*
X113541044Y-110197425D01*
X113494169Y-110323902D01*
X113439469Y-110447268D01*
X113377006Y-110567372D01*
X113306841Y-110684063D01*
X113229037Y-110797190D01*
X113143654Y-110906602D01*
X113140918Y-110909896D01*
X113118572Y-110935696D01*
X113091179Y-110965651D01*
X113060104Y-110998394D01*
X113026715Y-111032558D01*
X112992378Y-111066776D01*
X112958462Y-111099681D01*
X112926332Y-111129906D01*
X112897356Y-111156084D01*
X112878901Y-111171919D01*
X112769553Y-111257847D01*
X112657461Y-111335822D01*
X112542328Y-111405995D01*
X112423858Y-111468521D01*
X112301753Y-111523549D01*
X112175716Y-111571234D01*
X112045449Y-111611726D01*
X111993900Y-111625483D01*
X111902240Y-111646843D01*
X111808360Y-111664638D01*
X111710964Y-111679047D01*
X111608756Y-111690250D01*
X111500440Y-111698427D01*
X111447800Y-111701241D01*
X111435968Y-111701592D01*
X111416066Y-111701926D01*
X111388492Y-111702241D01*
X111353640Y-111702539D01*
X111311907Y-111702819D01*
X111263689Y-111703081D01*
X111209382Y-111703326D01*
X111149383Y-111703553D01*
X111084086Y-111703763D01*
X111013888Y-111703955D01*
X110939185Y-111704129D01*
X110860374Y-111704286D01*
X110777849Y-111704426D01*
X110692008Y-111704548D01*
X110603246Y-111704653D01*
X110511960Y-111704741D01*
X110418544Y-111704812D01*
X110323397Y-111704865D01*
X110226912Y-111704902D01*
X110129487Y-111704921D01*
X110031517Y-111704924D01*
X109933399Y-111704909D01*
X109835528Y-111704878D01*
X109738301Y-111704830D01*
X109642114Y-111704765D01*
X109547362Y-111704683D01*
X109454442Y-111704585D01*
X109363750Y-111704470D01*
X109275681Y-111704339D01*
X109190632Y-111704191D01*
X109108999Y-111704026D01*
X109031178Y-111703845D01*
X108957564Y-111703648D01*
X108888555Y-111703434D01*
X108824546Y-111703205D01*
X108765932Y-111702958D01*
X108713111Y-111702696D01*
X108666477Y-111702418D01*
X108626428Y-111702123D01*
X108593359Y-111701813D01*
X108567666Y-111701486D01*
X108549745Y-111701144D01*
X108541617Y-111700875D01*
X108394384Y-111690384D01*
X108252045Y-111673064D01*
X108114376Y-111648833D01*
X107981152Y-111617607D01*
X107852148Y-111579301D01*
X107727139Y-111533833D01*
X107605902Y-111481117D01*
X107488211Y-111421072D01*
X107373841Y-111353611D01*
X107262569Y-111278653D01*
X107154169Y-111196113D01*
X107125567Y-111172684D01*
X107101820Y-111152108D01*
X107073791Y-111126457D01*
X107042775Y-111097026D01*
X107010064Y-111065112D01*
X106976954Y-111032012D01*
X106944738Y-110999021D01*
X106914710Y-110967435D01*
X106888163Y-110938552D01*
X106866392Y-110913667D01*
X106863157Y-110909804D01*
X106790286Y-110817958D01*
X106724458Y-110726038D01*
X106664448Y-110632147D01*
X106609030Y-110534389D01*
X106566448Y-110450619D01*
X106513596Y-110332952D01*
X106468189Y-110213249D01*
X106430031Y-110090814D01*
X106398924Y-109964950D01*
X106374674Y-109834964D01*
X106358538Y-109713784D01*
X106356564Y-109689837D01*
X106355000Y-109658829D01*
X106353841Y-109622156D01*
X106353078Y-109581215D01*
X106352705Y-109537399D01*
X106352716Y-109492106D01*
X106352814Y-109480580D01*
X107824890Y-109480580D01*
X107826210Y-109550253D01*
X107834434Y-109619735D01*
X107849649Y-109688511D01*
X107871944Y-109756069D01*
X107901405Y-109821893D01*
X107938121Y-109885472D01*
X107982178Y-109946291D01*
X108033664Y-110003838D01*
X108042721Y-110012828D01*
X108099955Y-110063598D01*
X108160758Y-110107472D01*
X108225546Y-110144628D01*
X108294734Y-110175242D01*
X108368738Y-110199491D01*
X108447973Y-110217551D01*
X108532855Y-110229599D01*
X108558550Y-110231990D01*
X108566015Y-110232258D01*
X108581626Y-110232516D01*
X108605062Y-110232764D01*
X108636001Y-110233002D01*
X108674122Y-110233229D01*
X108719105Y-110233445D01*
X108770628Y-110233648D01*
X108828371Y-110233838D01*
X108892011Y-110234014D01*
X108961228Y-110234176D01*
X109035702Y-110234324D01*
X109115110Y-110234456D01*
X109199132Y-110234572D01*
X109287447Y-110234671D01*
X109379734Y-110234753D01*
X109475671Y-110234817D01*
X109574938Y-110234863D01*
X109677214Y-110234889D01*
X109782177Y-110234896D01*
X109889506Y-110234882D01*
X109998881Y-110234847D01*
X110027516Y-110234835D01*
X110158597Y-110234772D01*
X110281483Y-110234708D01*
X110396449Y-110234641D01*
X110503767Y-110234570D01*
X110603710Y-110234493D01*
X110696552Y-110234409D01*
X110782564Y-110234316D01*
X110862021Y-110234213D01*
X110935195Y-110234099D01*
X111002358Y-110233971D01*
X111063785Y-110233830D01*
X111119748Y-110233672D01*
X111170520Y-110233497D01*
X111216374Y-110233303D01*
X111257582Y-110233089D01*
X111294419Y-110232853D01*
X111327156Y-110232594D01*
X111356068Y-110232311D01*
X111381426Y-110232001D01*
X111403503Y-110231664D01*
X111422574Y-110231298D01*
X111438910Y-110230902D01*
X111452785Y-110230473D01*
X111464471Y-110230012D01*
X111474243Y-110229516D01*
X111482371Y-110228983D01*
X111489130Y-110228413D01*
X111494793Y-110227804D01*
X111499632Y-110227154D01*
X111500606Y-110227007D01*
X111555451Y-110217678D01*
X111603781Y-110207443D01*
X111647541Y-110195730D01*
X111688678Y-110181966D01*
X111729135Y-110165580D01*
X111763183Y-110149778D01*
X111834570Y-110110644D01*
X111899556Y-110065970D01*
X111958148Y-110015747D01*
X112010356Y-109959969D01*
X112056188Y-109898626D01*
X112095652Y-109831711D01*
X112101809Y-109819617D01*
X112133813Y-109746561D01*
X112157376Y-109672870D01*
X112172502Y-109598494D01*
X112179197Y-109523383D01*
X112177464Y-109447488D01*
X112167311Y-109370760D01*
X112152808Y-109307570D01*
X112128861Y-109235457D01*
X112097509Y-109166954D01*
X112059191Y-109102475D01*
X112014341Y-109042438D01*
X111963398Y-108987256D01*
X111906799Y-108937347D01*
X111844980Y-108893124D01*
X111778378Y-108855004D01*
X111707429Y-108823403D01*
X111632572Y-108798735D01*
X111612232Y-108793437D01*
X111575422Y-108785088D01*
X111538625Y-108778326D01*
X111500049Y-108772928D01*
X111457900Y-108768669D01*
X111410386Y-108765325D01*
X111371792Y-108763356D01*
X111358776Y-108762969D01*
X111337724Y-108762602D01*
X111309046Y-108762255D01*
X111273154Y-108761927D01*
X111230459Y-108761619D01*
X111181374Y-108761330D01*
X111126308Y-108761060D01*
X111065674Y-108760810D01*
X110999883Y-108760579D01*
X110929346Y-108760368D01*
X110854475Y-108760176D01*
X110775681Y-108760003D01*
X110693375Y-108759850D01*
X110607969Y-108759716D01*
X110519875Y-108759602D01*
X110429503Y-108759507D01*
X110337265Y-108759431D01*
X110243573Y-108759374D01*
X110148837Y-108759337D01*
X110053469Y-108759319D01*
X109957881Y-108759321D01*
X109862484Y-108759341D01*
X109767689Y-108759381D01*
X109673908Y-108759440D01*
X109581552Y-108759519D01*
X109491032Y-108759616D01*
X109402760Y-108759733D01*
X109317147Y-108759869D01*
X109234605Y-108760024D01*
X109155545Y-108760199D01*
X109080378Y-108760392D01*
X109009516Y-108760605D01*
X108943370Y-108760837D01*
X108882352Y-108761088D01*
X108826872Y-108761358D01*
X108777343Y-108761647D01*
X108734176Y-108761956D01*
X108697781Y-108762283D01*
X108668571Y-108762630D01*
X108646956Y-108762996D01*
X108633349Y-108763380D01*
X108632300Y-108763427D01*
X108564439Y-108767571D01*
X108503633Y-108773473D01*
X108448605Y-108781410D01*
X108398072Y-108791661D01*
X108350756Y-108804502D01*
X108305376Y-108820213D01*
X108260652Y-108839070D01*
X108241050Y-108848339D01*
X108172194Y-108886237D01*
X108109280Y-108929592D01*
X108052396Y-108977889D01*
X108001629Y-109030615D01*
X107957067Y-109087256D01*
X107918797Y-109147300D01*
X107886906Y-109210232D01*
X107861483Y-109275540D01*
X107842614Y-109342709D01*
X107830388Y-109411227D01*
X107824890Y-109480580D01*
X106352814Y-109480580D01*
X106353103Y-109446731D01*
X106353860Y-109402670D01*
X106354980Y-109361318D01*
X106356456Y-109324071D01*
X106358281Y-109292325D01*
X106360448Y-109267475D01*
X106360728Y-109265050D01*
X106381217Y-109126037D01*
X106409094Y-108991104D01*
X106444415Y-108860098D01*
X106487237Y-108732868D01*
X106537615Y-108609258D01*
X106595606Y-108489117D01*
X106661266Y-108372291D01*
X106723845Y-108274450D01*
X106802682Y-108165143D01*
X106887459Y-108061530D01*
X106978519Y-107963251D01*
X107076199Y-107869942D01*
X107180840Y-107781241D01*
X107201222Y-107765124D01*
X107227189Y-107745544D01*
X107258678Y-107722963D01*
X107293871Y-107698594D01*
X107330949Y-107673650D01*
X107368090Y-107649344D01*
X107403476Y-107626890D01*
X107435287Y-107607501D01*
X107453400Y-107596995D01*
X107565243Y-107537709D01*
X107678648Y-107485309D01*
X107794244Y-107439621D01*
X107912657Y-107400472D01*
X108034516Y-107367686D01*
X108160448Y-107341089D01*
X108291081Y-107320506D01*
X108427043Y-107305764D01*
X108526800Y-107298767D01*
X108538375Y-107298367D01*
X108558024Y-107297986D01*
X108585356Y-107297624D01*
X108619977Y-107297281D01*
X108661496Y-107296957D01*
X108709520Y-107296652D01*
X108763656Y-107296366D01*
X108823514Y-107296099D01*
X108888699Y-107295851D01*
X108958820Y-107295622D01*
X109033485Y-107295412D01*
X109112301Y-107295220D01*
X109194876Y-107295048D01*
X109280818Y-107294895D01*
X109369734Y-107294761D01*
X109461233Y-107294646D01*
X109554921Y-107294549D01*
X109650406Y-107294472D01*
X109747297Y-107294415D01*
X109845201Y-107294375D01*
X109943725Y-107294355D01*
X110042477Y-107294354D01*
X110141066Y-107294371D01*
X110141066Y-107294371D01*
G37*
X110141066Y-107294371D02*
X110239098Y-107294408D01*
X110336181Y-107294463D01*
X110431924Y-107294537D01*
X110525933Y-107294631D01*
X110617816Y-107294743D01*
X110707182Y-107294875D01*
X110793638Y-107295025D01*
X110876791Y-107295195D01*
X110956249Y-107295383D01*
X111031620Y-107295591D01*
X111102512Y-107295817D01*
X111168532Y-107296063D01*
X111229288Y-107296327D01*
X111284388Y-107296611D01*
X111333439Y-107296913D01*
X111376050Y-107297234D01*
X111411827Y-107297575D01*
X111440378Y-107297934D01*
X111461312Y-107298313D01*
X111474235Y-107298710D01*
X111475317Y-107298764D01*
X111608225Y-107308443D01*
X111735010Y-107323103D01*
X111856545Y-107342959D01*
X111973705Y-107368228D01*
X112087367Y-107399127D01*
X112198404Y-107435872D01*
X112307692Y-107478679D01*
X112416106Y-107527766D01*
X112432050Y-107535538D01*
X112545312Y-107595058D01*
X112652399Y-107659322D01*
X112754342Y-107729077D01*
X112852169Y-107805068D01*
X112946911Y-107888041D01*
X113029176Y-107968064D01*
X113111329Y-108055904D01*
X113186186Y-108144852D01*
X113254758Y-108236337D01*
X113318054Y-108331784D01*
X113377087Y-108432620D01*
X113429145Y-108532684D01*
X113485278Y-108655489D01*
X113533179Y-108779359D01*
X113573007Y-108904874D01*
X113604920Y-109032613D01*
X113629077Y-109163156D01*
X113645637Y-109297084D01*
X113648888Y-109334688D01*
X113650578Y-109362692D01*
X113651853Y-109397202D01*
X113652711Y-109436345D01*
X113653152Y-109478250D01*
X113653174Y-109521043D01*
X113652776Y-109562852D01*
X113651957Y-109601805D01*
X113650717Y-109636030D01*
X113649071Y-109663427D01*
X113634109Y-109800838D01*
X113611076Y-109935742D01*
X113580034Y-110067988D01*
X113541044Y-110197425D01*
X113494169Y-110323902D01*
X113439469Y-110447268D01*
X113377006Y-110567372D01*
X113306841Y-110684063D01*
X113229037Y-110797190D01*
X113143654Y-110906602D01*
X113140918Y-110909896D01*
X113118572Y-110935696D01*
X113091179Y-110965651D01*
X113060104Y-110998394D01*
X113026715Y-111032558D01*
X112992378Y-111066776D01*
X112958462Y-111099681D01*
X112926332Y-111129906D01*
X112897356Y-111156084D01*
X112878901Y-111171919D01*
X112769553Y-111257847D01*
X112657461Y-111335822D01*
X112542328Y-111405995D01*
X112423858Y-111468521D01*
X112301753Y-111523549D01*
X112175716Y-111571234D01*
X112045449Y-111611726D01*
X111993900Y-111625483D01*
X111902240Y-111646843D01*
X111808360Y-111664638D01*
X111710964Y-111679047D01*
X111608756Y-111690250D01*
X111500440Y-111698427D01*
X111447800Y-111701241D01*
X111435968Y-111701592D01*
X111416066Y-111701926D01*
X111388492Y-111702241D01*
X111353640Y-111702539D01*
X111311907Y-111702819D01*
X111263689Y-111703081D01*
X111209382Y-111703326D01*
X111149383Y-111703553D01*
X111084086Y-111703763D01*
X111013888Y-111703955D01*
X110939185Y-111704129D01*
X110860374Y-111704286D01*
X110777849Y-111704426D01*
X110692008Y-111704548D01*
X110603246Y-111704653D01*
X110511960Y-111704741D01*
X110418544Y-111704812D01*
X110323397Y-111704865D01*
X110226912Y-111704902D01*
X110129487Y-111704921D01*
X110031517Y-111704924D01*
X109933399Y-111704909D01*
X109835528Y-111704878D01*
X109738301Y-111704830D01*
X109642114Y-111704765D01*
X109547362Y-111704683D01*
X109454442Y-111704585D01*
X109363750Y-111704470D01*
X109275681Y-111704339D01*
X109190632Y-111704191D01*
X109108999Y-111704026D01*
X109031178Y-111703845D01*
X108957564Y-111703648D01*
X108888555Y-111703434D01*
X108824546Y-111703205D01*
X108765932Y-111702958D01*
X108713111Y-111702696D01*
X108666477Y-111702418D01*
X108626428Y-111702123D01*
X108593359Y-111701813D01*
X108567666Y-111701486D01*
X108549745Y-111701144D01*
X108541617Y-111700875D01*
X108394384Y-111690384D01*
X108252045Y-111673064D01*
X108114376Y-111648833D01*
X107981152Y-111617607D01*
X107852148Y-111579301D01*
X107727139Y-111533833D01*
X107605902Y-111481117D01*
X107488211Y-111421072D01*
X107373841Y-111353611D01*
X107262569Y-111278653D01*
X107154169Y-111196113D01*
X107125567Y-111172684D01*
X107101820Y-111152108D01*
X107073791Y-111126457D01*
X107042775Y-111097026D01*
X107010064Y-111065112D01*
X106976954Y-111032012D01*
X106944738Y-110999021D01*
X106914710Y-110967435D01*
X106888163Y-110938552D01*
X106866392Y-110913667D01*
X106863157Y-110909804D01*
X106790286Y-110817958D01*
X106724458Y-110726038D01*
X106664448Y-110632147D01*
X106609030Y-110534389D01*
X106566448Y-110450619D01*
X106513596Y-110332952D01*
X106468189Y-110213249D01*
X106430031Y-110090814D01*
X106398924Y-109964950D01*
X106374674Y-109834964D01*
X106358538Y-109713784D01*
X106356564Y-109689837D01*
X106355000Y-109658829D01*
X106353841Y-109622156D01*
X106353078Y-109581215D01*
X106352705Y-109537399D01*
X106352716Y-109492106D01*
X106352814Y-109480580D01*
X107824890Y-109480580D01*
X107826210Y-109550253D01*
X107834434Y-109619735D01*
X107849649Y-109688511D01*
X107871944Y-109756069D01*
X107901405Y-109821893D01*
X107938121Y-109885472D01*
X107982178Y-109946291D01*
X108033664Y-110003838D01*
X108042721Y-110012828D01*
X108099955Y-110063598D01*
X108160758Y-110107472D01*
X108225546Y-110144628D01*
X108294734Y-110175242D01*
X108368738Y-110199491D01*
X108447973Y-110217551D01*
X108532855Y-110229599D01*
X108558550Y-110231990D01*
X108566015Y-110232258D01*
X108581626Y-110232516D01*
X108605062Y-110232764D01*
X108636001Y-110233002D01*
X108674122Y-110233229D01*
X108719105Y-110233445D01*
X108770628Y-110233648D01*
X108828371Y-110233838D01*
X108892011Y-110234014D01*
X108961228Y-110234176D01*
X109035702Y-110234324D01*
X109115110Y-110234456D01*
X109199132Y-110234572D01*
X109287447Y-110234671D01*
X109379734Y-110234753D01*
X109475671Y-110234817D01*
X109574938Y-110234863D01*
X109677214Y-110234889D01*
X109782177Y-110234896D01*
X109889506Y-110234882D01*
X109998881Y-110234847D01*
X110027516Y-110234835D01*
X110158597Y-110234772D01*
X110281483Y-110234708D01*
X110396449Y-110234641D01*
X110503767Y-110234570D01*
X110603710Y-110234493D01*
X110696552Y-110234409D01*
X110782564Y-110234316D01*
X110862021Y-110234213D01*
X110935195Y-110234099D01*
X111002358Y-110233971D01*
X111063785Y-110233830D01*
X111119748Y-110233672D01*
X111170520Y-110233497D01*
X111216374Y-110233303D01*
X111257582Y-110233089D01*
X111294419Y-110232853D01*
X111327156Y-110232594D01*
X111356068Y-110232311D01*
X111381426Y-110232001D01*
X111403503Y-110231664D01*
X111422574Y-110231298D01*
X111438910Y-110230902D01*
X111452785Y-110230473D01*
X111464471Y-110230012D01*
X111474243Y-110229516D01*
X111482371Y-110228983D01*
X111489130Y-110228413D01*
X111494793Y-110227804D01*
X111499632Y-110227154D01*
X111500606Y-110227007D01*
X111555451Y-110217678D01*
X111603781Y-110207443D01*
X111647541Y-110195730D01*
X111688678Y-110181966D01*
X111729135Y-110165580D01*
X111763183Y-110149778D01*
X111834570Y-110110644D01*
X111899556Y-110065970D01*
X111958148Y-110015747D01*
X112010356Y-109959969D01*
X112056188Y-109898626D01*
X112095652Y-109831711D01*
X112101809Y-109819617D01*
X112133813Y-109746561D01*
X112157376Y-109672870D01*
X112172502Y-109598494D01*
X112179197Y-109523383D01*
X112177464Y-109447488D01*
X112167311Y-109370760D01*
X112152808Y-109307570D01*
X112128861Y-109235457D01*
X112097509Y-109166954D01*
X112059191Y-109102475D01*
X112014341Y-109042438D01*
X111963398Y-108987256D01*
X111906799Y-108937347D01*
X111844980Y-108893124D01*
X111778378Y-108855004D01*
X111707429Y-108823403D01*
X111632572Y-108798735D01*
X111612232Y-108793437D01*
X111575422Y-108785088D01*
X111538625Y-108778326D01*
X111500049Y-108772928D01*
X111457900Y-108768669D01*
X111410386Y-108765325D01*
X111371792Y-108763356D01*
X111358776Y-108762969D01*
X111337724Y-108762602D01*
X111309046Y-108762255D01*
X111273154Y-108761927D01*
X111230459Y-108761619D01*
X111181374Y-108761330D01*
X111126308Y-108761060D01*
X111065674Y-108760810D01*
X110999883Y-108760579D01*
X110929346Y-108760368D01*
X110854475Y-108760176D01*
X110775681Y-108760003D01*
X110693375Y-108759850D01*
X110607969Y-108759716D01*
X110519875Y-108759602D01*
X110429503Y-108759507D01*
X110337265Y-108759431D01*
X110243573Y-108759374D01*
X110148837Y-108759337D01*
X110053469Y-108759319D01*
X109957881Y-108759321D01*
X109862484Y-108759341D01*
X109767689Y-108759381D01*
X109673908Y-108759440D01*
X109581552Y-108759519D01*
X109491032Y-108759616D01*
X109402760Y-108759733D01*
X109317147Y-108759869D01*
X109234605Y-108760024D01*
X109155545Y-108760199D01*
X109080378Y-108760392D01*
X109009516Y-108760605D01*
X108943370Y-108760837D01*
X108882352Y-108761088D01*
X108826872Y-108761358D01*
X108777343Y-108761647D01*
X108734176Y-108761956D01*
X108697781Y-108762283D01*
X108668571Y-108762630D01*
X108646956Y-108762996D01*
X108633349Y-108763380D01*
X108632300Y-108763427D01*
X108564439Y-108767571D01*
X108503633Y-108773473D01*
X108448605Y-108781410D01*
X108398072Y-108791661D01*
X108350756Y-108804502D01*
X108305376Y-108820213D01*
X108260652Y-108839070D01*
X108241050Y-108848339D01*
X108172194Y-108886237D01*
X108109280Y-108929592D01*
X108052396Y-108977889D01*
X108001629Y-109030615D01*
X107957067Y-109087256D01*
X107918797Y-109147300D01*
X107886906Y-109210232D01*
X107861483Y-109275540D01*
X107842614Y-109342709D01*
X107830388Y-109411227D01*
X107824890Y-109480580D01*
X106352814Y-109480580D01*
X106353103Y-109446731D01*
X106353860Y-109402670D01*
X106354980Y-109361318D01*
X106356456Y-109324071D01*
X106358281Y-109292325D01*
X106360448Y-109267475D01*
X106360728Y-109265050D01*
X106381217Y-109126037D01*
X106409094Y-108991104D01*
X106444415Y-108860098D01*
X106487237Y-108732868D01*
X106537615Y-108609258D01*
X106595606Y-108489117D01*
X106661266Y-108372291D01*
X106723845Y-108274450D01*
X106802682Y-108165143D01*
X106887459Y-108061530D01*
X106978519Y-107963251D01*
X107076199Y-107869942D01*
X107180840Y-107781241D01*
X107201222Y-107765124D01*
X107227189Y-107745544D01*
X107258678Y-107722963D01*
X107293871Y-107698594D01*
X107330949Y-107673650D01*
X107368090Y-107649344D01*
X107403476Y-107626890D01*
X107435287Y-107607501D01*
X107453400Y-107596995D01*
X107565243Y-107537709D01*
X107678648Y-107485309D01*
X107794244Y-107439621D01*
X107912657Y-107400472D01*
X108034516Y-107367686D01*
X108160448Y-107341089D01*
X108291081Y-107320506D01*
X108427043Y-107305764D01*
X108526800Y-107298767D01*
X108538375Y-107298367D01*
X108558024Y-107297986D01*
X108585356Y-107297624D01*
X108619977Y-107297281D01*
X108661496Y-107296957D01*
X108709520Y-107296652D01*
X108763656Y-107296366D01*
X108823514Y-107296099D01*
X108888699Y-107295851D01*
X108958820Y-107295622D01*
X109033485Y-107295412D01*
X109112301Y-107295220D01*
X109194876Y-107295048D01*
X109280818Y-107294895D01*
X109369734Y-107294761D01*
X109461233Y-107294646D01*
X109554921Y-107294549D01*
X109650406Y-107294472D01*
X109747297Y-107294415D01*
X109845201Y-107294375D01*
X109943725Y-107294355D01*
X110042477Y-107294354D01*
X110141066Y-107294371D01*
G04 #@! TO.C,J71*
D12*
X102952380Y-100809523D02*
X103666666Y-100809523D01*
X103809523Y-100857142D01*
X103904761Y-100952380D01*
X103952380Y-101095238D01*
X103952380Y-101190476D01*
X102952380Y-100428571D02*
X102952380Y-99761904D01*
X103952380Y-100190476D01*
X103952380Y-98857142D02*
X103952380Y-99428571D01*
X103952380Y-99142857D02*
X102952380Y-99142857D01*
X103095238Y-99238095D01*
X103190476Y-99333333D01*
X103238095Y-99428571D01*
G04 #@! TO.C,J70*
X102952380Y-113809523D02*
X103666666Y-113809523D01*
X103809523Y-113857142D01*
X103904761Y-113952380D01*
X103952380Y-114095238D01*
X103952380Y-114190476D01*
X102952380Y-113428571D02*
X102952380Y-112761904D01*
X103952380Y-113190476D01*
X102952380Y-112190476D02*
X102952380Y-112095238D01*
X103000000Y-112000000D01*
X103047619Y-111952380D01*
X103142857Y-111904761D01*
X103333333Y-111857142D01*
X103571428Y-111857142D01*
X103761904Y-111904761D01*
X103857142Y-111952380D01*
X103904761Y-112000000D01*
X103952380Y-112095238D01*
X103952380Y-112190476D01*
X103904761Y-112285714D01*
X103857142Y-112333333D01*
X103761904Y-112380952D01*
X103571428Y-112428571D01*
X103333333Y-112428571D01*
X103142857Y-112380952D01*
X103047619Y-112333333D01*
X103000000Y-112285714D01*
X102952380Y-112190476D01*
G04 #@! TO.C,C00*
X139657142Y-133357142D02*
X139609523Y-133404761D01*
X139466666Y-133452380D01*
X139371428Y-133452380D01*
X139228571Y-133404761D01*
X139133333Y-133309523D01*
X139085714Y-133214285D01*
X139038095Y-133023809D01*
X139038095Y-132880952D01*
X139085714Y-132690476D01*
X139133333Y-132595238D01*
X139228571Y-132500000D01*
X139371428Y-132452380D01*
X139466666Y-132452380D01*
X139609523Y-132500000D01*
X139657142Y-132547619D01*
X140276190Y-132452380D02*
X140371428Y-132452380D01*
X140466666Y-132500000D01*
X140514285Y-132547619D01*
X140561904Y-132642857D01*
X140609523Y-132833333D01*
X140609523Y-133071428D01*
X140561904Y-133261904D01*
X140514285Y-133357142D01*
X140466666Y-133404761D01*
X140371428Y-133452380D01*
X140276190Y-133452380D01*
X140180952Y-133404761D01*
X140133333Y-133357142D01*
X140085714Y-133261904D01*
X140038095Y-133071428D01*
X140038095Y-132833333D01*
X140085714Y-132642857D01*
X140133333Y-132547619D01*
X140180952Y-132500000D01*
X140276190Y-132452380D01*
X141228571Y-132452380D02*
X141323809Y-132452380D01*
X141419047Y-132500000D01*
X141466666Y-132547619D01*
X141514285Y-132642857D01*
X141561904Y-132833333D01*
X141561904Y-133071428D01*
X141514285Y-133261904D01*
X141466666Y-133357142D01*
X141419047Y-133404761D01*
X141323809Y-133452380D01*
X141228571Y-133452380D01*
X141133333Y-133404761D01*
X141085714Y-133357142D01*
X141038095Y-133261904D01*
X140990476Y-133071428D01*
X140990476Y-132833333D01*
X141038095Y-132642857D01*
X141085714Y-132547619D01*
X141133333Y-132500000D01*
X141228571Y-132452380D01*
G04 #@! TO.C,C01*
X136357142Y-124707142D02*
X136309523Y-124754761D01*
X136166666Y-124802380D01*
X136071428Y-124802380D01*
X135928571Y-124754761D01*
X135833333Y-124659523D01*
X135785714Y-124564285D01*
X135738095Y-124373809D01*
X135738095Y-124230952D01*
X135785714Y-124040476D01*
X135833333Y-123945238D01*
X135928571Y-123850000D01*
X136071428Y-123802380D01*
X136166666Y-123802380D01*
X136309523Y-123850000D01*
X136357142Y-123897619D01*
X136976190Y-123802380D02*
X137071428Y-123802380D01*
X137166666Y-123850000D01*
X137214285Y-123897619D01*
X137261904Y-123992857D01*
X137309523Y-124183333D01*
X137309523Y-124421428D01*
X137261904Y-124611904D01*
X137214285Y-124707142D01*
X137166666Y-124754761D01*
X137071428Y-124802380D01*
X136976190Y-124802380D01*
X136880952Y-124754761D01*
X136833333Y-124707142D01*
X136785714Y-124611904D01*
X136738095Y-124421428D01*
X136738095Y-124183333D01*
X136785714Y-123992857D01*
X136833333Y-123897619D01*
X136880952Y-123850000D01*
X136976190Y-123802380D01*
X138261904Y-124802380D02*
X137690476Y-124802380D01*
X137976190Y-124802380D02*
X137976190Y-123802380D01*
X137880952Y-123945238D01*
X137785714Y-124040476D01*
X137690476Y-124088095D01*
G04 #@! TO.C,C10*
X139657142Y-122357142D02*
X139609523Y-122404761D01*
X139466666Y-122452380D01*
X139371428Y-122452380D01*
X139228571Y-122404761D01*
X139133333Y-122309523D01*
X139085714Y-122214285D01*
X139038095Y-122023809D01*
X139038095Y-121880952D01*
X139085714Y-121690476D01*
X139133333Y-121595238D01*
X139228571Y-121500000D01*
X139371428Y-121452380D01*
X139466666Y-121452380D01*
X139609523Y-121500000D01*
X139657142Y-121547619D01*
X140609523Y-122452380D02*
X140038095Y-122452380D01*
X140323809Y-122452380D02*
X140323809Y-121452380D01*
X140228571Y-121595238D01*
X140133333Y-121690476D01*
X140038095Y-121738095D01*
X141228571Y-121452380D02*
X141323809Y-121452380D01*
X141419047Y-121500000D01*
X141466666Y-121547619D01*
X141514285Y-121642857D01*
X141561904Y-121833333D01*
X141561904Y-122071428D01*
X141514285Y-122261904D01*
X141466666Y-122357142D01*
X141419047Y-122404761D01*
X141323809Y-122452380D01*
X141228571Y-122452380D01*
X141133333Y-122404761D01*
X141085714Y-122357142D01*
X141038095Y-122261904D01*
X140990476Y-122071428D01*
X140990476Y-121833333D01*
X141038095Y-121642857D01*
X141085714Y-121547619D01*
X141133333Y-121500000D01*
X141228571Y-121452380D01*
G04 #@! TO.C,C11*
X136357142Y-113707142D02*
X136309523Y-113754761D01*
X136166666Y-113802380D01*
X136071428Y-113802380D01*
X135928571Y-113754761D01*
X135833333Y-113659523D01*
X135785714Y-113564285D01*
X135738095Y-113373809D01*
X135738095Y-113230952D01*
X135785714Y-113040476D01*
X135833333Y-112945238D01*
X135928571Y-112850000D01*
X136071428Y-112802380D01*
X136166666Y-112802380D01*
X136309523Y-112850000D01*
X136357142Y-112897619D01*
X137309523Y-113802380D02*
X136738095Y-113802380D01*
X137023809Y-113802380D02*
X137023809Y-112802380D01*
X136928571Y-112945238D01*
X136833333Y-113040476D01*
X136738095Y-113088095D01*
X138261904Y-113802380D02*
X137690476Y-113802380D01*
X137976190Y-113802380D02*
X137976190Y-112802380D01*
X137880952Y-112945238D01*
X137785714Y-113040476D01*
X137690476Y-113088095D01*
G04 #@! TO.C,C20*
X139757142Y-111457142D02*
X139709523Y-111504761D01*
X139566666Y-111552380D01*
X139471428Y-111552380D01*
X139328571Y-111504761D01*
X139233333Y-111409523D01*
X139185714Y-111314285D01*
X139138095Y-111123809D01*
X139138095Y-110980952D01*
X139185714Y-110790476D01*
X139233333Y-110695238D01*
X139328571Y-110600000D01*
X139471428Y-110552380D01*
X139566666Y-110552380D01*
X139709523Y-110600000D01*
X139757142Y-110647619D01*
X140138095Y-110647619D02*
X140185714Y-110600000D01*
X140280952Y-110552380D01*
X140519047Y-110552380D01*
X140614285Y-110600000D01*
X140661904Y-110647619D01*
X140709523Y-110742857D01*
X140709523Y-110838095D01*
X140661904Y-110980952D01*
X140090476Y-111552380D01*
X140709523Y-111552380D01*
X141328571Y-110552380D02*
X141423809Y-110552380D01*
X141519047Y-110600000D01*
X141566666Y-110647619D01*
X141614285Y-110742857D01*
X141661904Y-110933333D01*
X141661904Y-111171428D01*
X141614285Y-111361904D01*
X141566666Y-111457142D01*
X141519047Y-111504761D01*
X141423809Y-111552380D01*
X141328571Y-111552380D01*
X141233333Y-111504761D01*
X141185714Y-111457142D01*
X141138095Y-111361904D01*
X141090476Y-111171428D01*
X141090476Y-110933333D01*
X141138095Y-110742857D01*
X141185714Y-110647619D01*
X141233333Y-110600000D01*
X141328571Y-110552380D01*
G04 #@! TO.C,C21*
X136357142Y-102707142D02*
X136309523Y-102754761D01*
X136166666Y-102802380D01*
X136071428Y-102802380D01*
X135928571Y-102754761D01*
X135833333Y-102659523D01*
X135785714Y-102564285D01*
X135738095Y-102373809D01*
X135738095Y-102230952D01*
X135785714Y-102040476D01*
X135833333Y-101945238D01*
X135928571Y-101850000D01*
X136071428Y-101802380D01*
X136166666Y-101802380D01*
X136309523Y-101850000D01*
X136357142Y-101897619D01*
X136738095Y-101897619D02*
X136785714Y-101850000D01*
X136880952Y-101802380D01*
X137119047Y-101802380D01*
X137214285Y-101850000D01*
X137261904Y-101897619D01*
X137309523Y-101992857D01*
X137309523Y-102088095D01*
X137261904Y-102230952D01*
X136690476Y-102802380D01*
X137309523Y-102802380D01*
X138261904Y-102802380D02*
X137690476Y-102802380D01*
X137976190Y-102802380D02*
X137976190Y-101802380D01*
X137880952Y-101945238D01*
X137785714Y-102040476D01*
X137690476Y-102088095D01*
G04 #@! TO.C,C30*
X139757142Y-100357142D02*
X139709523Y-100404761D01*
X139566666Y-100452380D01*
X139471428Y-100452380D01*
X139328571Y-100404761D01*
X139233333Y-100309523D01*
X139185714Y-100214285D01*
X139138095Y-100023809D01*
X139138095Y-99880952D01*
X139185714Y-99690476D01*
X139233333Y-99595238D01*
X139328571Y-99500000D01*
X139471428Y-99452380D01*
X139566666Y-99452380D01*
X139709523Y-99500000D01*
X139757142Y-99547619D01*
X140090476Y-99452380D02*
X140709523Y-99452380D01*
X140376190Y-99833333D01*
X140519047Y-99833333D01*
X140614285Y-99880952D01*
X140661904Y-99928571D01*
X140709523Y-100023809D01*
X140709523Y-100261904D01*
X140661904Y-100357142D01*
X140614285Y-100404761D01*
X140519047Y-100452380D01*
X140233333Y-100452380D01*
X140138095Y-100404761D01*
X140090476Y-100357142D01*
X141328571Y-99452380D02*
X141423809Y-99452380D01*
X141519047Y-99500000D01*
X141566666Y-99547619D01*
X141614285Y-99642857D01*
X141661904Y-99833333D01*
X141661904Y-100071428D01*
X141614285Y-100261904D01*
X141566666Y-100357142D01*
X141519047Y-100404761D01*
X141423809Y-100452380D01*
X141328571Y-100452380D01*
X141233333Y-100404761D01*
X141185714Y-100357142D01*
X141138095Y-100261904D01*
X141090476Y-100071428D01*
X141090476Y-99833333D01*
X141138095Y-99642857D01*
X141185714Y-99547619D01*
X141233333Y-99500000D01*
X141328571Y-99452380D01*
G04 #@! TO.C,C31*
X136357142Y-91707142D02*
X136309523Y-91754761D01*
X136166666Y-91802380D01*
X136071428Y-91802380D01*
X135928571Y-91754761D01*
X135833333Y-91659523D01*
X135785714Y-91564285D01*
X135738095Y-91373809D01*
X135738095Y-91230952D01*
X135785714Y-91040476D01*
X135833333Y-90945238D01*
X135928571Y-90850000D01*
X136071428Y-90802380D01*
X136166666Y-90802380D01*
X136309523Y-90850000D01*
X136357142Y-90897619D01*
X136690476Y-90802380D02*
X137309523Y-90802380D01*
X136976190Y-91183333D01*
X137119047Y-91183333D01*
X137214285Y-91230952D01*
X137261904Y-91278571D01*
X137309523Y-91373809D01*
X137309523Y-91611904D01*
X137261904Y-91707142D01*
X137214285Y-91754761D01*
X137119047Y-91802380D01*
X136833333Y-91802380D01*
X136738095Y-91754761D01*
X136690476Y-91707142D01*
X138261904Y-91802380D02*
X137690476Y-91802380D01*
X137976190Y-91802380D02*
X137976190Y-90802380D01*
X137880952Y-90945238D01*
X137785714Y-91040476D01*
X137690476Y-91088095D01*
G04 #@! TO.C,C60*
X106357142Y-128842857D02*
X106404761Y-128890476D01*
X106452380Y-129033333D01*
X106452380Y-129128571D01*
X106404761Y-129271428D01*
X106309523Y-129366666D01*
X106214285Y-129414285D01*
X106023809Y-129461904D01*
X105880952Y-129461904D01*
X105690476Y-129414285D01*
X105595238Y-129366666D01*
X105500000Y-129271428D01*
X105452380Y-129128571D01*
X105452380Y-129033333D01*
X105500000Y-128890476D01*
X105547619Y-128842857D01*
X105452380Y-127985714D02*
X105452380Y-128176190D01*
X105500000Y-128271428D01*
X105547619Y-128319047D01*
X105690476Y-128414285D01*
X105880952Y-128461904D01*
X106261904Y-128461904D01*
X106357142Y-128414285D01*
X106404761Y-128366666D01*
X106452380Y-128271428D01*
X106452380Y-128080952D01*
X106404761Y-127985714D01*
X106357142Y-127938095D01*
X106261904Y-127890476D01*
X106023809Y-127890476D01*
X105928571Y-127938095D01*
X105880952Y-127985714D01*
X105833333Y-128080952D01*
X105833333Y-128271428D01*
X105880952Y-128366666D01*
X105928571Y-128414285D01*
X106023809Y-128461904D01*
X105452380Y-127271428D02*
X105452380Y-127176190D01*
X105500000Y-127080952D01*
X105547619Y-127033333D01*
X105642857Y-126985714D01*
X105833333Y-126938095D01*
X106071428Y-126938095D01*
X106261904Y-126985714D01*
X106357142Y-127033333D01*
X106404761Y-127080952D01*
X106452380Y-127176190D01*
X106452380Y-127271428D01*
X106404761Y-127366666D01*
X106357142Y-127414285D01*
X106261904Y-127461904D01*
X106071428Y-127509523D01*
X105833333Y-127509523D01*
X105642857Y-127461904D01*
X105547619Y-127414285D01*
X105500000Y-127366666D01*
X105452380Y-127271428D01*
G04 #@! TO.C,C61*
X103357142Y-128842857D02*
X103404761Y-128890476D01*
X103452380Y-129033333D01*
X103452380Y-129128571D01*
X103404761Y-129271428D01*
X103309523Y-129366666D01*
X103214285Y-129414285D01*
X103023809Y-129461904D01*
X102880952Y-129461904D01*
X102690476Y-129414285D01*
X102595238Y-129366666D01*
X102500000Y-129271428D01*
X102452380Y-129128571D01*
X102452380Y-129033333D01*
X102500000Y-128890476D01*
X102547619Y-128842857D01*
X102452380Y-127985714D02*
X102452380Y-128176190D01*
X102500000Y-128271428D01*
X102547619Y-128319047D01*
X102690476Y-128414285D01*
X102880952Y-128461904D01*
X103261904Y-128461904D01*
X103357142Y-128414285D01*
X103404761Y-128366666D01*
X103452380Y-128271428D01*
X103452380Y-128080952D01*
X103404761Y-127985714D01*
X103357142Y-127938095D01*
X103261904Y-127890476D01*
X103023809Y-127890476D01*
X102928571Y-127938095D01*
X102880952Y-127985714D01*
X102833333Y-128080952D01*
X102833333Y-128271428D01*
X102880952Y-128366666D01*
X102928571Y-128414285D01*
X103023809Y-128461904D01*
X103452380Y-126938095D02*
X103452380Y-127509523D01*
X103452380Y-127223809D02*
X102452380Y-127223809D01*
X102595238Y-127319047D01*
X102690476Y-127414285D01*
X102738095Y-127509523D01*
G04 #@! TO.C,C62*
X100657142Y-128842857D02*
X100704761Y-128890476D01*
X100752380Y-129033333D01*
X100752380Y-129128571D01*
X100704761Y-129271428D01*
X100609523Y-129366666D01*
X100514285Y-129414285D01*
X100323809Y-129461904D01*
X100180952Y-129461904D01*
X99990476Y-129414285D01*
X99895238Y-129366666D01*
X99800000Y-129271428D01*
X99752380Y-129128571D01*
X99752380Y-129033333D01*
X99800000Y-128890476D01*
X99847619Y-128842857D01*
X99752380Y-127985714D02*
X99752380Y-128176190D01*
X99800000Y-128271428D01*
X99847619Y-128319047D01*
X99990476Y-128414285D01*
X100180952Y-128461904D01*
X100561904Y-128461904D01*
X100657142Y-128414285D01*
X100704761Y-128366666D01*
X100752380Y-128271428D01*
X100752380Y-128080952D01*
X100704761Y-127985714D01*
X100657142Y-127938095D01*
X100561904Y-127890476D01*
X100323809Y-127890476D01*
X100228571Y-127938095D01*
X100180952Y-127985714D01*
X100133333Y-128080952D01*
X100133333Y-128271428D01*
X100180952Y-128366666D01*
X100228571Y-128414285D01*
X100323809Y-128461904D01*
X99847619Y-127509523D02*
X99800000Y-127461904D01*
X99752380Y-127366666D01*
X99752380Y-127128571D01*
X99800000Y-127033333D01*
X99847619Y-126985714D01*
X99942857Y-126938095D01*
X100038095Y-126938095D01*
X100180952Y-126985714D01*
X100752380Y-127557142D01*
X100752380Y-126938095D01*
G04 #@! TO.C,J00*
X141752380Y-132209523D02*
X142466666Y-132209523D01*
X142609523Y-132257142D01*
X142704761Y-132352380D01*
X142752380Y-132495238D01*
X142752380Y-132590476D01*
X141752380Y-131542857D02*
X141752380Y-131447619D01*
X141800000Y-131352380D01*
X141847619Y-131304761D01*
X141942857Y-131257142D01*
X142133333Y-131209523D01*
X142371428Y-131209523D01*
X142561904Y-131257142D01*
X142657142Y-131304761D01*
X142704761Y-131352380D01*
X142752380Y-131447619D01*
X142752380Y-131542857D01*
X142704761Y-131638095D01*
X142657142Y-131685714D01*
X142561904Y-131733333D01*
X142371428Y-131780952D01*
X142133333Y-131780952D01*
X141942857Y-131733333D01*
X141847619Y-131685714D01*
X141800000Y-131638095D01*
X141752380Y-131542857D01*
X141752380Y-130590476D02*
X141752380Y-130495238D01*
X141800000Y-130400000D01*
X141847619Y-130352380D01*
X141942857Y-130304761D01*
X142133333Y-130257142D01*
X142371428Y-130257142D01*
X142561904Y-130304761D01*
X142657142Y-130352380D01*
X142704761Y-130400000D01*
X142752380Y-130495238D01*
X142752380Y-130590476D01*
X142704761Y-130685714D01*
X142657142Y-130733333D01*
X142561904Y-130780952D01*
X142371428Y-130828571D01*
X142133333Y-130828571D01*
X141942857Y-130780952D01*
X141847619Y-130733333D01*
X141800000Y-130685714D01*
X141752380Y-130590476D01*
G04 #@! TO.C,J10*
X141752380Y-121209523D02*
X142466666Y-121209523D01*
X142609523Y-121257142D01*
X142704761Y-121352380D01*
X142752380Y-121495238D01*
X142752380Y-121590476D01*
X142752380Y-120209523D02*
X142752380Y-120780952D01*
X142752380Y-120495238D02*
X141752380Y-120495238D01*
X141895238Y-120590476D01*
X141990476Y-120685714D01*
X142038095Y-120780952D01*
X141752380Y-119590476D02*
X141752380Y-119495238D01*
X141800000Y-119400000D01*
X141847619Y-119352380D01*
X141942857Y-119304761D01*
X142133333Y-119257142D01*
X142371428Y-119257142D01*
X142561904Y-119304761D01*
X142657142Y-119352380D01*
X142704761Y-119400000D01*
X142752380Y-119495238D01*
X142752380Y-119590476D01*
X142704761Y-119685714D01*
X142657142Y-119733333D01*
X142561904Y-119780952D01*
X142371428Y-119828571D01*
X142133333Y-119828571D01*
X141942857Y-119780952D01*
X141847619Y-119733333D01*
X141800000Y-119685714D01*
X141752380Y-119590476D01*
G04 #@! TO.C,J20*
X141752380Y-110209523D02*
X142466666Y-110209523D01*
X142609523Y-110257142D01*
X142704761Y-110352380D01*
X142752380Y-110495238D01*
X142752380Y-110590476D01*
X141847619Y-109780952D02*
X141800000Y-109733333D01*
X141752380Y-109638095D01*
X141752380Y-109400000D01*
X141800000Y-109304761D01*
X141847619Y-109257142D01*
X141942857Y-109209523D01*
X142038095Y-109209523D01*
X142180952Y-109257142D01*
X142752380Y-109828571D01*
X142752380Y-109209523D01*
X141752380Y-108590476D02*
X141752380Y-108495238D01*
X141800000Y-108400000D01*
X141847619Y-108352380D01*
X141942857Y-108304761D01*
X142133333Y-108257142D01*
X142371428Y-108257142D01*
X142561904Y-108304761D01*
X142657142Y-108352380D01*
X142704761Y-108400000D01*
X142752380Y-108495238D01*
X142752380Y-108590476D01*
X142704761Y-108685714D01*
X142657142Y-108733333D01*
X142561904Y-108780952D01*
X142371428Y-108828571D01*
X142133333Y-108828571D01*
X141942857Y-108780952D01*
X141847619Y-108733333D01*
X141800000Y-108685714D01*
X141752380Y-108590476D01*
G04 #@! TO.C,J30*
X141752380Y-99209523D02*
X142466666Y-99209523D01*
X142609523Y-99257142D01*
X142704761Y-99352380D01*
X142752380Y-99495238D01*
X142752380Y-99590476D01*
X141752380Y-98828571D02*
X141752380Y-98209523D01*
X142133333Y-98542857D01*
X142133333Y-98400000D01*
X142180952Y-98304761D01*
X142228571Y-98257142D01*
X142323809Y-98209523D01*
X142561904Y-98209523D01*
X142657142Y-98257142D01*
X142704761Y-98304761D01*
X142752380Y-98400000D01*
X142752380Y-98685714D01*
X142704761Y-98780952D01*
X142657142Y-98828571D01*
X141752380Y-97590476D02*
X141752380Y-97495238D01*
X141800000Y-97400000D01*
X141847619Y-97352380D01*
X141942857Y-97304761D01*
X142133333Y-97257142D01*
X142371428Y-97257142D01*
X142561904Y-97304761D01*
X142657142Y-97352380D01*
X142704761Y-97400000D01*
X142752380Y-97495238D01*
X142752380Y-97590476D01*
X142704761Y-97685714D01*
X142657142Y-97733333D01*
X142561904Y-97780952D01*
X142371428Y-97828571D01*
X142133333Y-97828571D01*
X141942857Y-97780952D01*
X141847619Y-97733333D01*
X141800000Y-97685714D01*
X141752380Y-97590476D01*
G04 #@! TO.C,J60*
X96252380Y-137409523D02*
X96966666Y-137409523D01*
X97109523Y-137457142D01*
X97204761Y-137552380D01*
X97252380Y-137695238D01*
X97252380Y-137790476D01*
X96252380Y-136504761D02*
X96252380Y-136695238D01*
X96300000Y-136790476D01*
X96347619Y-136838095D01*
X96490476Y-136933333D01*
X96680952Y-136980952D01*
X97061904Y-136980952D01*
X97157142Y-136933333D01*
X97204761Y-136885714D01*
X97252380Y-136790476D01*
X97252380Y-136600000D01*
X97204761Y-136504761D01*
X97157142Y-136457142D01*
X97061904Y-136409523D01*
X96823809Y-136409523D01*
X96728571Y-136457142D01*
X96680952Y-136504761D01*
X96633333Y-136600000D01*
X96633333Y-136790476D01*
X96680952Y-136885714D01*
X96728571Y-136933333D01*
X96823809Y-136980952D01*
X96252380Y-135790476D02*
X96252380Y-135695238D01*
X96300000Y-135600000D01*
X96347619Y-135552380D01*
X96442857Y-135504761D01*
X96633333Y-135457142D01*
X96871428Y-135457142D01*
X97061904Y-135504761D01*
X97157142Y-135552380D01*
X97204761Y-135600000D01*
X97252380Y-135695238D01*
X97252380Y-135790476D01*
X97204761Y-135885714D01*
X97157142Y-135933333D01*
X97061904Y-135980952D01*
X96871428Y-136028571D01*
X96633333Y-136028571D01*
X96442857Y-135980952D01*
X96347619Y-135933333D01*
X96300000Y-135885714D01*
X96252380Y-135790476D01*
G04 #@! TO.C,J61*
X100752380Y-118009523D02*
X101466666Y-118009523D01*
X101609523Y-118057142D01*
X101704761Y-118152380D01*
X101752380Y-118295238D01*
X101752380Y-118390476D01*
X100752380Y-117104761D02*
X100752380Y-117295238D01*
X100800000Y-117390476D01*
X100847619Y-117438095D01*
X100990476Y-117533333D01*
X101180952Y-117580952D01*
X101561904Y-117580952D01*
X101657142Y-117533333D01*
X101704761Y-117485714D01*
X101752380Y-117390476D01*
X101752380Y-117200000D01*
X101704761Y-117104761D01*
X101657142Y-117057142D01*
X101561904Y-117009523D01*
X101323809Y-117009523D01*
X101228571Y-117057142D01*
X101180952Y-117104761D01*
X101133333Y-117200000D01*
X101133333Y-117390476D01*
X101180952Y-117485714D01*
X101228571Y-117533333D01*
X101323809Y-117580952D01*
X101752380Y-116057142D02*
X101752380Y-116628571D01*
X101752380Y-116342857D02*
X100752380Y-116342857D01*
X100895238Y-116438095D01*
X100990476Y-116533333D01*
X101038095Y-116628571D01*
G04 #@! TO.C,R00*
X130357142Y-134852380D02*
X130023809Y-134376190D01*
X129785714Y-134852380D02*
X129785714Y-133852380D01*
X130166666Y-133852380D01*
X130261904Y-133900000D01*
X130309523Y-133947619D01*
X130357142Y-134042857D01*
X130357142Y-134185714D01*
X130309523Y-134280952D01*
X130261904Y-134328571D01*
X130166666Y-134376190D01*
X129785714Y-134376190D01*
X130976190Y-133852380D02*
X131071428Y-133852380D01*
X131166666Y-133900000D01*
X131214285Y-133947619D01*
X131261904Y-134042857D01*
X131309523Y-134233333D01*
X131309523Y-134471428D01*
X131261904Y-134661904D01*
X131214285Y-134757142D01*
X131166666Y-134804761D01*
X131071428Y-134852380D01*
X130976190Y-134852380D01*
X130880952Y-134804761D01*
X130833333Y-134757142D01*
X130785714Y-134661904D01*
X130738095Y-134471428D01*
X130738095Y-134233333D01*
X130785714Y-134042857D01*
X130833333Y-133947619D01*
X130880952Y-133900000D01*
X130976190Y-133852380D01*
X131928571Y-133852380D02*
X132023809Y-133852380D01*
X132119047Y-133900000D01*
X132166666Y-133947619D01*
X132214285Y-134042857D01*
X132261904Y-134233333D01*
X132261904Y-134471428D01*
X132214285Y-134661904D01*
X132166666Y-134757142D01*
X132119047Y-134804761D01*
X132023809Y-134852380D01*
X131928571Y-134852380D01*
X131833333Y-134804761D01*
X131785714Y-134757142D01*
X131738095Y-134661904D01*
X131690476Y-134471428D01*
X131690476Y-134233333D01*
X131738095Y-134042857D01*
X131785714Y-133947619D01*
X131833333Y-133900000D01*
X131928571Y-133852380D01*
G04 #@! TO.C,R01*
X130357142Y-125302380D02*
X130023809Y-124826190D01*
X129785714Y-125302380D02*
X129785714Y-124302380D01*
X130166666Y-124302380D01*
X130261904Y-124350000D01*
X130309523Y-124397619D01*
X130357142Y-124492857D01*
X130357142Y-124635714D01*
X130309523Y-124730952D01*
X130261904Y-124778571D01*
X130166666Y-124826190D01*
X129785714Y-124826190D01*
X130976190Y-124302380D02*
X131071428Y-124302380D01*
X131166666Y-124350000D01*
X131214285Y-124397619D01*
X131261904Y-124492857D01*
X131309523Y-124683333D01*
X131309523Y-124921428D01*
X131261904Y-125111904D01*
X131214285Y-125207142D01*
X131166666Y-125254761D01*
X131071428Y-125302380D01*
X130976190Y-125302380D01*
X130880952Y-125254761D01*
X130833333Y-125207142D01*
X130785714Y-125111904D01*
X130738095Y-124921428D01*
X130738095Y-124683333D01*
X130785714Y-124492857D01*
X130833333Y-124397619D01*
X130880952Y-124350000D01*
X130976190Y-124302380D01*
X132261904Y-125302380D02*
X131690476Y-125302380D01*
X131976190Y-125302380D02*
X131976190Y-124302380D01*
X131880952Y-124445238D01*
X131785714Y-124540476D01*
X131690476Y-124588095D01*
G04 #@! TO.C,R02*
X128852380Y-130142857D02*
X128376190Y-130476190D01*
X128852380Y-130714285D02*
X127852380Y-130714285D01*
X127852380Y-130333333D01*
X127900000Y-130238095D01*
X127947619Y-130190476D01*
X128042857Y-130142857D01*
X128185714Y-130142857D01*
X128280952Y-130190476D01*
X128328571Y-130238095D01*
X128376190Y-130333333D01*
X128376190Y-130714285D01*
X127852380Y-129523809D02*
X127852380Y-129428571D01*
X127900000Y-129333333D01*
X127947619Y-129285714D01*
X128042857Y-129238095D01*
X128233333Y-129190476D01*
X128471428Y-129190476D01*
X128661904Y-129238095D01*
X128757142Y-129285714D01*
X128804761Y-129333333D01*
X128852380Y-129428571D01*
X128852380Y-129523809D01*
X128804761Y-129619047D01*
X128757142Y-129666666D01*
X128661904Y-129714285D01*
X128471428Y-129761904D01*
X128233333Y-129761904D01*
X128042857Y-129714285D01*
X127947619Y-129666666D01*
X127900000Y-129619047D01*
X127852380Y-129523809D01*
X127947619Y-128809523D02*
X127900000Y-128761904D01*
X127852380Y-128666666D01*
X127852380Y-128428571D01*
X127900000Y-128333333D01*
X127947619Y-128285714D01*
X128042857Y-128238095D01*
X128138095Y-128238095D01*
X128280952Y-128285714D01*
X128852380Y-128857142D01*
X128852380Y-128238095D01*
G04 #@! TO.C,R10*
X130357142Y-123752380D02*
X130023809Y-123276190D01*
X129785714Y-123752380D02*
X129785714Y-122752380D01*
X130166666Y-122752380D01*
X130261904Y-122800000D01*
X130309523Y-122847619D01*
X130357142Y-122942857D01*
X130357142Y-123085714D01*
X130309523Y-123180952D01*
X130261904Y-123228571D01*
X130166666Y-123276190D01*
X129785714Y-123276190D01*
X131309523Y-123752380D02*
X130738095Y-123752380D01*
X131023809Y-123752380D02*
X131023809Y-122752380D01*
X130928571Y-122895238D01*
X130833333Y-122990476D01*
X130738095Y-123038095D01*
X131928571Y-122752380D02*
X132023809Y-122752380D01*
X132119047Y-122800000D01*
X132166666Y-122847619D01*
X132214285Y-122942857D01*
X132261904Y-123133333D01*
X132261904Y-123371428D01*
X132214285Y-123561904D01*
X132166666Y-123657142D01*
X132119047Y-123704761D01*
X132023809Y-123752380D01*
X131928571Y-123752380D01*
X131833333Y-123704761D01*
X131785714Y-123657142D01*
X131738095Y-123561904D01*
X131690476Y-123371428D01*
X131690476Y-123133333D01*
X131738095Y-122942857D01*
X131785714Y-122847619D01*
X131833333Y-122800000D01*
X131928571Y-122752380D01*
G04 #@! TO.C,R11*
X130357142Y-114302380D02*
X130023809Y-113826190D01*
X129785714Y-114302380D02*
X129785714Y-113302380D01*
X130166666Y-113302380D01*
X130261904Y-113350000D01*
X130309523Y-113397619D01*
X130357142Y-113492857D01*
X130357142Y-113635714D01*
X130309523Y-113730952D01*
X130261904Y-113778571D01*
X130166666Y-113826190D01*
X129785714Y-113826190D01*
X131309523Y-114302380D02*
X130738095Y-114302380D01*
X131023809Y-114302380D02*
X131023809Y-113302380D01*
X130928571Y-113445238D01*
X130833333Y-113540476D01*
X130738095Y-113588095D01*
X132261904Y-114302380D02*
X131690476Y-114302380D01*
X131976190Y-114302380D02*
X131976190Y-113302380D01*
X131880952Y-113445238D01*
X131785714Y-113540476D01*
X131690476Y-113588095D01*
G04 #@! TO.C,R12*
X128852380Y-119142857D02*
X128376190Y-119476190D01*
X128852380Y-119714285D02*
X127852380Y-119714285D01*
X127852380Y-119333333D01*
X127900000Y-119238095D01*
X127947619Y-119190476D01*
X128042857Y-119142857D01*
X128185714Y-119142857D01*
X128280952Y-119190476D01*
X128328571Y-119238095D01*
X128376190Y-119333333D01*
X128376190Y-119714285D01*
X128852380Y-118190476D02*
X128852380Y-118761904D01*
X128852380Y-118476190D02*
X127852380Y-118476190D01*
X127995238Y-118571428D01*
X128090476Y-118666666D01*
X128138095Y-118761904D01*
X127947619Y-117809523D02*
X127900000Y-117761904D01*
X127852380Y-117666666D01*
X127852380Y-117428571D01*
X127900000Y-117333333D01*
X127947619Y-117285714D01*
X128042857Y-117238095D01*
X128138095Y-117238095D01*
X128280952Y-117285714D01*
X128852380Y-117857142D01*
X128852380Y-117238095D01*
G04 #@! TO.C,R20*
X130357142Y-112752380D02*
X130023809Y-112276190D01*
X129785714Y-112752380D02*
X129785714Y-111752380D01*
X130166666Y-111752380D01*
X130261904Y-111800000D01*
X130309523Y-111847619D01*
X130357142Y-111942857D01*
X130357142Y-112085714D01*
X130309523Y-112180952D01*
X130261904Y-112228571D01*
X130166666Y-112276190D01*
X129785714Y-112276190D01*
X130738095Y-111847619D02*
X130785714Y-111800000D01*
X130880952Y-111752380D01*
X131119047Y-111752380D01*
X131214285Y-111800000D01*
X131261904Y-111847619D01*
X131309523Y-111942857D01*
X131309523Y-112038095D01*
X131261904Y-112180952D01*
X130690476Y-112752380D01*
X131309523Y-112752380D01*
X131928571Y-111752380D02*
X132023809Y-111752380D01*
X132119047Y-111800000D01*
X132166666Y-111847619D01*
X132214285Y-111942857D01*
X132261904Y-112133333D01*
X132261904Y-112371428D01*
X132214285Y-112561904D01*
X132166666Y-112657142D01*
X132119047Y-112704761D01*
X132023809Y-112752380D01*
X131928571Y-112752380D01*
X131833333Y-112704761D01*
X131785714Y-112657142D01*
X131738095Y-112561904D01*
X131690476Y-112371428D01*
X131690476Y-112133333D01*
X131738095Y-111942857D01*
X131785714Y-111847619D01*
X131833333Y-111800000D01*
X131928571Y-111752380D01*
G04 #@! TO.C,R21*
X130357142Y-103302380D02*
X130023809Y-102826190D01*
X129785714Y-103302380D02*
X129785714Y-102302380D01*
X130166666Y-102302380D01*
X130261904Y-102350000D01*
X130309523Y-102397619D01*
X130357142Y-102492857D01*
X130357142Y-102635714D01*
X130309523Y-102730952D01*
X130261904Y-102778571D01*
X130166666Y-102826190D01*
X129785714Y-102826190D01*
X130738095Y-102397619D02*
X130785714Y-102350000D01*
X130880952Y-102302380D01*
X131119047Y-102302380D01*
X131214285Y-102350000D01*
X131261904Y-102397619D01*
X131309523Y-102492857D01*
X131309523Y-102588095D01*
X131261904Y-102730952D01*
X130690476Y-103302380D01*
X131309523Y-103302380D01*
X132261904Y-103302380D02*
X131690476Y-103302380D01*
X131976190Y-103302380D02*
X131976190Y-102302380D01*
X131880952Y-102445238D01*
X131785714Y-102540476D01*
X131690476Y-102588095D01*
G04 #@! TO.C,R22*
X128752380Y-108142857D02*
X128276190Y-108476190D01*
X128752380Y-108714285D02*
X127752380Y-108714285D01*
X127752380Y-108333333D01*
X127800000Y-108238095D01*
X127847619Y-108190476D01*
X127942857Y-108142857D01*
X128085714Y-108142857D01*
X128180952Y-108190476D01*
X128228571Y-108238095D01*
X128276190Y-108333333D01*
X128276190Y-108714285D01*
X127847619Y-107761904D02*
X127800000Y-107714285D01*
X127752380Y-107619047D01*
X127752380Y-107380952D01*
X127800000Y-107285714D01*
X127847619Y-107238095D01*
X127942857Y-107190476D01*
X128038095Y-107190476D01*
X128180952Y-107238095D01*
X128752380Y-107809523D01*
X128752380Y-107190476D01*
X127847619Y-106809523D02*
X127800000Y-106761904D01*
X127752380Y-106666666D01*
X127752380Y-106428571D01*
X127800000Y-106333333D01*
X127847619Y-106285714D01*
X127942857Y-106238095D01*
X128038095Y-106238095D01*
X128180952Y-106285714D01*
X128752380Y-106857142D01*
X128752380Y-106238095D01*
G04 #@! TO.C,R30*
X130357142Y-101652380D02*
X130023809Y-101176190D01*
X129785714Y-101652380D02*
X129785714Y-100652380D01*
X130166666Y-100652380D01*
X130261904Y-100700000D01*
X130309523Y-100747619D01*
X130357142Y-100842857D01*
X130357142Y-100985714D01*
X130309523Y-101080952D01*
X130261904Y-101128571D01*
X130166666Y-101176190D01*
X129785714Y-101176190D01*
X130690476Y-100652380D02*
X131309523Y-100652380D01*
X130976190Y-101033333D01*
X131119047Y-101033333D01*
X131214285Y-101080952D01*
X131261904Y-101128571D01*
X131309523Y-101223809D01*
X131309523Y-101461904D01*
X131261904Y-101557142D01*
X131214285Y-101604761D01*
X131119047Y-101652380D01*
X130833333Y-101652380D01*
X130738095Y-101604761D01*
X130690476Y-101557142D01*
X131928571Y-100652380D02*
X132023809Y-100652380D01*
X132119047Y-100700000D01*
X132166666Y-100747619D01*
X132214285Y-100842857D01*
X132261904Y-101033333D01*
X132261904Y-101271428D01*
X132214285Y-101461904D01*
X132166666Y-101557142D01*
X132119047Y-101604761D01*
X132023809Y-101652380D01*
X131928571Y-101652380D01*
X131833333Y-101604761D01*
X131785714Y-101557142D01*
X131738095Y-101461904D01*
X131690476Y-101271428D01*
X131690476Y-101033333D01*
X131738095Y-100842857D01*
X131785714Y-100747619D01*
X131833333Y-100700000D01*
X131928571Y-100652380D01*
G04 #@! TO.C,R31*
X130357142Y-92302380D02*
X130023809Y-91826190D01*
X129785714Y-92302380D02*
X129785714Y-91302380D01*
X130166666Y-91302380D01*
X130261904Y-91350000D01*
X130309523Y-91397619D01*
X130357142Y-91492857D01*
X130357142Y-91635714D01*
X130309523Y-91730952D01*
X130261904Y-91778571D01*
X130166666Y-91826190D01*
X129785714Y-91826190D01*
X130690476Y-91302380D02*
X131309523Y-91302380D01*
X130976190Y-91683333D01*
X131119047Y-91683333D01*
X131214285Y-91730952D01*
X131261904Y-91778571D01*
X131309523Y-91873809D01*
X131309523Y-92111904D01*
X131261904Y-92207142D01*
X131214285Y-92254761D01*
X131119047Y-92302380D01*
X130833333Y-92302380D01*
X130738095Y-92254761D01*
X130690476Y-92207142D01*
X132261904Y-92302380D02*
X131690476Y-92302380D01*
X131976190Y-92302380D02*
X131976190Y-91302380D01*
X131880952Y-91445238D01*
X131785714Y-91540476D01*
X131690476Y-91588095D01*
G04 #@! TO.C,R32*
X128752380Y-97142857D02*
X128276190Y-97476190D01*
X128752380Y-97714285D02*
X127752380Y-97714285D01*
X127752380Y-97333333D01*
X127800000Y-97238095D01*
X127847619Y-97190476D01*
X127942857Y-97142857D01*
X128085714Y-97142857D01*
X128180952Y-97190476D01*
X128228571Y-97238095D01*
X128276190Y-97333333D01*
X128276190Y-97714285D01*
X127752380Y-96809523D02*
X127752380Y-96190476D01*
X128133333Y-96523809D01*
X128133333Y-96380952D01*
X128180952Y-96285714D01*
X128228571Y-96238095D01*
X128323809Y-96190476D01*
X128561904Y-96190476D01*
X128657142Y-96238095D01*
X128704761Y-96285714D01*
X128752380Y-96380952D01*
X128752380Y-96666666D01*
X128704761Y-96761904D01*
X128657142Y-96809523D01*
X127847619Y-95809523D02*
X127800000Y-95761904D01*
X127752380Y-95666666D01*
X127752380Y-95428571D01*
X127800000Y-95333333D01*
X127847619Y-95285714D01*
X127942857Y-95238095D01*
X128038095Y-95238095D01*
X128180952Y-95285714D01*
X128752380Y-95857142D01*
X128752380Y-95238095D01*
G04 #@! TO.C,R40*
X103857142Y-95802380D02*
X103523809Y-95326190D01*
X103285714Y-95802380D02*
X103285714Y-94802380D01*
X103666666Y-94802380D01*
X103761904Y-94850000D01*
X103809523Y-94897619D01*
X103857142Y-94992857D01*
X103857142Y-95135714D01*
X103809523Y-95230952D01*
X103761904Y-95278571D01*
X103666666Y-95326190D01*
X103285714Y-95326190D01*
X104714285Y-95135714D02*
X104714285Y-95802380D01*
X104476190Y-94754761D02*
X104238095Y-95469047D01*
X104857142Y-95469047D01*
X105428571Y-94802380D02*
X105523809Y-94802380D01*
X105619047Y-94850000D01*
X105666666Y-94897619D01*
X105714285Y-94992857D01*
X105761904Y-95183333D01*
X105761904Y-95421428D01*
X105714285Y-95611904D01*
X105666666Y-95707142D01*
X105619047Y-95754761D01*
X105523809Y-95802380D01*
X105428571Y-95802380D01*
X105333333Y-95754761D01*
X105285714Y-95707142D01*
X105238095Y-95611904D01*
X105190476Y-95421428D01*
X105190476Y-95183333D01*
X105238095Y-94992857D01*
X105285714Y-94897619D01*
X105333333Y-94850000D01*
X105428571Y-94802380D01*
G04 #@! TO.C,R41*
X103857142Y-102352380D02*
X103523809Y-101876190D01*
X103285714Y-102352380D02*
X103285714Y-101352380D01*
X103666666Y-101352380D01*
X103761904Y-101400000D01*
X103809523Y-101447619D01*
X103857142Y-101542857D01*
X103857142Y-101685714D01*
X103809523Y-101780952D01*
X103761904Y-101828571D01*
X103666666Y-101876190D01*
X103285714Y-101876190D01*
X104714285Y-101685714D02*
X104714285Y-102352380D01*
X104476190Y-101304761D02*
X104238095Y-102019047D01*
X104857142Y-102019047D01*
X105761904Y-102352380D02*
X105190476Y-102352380D01*
X105476190Y-102352380D02*
X105476190Y-101352380D01*
X105380952Y-101495238D01*
X105285714Y-101590476D01*
X105190476Y-101638095D01*
G04 #@! TO.C,U00*
X139161904Y-126352380D02*
X139161904Y-127161904D01*
X139209523Y-127257142D01*
X139257142Y-127304761D01*
X139352380Y-127352380D01*
X139542857Y-127352380D01*
X139638095Y-127304761D01*
X139685714Y-127257142D01*
X139733333Y-127161904D01*
X139733333Y-126352380D01*
X140400000Y-126352380D02*
X140495238Y-126352380D01*
X140590476Y-126400000D01*
X140638095Y-126447619D01*
X140685714Y-126542857D01*
X140733333Y-126733333D01*
X140733333Y-126971428D01*
X140685714Y-127161904D01*
X140638095Y-127257142D01*
X140590476Y-127304761D01*
X140495238Y-127352380D01*
X140400000Y-127352380D01*
X140304761Y-127304761D01*
X140257142Y-127257142D01*
X140209523Y-127161904D01*
X140161904Y-126971428D01*
X140161904Y-126733333D01*
X140209523Y-126542857D01*
X140257142Y-126447619D01*
X140304761Y-126400000D01*
X140400000Y-126352380D01*
X141352380Y-126352380D02*
X141447619Y-126352380D01*
X141542857Y-126400000D01*
X141590476Y-126447619D01*
X141638095Y-126542857D01*
X141685714Y-126733333D01*
X141685714Y-126971428D01*
X141638095Y-127161904D01*
X141590476Y-127257142D01*
X141542857Y-127304761D01*
X141447619Y-127352380D01*
X141352380Y-127352380D01*
X141257142Y-127304761D01*
X141209523Y-127257142D01*
X141161904Y-127161904D01*
X141114285Y-126971428D01*
X141114285Y-126733333D01*
X141161904Y-126542857D01*
X141209523Y-126447619D01*
X141257142Y-126400000D01*
X141352380Y-126352380D01*
G04 #@! TO.C,U10*
X139161904Y-115352380D02*
X139161904Y-116161904D01*
X139209523Y-116257142D01*
X139257142Y-116304761D01*
X139352380Y-116352380D01*
X139542857Y-116352380D01*
X139638095Y-116304761D01*
X139685714Y-116257142D01*
X139733333Y-116161904D01*
X139733333Y-115352380D01*
X140733333Y-116352380D02*
X140161904Y-116352380D01*
X140447619Y-116352380D02*
X140447619Y-115352380D01*
X140352380Y-115495238D01*
X140257142Y-115590476D01*
X140161904Y-115638095D01*
X141352380Y-115352380D02*
X141447619Y-115352380D01*
X141542857Y-115400000D01*
X141590476Y-115447619D01*
X141638095Y-115542857D01*
X141685714Y-115733333D01*
X141685714Y-115971428D01*
X141638095Y-116161904D01*
X141590476Y-116257142D01*
X141542857Y-116304761D01*
X141447619Y-116352380D01*
X141352380Y-116352380D01*
X141257142Y-116304761D01*
X141209523Y-116257142D01*
X141161904Y-116161904D01*
X141114285Y-115971428D01*
X141114285Y-115733333D01*
X141161904Y-115542857D01*
X141209523Y-115447619D01*
X141257142Y-115400000D01*
X141352380Y-115352380D01*
G04 #@! TO.C,U20*
X139161904Y-104352380D02*
X139161904Y-105161904D01*
X139209523Y-105257142D01*
X139257142Y-105304761D01*
X139352380Y-105352380D01*
X139542857Y-105352380D01*
X139638095Y-105304761D01*
X139685714Y-105257142D01*
X139733333Y-105161904D01*
X139733333Y-104352380D01*
X140161904Y-104447619D02*
X140209523Y-104400000D01*
X140304761Y-104352380D01*
X140542857Y-104352380D01*
X140638095Y-104400000D01*
X140685714Y-104447619D01*
X140733333Y-104542857D01*
X140733333Y-104638095D01*
X140685714Y-104780952D01*
X140114285Y-105352380D01*
X140733333Y-105352380D01*
X141352380Y-104352380D02*
X141447619Y-104352380D01*
X141542857Y-104400000D01*
X141590476Y-104447619D01*
X141638095Y-104542857D01*
X141685714Y-104733333D01*
X141685714Y-104971428D01*
X141638095Y-105161904D01*
X141590476Y-105257142D01*
X141542857Y-105304761D01*
X141447619Y-105352380D01*
X141352380Y-105352380D01*
X141257142Y-105304761D01*
X141209523Y-105257142D01*
X141161904Y-105161904D01*
X141114285Y-104971428D01*
X141114285Y-104733333D01*
X141161904Y-104542857D01*
X141209523Y-104447619D01*
X141257142Y-104400000D01*
X141352380Y-104352380D01*
G04 #@! TO.C,U30*
X139161904Y-93352380D02*
X139161904Y-94161904D01*
X139209523Y-94257142D01*
X139257142Y-94304761D01*
X139352380Y-94352380D01*
X139542857Y-94352380D01*
X139638095Y-94304761D01*
X139685714Y-94257142D01*
X139733333Y-94161904D01*
X139733333Y-93352380D01*
X140114285Y-93352380D02*
X140733333Y-93352380D01*
X140400000Y-93733333D01*
X140542857Y-93733333D01*
X140638095Y-93780952D01*
X140685714Y-93828571D01*
X140733333Y-93923809D01*
X140733333Y-94161904D01*
X140685714Y-94257142D01*
X140638095Y-94304761D01*
X140542857Y-94352380D01*
X140257142Y-94352380D01*
X140161904Y-94304761D01*
X140114285Y-94257142D01*
X141352380Y-93352380D02*
X141447619Y-93352380D01*
X141542857Y-93400000D01*
X141590476Y-93447619D01*
X141638095Y-93542857D01*
X141685714Y-93733333D01*
X141685714Y-93971428D01*
X141638095Y-94161904D01*
X141590476Y-94257142D01*
X141542857Y-94304761D01*
X141447619Y-94352380D01*
X141352380Y-94352380D01*
X141257142Y-94304761D01*
X141209523Y-94257142D01*
X141161904Y-94161904D01*
X141114285Y-93971428D01*
X141114285Y-93733333D01*
X141161904Y-93542857D01*
X141209523Y-93447619D01*
X141257142Y-93400000D01*
X141352380Y-93352380D01*
G04 #@! TO.C,U40*
X110761904Y-91352380D02*
X110761904Y-92161904D01*
X110809523Y-92257142D01*
X110857142Y-92304761D01*
X110952380Y-92352380D01*
X111142857Y-92352380D01*
X111238095Y-92304761D01*
X111285714Y-92257142D01*
X111333333Y-92161904D01*
X111333333Y-91352380D01*
X112238095Y-91685714D02*
X112238095Y-92352380D01*
X112000000Y-91304761D02*
X111761904Y-92019047D01*
X112380952Y-92019047D01*
X112952380Y-91352380D02*
X113047619Y-91352380D01*
X113142857Y-91400000D01*
X113190476Y-91447619D01*
X113238095Y-91542857D01*
X113285714Y-91733333D01*
X113285714Y-91971428D01*
X113238095Y-92161904D01*
X113190476Y-92257142D01*
X113142857Y-92304761D01*
X113047619Y-92352380D01*
X112952380Y-92352380D01*
X112857142Y-92304761D01*
X112809523Y-92257142D01*
X112761904Y-92161904D01*
X112714285Y-91971428D01*
X112714285Y-91733333D01*
X112761904Y-91542857D01*
X112809523Y-91447619D01*
X112857142Y-91400000D01*
X112952380Y-91352380D01*
G04 #@! TO.C,SW00*
X119890476Y-125304761D02*
X120033333Y-125352380D01*
X120271428Y-125352380D01*
X120366666Y-125304761D01*
X120414285Y-125257142D01*
X120461904Y-125161904D01*
X120461904Y-125066666D01*
X120414285Y-124971428D01*
X120366666Y-124923809D01*
X120271428Y-124876190D01*
X120080952Y-124828571D01*
X119985714Y-124780952D01*
X119938095Y-124733333D01*
X119890476Y-124638095D01*
X119890476Y-124542857D01*
X119938095Y-124447619D01*
X119985714Y-124400000D01*
X120080952Y-124352380D01*
X120319047Y-124352380D01*
X120461904Y-124400000D01*
X120795238Y-124352380D02*
X121033333Y-125352380D01*
X121223809Y-124638095D01*
X121414285Y-125352380D01*
X121652380Y-124352380D01*
X122223809Y-124352380D02*
X122319047Y-124352380D01*
X122414285Y-124400000D01*
X122461904Y-124447619D01*
X122509523Y-124542857D01*
X122557142Y-124733333D01*
X122557142Y-124971428D01*
X122509523Y-125161904D01*
X122461904Y-125257142D01*
X122414285Y-125304761D01*
X122319047Y-125352380D01*
X122223809Y-125352380D01*
X122128571Y-125304761D01*
X122080952Y-125257142D01*
X122033333Y-125161904D01*
X121985714Y-124971428D01*
X121985714Y-124733333D01*
X122033333Y-124542857D01*
X122080952Y-124447619D01*
X122128571Y-124400000D01*
X122223809Y-124352380D01*
X123176190Y-124352380D02*
X123271428Y-124352380D01*
X123366666Y-124400000D01*
X123414285Y-124447619D01*
X123461904Y-124542857D01*
X123509523Y-124733333D01*
X123509523Y-124971428D01*
X123461904Y-125161904D01*
X123414285Y-125257142D01*
X123366666Y-125304761D01*
X123271428Y-125352380D01*
X123176190Y-125352380D01*
X123080952Y-125304761D01*
X123033333Y-125257142D01*
X122985714Y-125161904D01*
X122938095Y-124971428D01*
X122938095Y-124733333D01*
X122985714Y-124542857D01*
X123033333Y-124447619D01*
X123080952Y-124400000D01*
X123176190Y-124352380D01*
G04 #@! TO.C,SW10*
X119890476Y-114204761D02*
X120033333Y-114252380D01*
X120271428Y-114252380D01*
X120366666Y-114204761D01*
X120414285Y-114157142D01*
X120461904Y-114061904D01*
X120461904Y-113966666D01*
X120414285Y-113871428D01*
X120366666Y-113823809D01*
X120271428Y-113776190D01*
X120080952Y-113728571D01*
X119985714Y-113680952D01*
X119938095Y-113633333D01*
X119890476Y-113538095D01*
X119890476Y-113442857D01*
X119938095Y-113347619D01*
X119985714Y-113300000D01*
X120080952Y-113252380D01*
X120319047Y-113252380D01*
X120461904Y-113300000D01*
X120795238Y-113252380D02*
X121033333Y-114252380D01*
X121223809Y-113538095D01*
X121414285Y-114252380D01*
X121652380Y-113252380D01*
X122557142Y-114252380D02*
X121985714Y-114252380D01*
X122271428Y-114252380D02*
X122271428Y-113252380D01*
X122176190Y-113395238D01*
X122080952Y-113490476D01*
X121985714Y-113538095D01*
X123176190Y-113252380D02*
X123271428Y-113252380D01*
X123366666Y-113300000D01*
X123414285Y-113347619D01*
X123461904Y-113442857D01*
X123509523Y-113633333D01*
X123509523Y-113871428D01*
X123461904Y-114061904D01*
X123414285Y-114157142D01*
X123366666Y-114204761D01*
X123271428Y-114252380D01*
X123176190Y-114252380D01*
X123080952Y-114204761D01*
X123033333Y-114157142D01*
X122985714Y-114061904D01*
X122938095Y-113871428D01*
X122938095Y-113633333D01*
X122985714Y-113442857D01*
X123033333Y-113347619D01*
X123080952Y-113300000D01*
X123176190Y-113252380D01*
G04 #@! TO.C,SW20*
X119890476Y-103204761D02*
X120033333Y-103252380D01*
X120271428Y-103252380D01*
X120366666Y-103204761D01*
X120414285Y-103157142D01*
X120461904Y-103061904D01*
X120461904Y-102966666D01*
X120414285Y-102871428D01*
X120366666Y-102823809D01*
X120271428Y-102776190D01*
X120080952Y-102728571D01*
X119985714Y-102680952D01*
X119938095Y-102633333D01*
X119890476Y-102538095D01*
X119890476Y-102442857D01*
X119938095Y-102347619D01*
X119985714Y-102300000D01*
X120080952Y-102252380D01*
X120319047Y-102252380D01*
X120461904Y-102300000D01*
X120795238Y-102252380D02*
X121033333Y-103252380D01*
X121223809Y-102538095D01*
X121414285Y-103252380D01*
X121652380Y-102252380D01*
X121985714Y-102347619D02*
X122033333Y-102300000D01*
X122128571Y-102252380D01*
X122366666Y-102252380D01*
X122461904Y-102300000D01*
X122509523Y-102347619D01*
X122557142Y-102442857D01*
X122557142Y-102538095D01*
X122509523Y-102680952D01*
X121938095Y-103252380D01*
X122557142Y-103252380D01*
X123176190Y-102252380D02*
X123271428Y-102252380D01*
X123366666Y-102300000D01*
X123414285Y-102347619D01*
X123461904Y-102442857D01*
X123509523Y-102633333D01*
X123509523Y-102871428D01*
X123461904Y-103061904D01*
X123414285Y-103157142D01*
X123366666Y-103204761D01*
X123271428Y-103252380D01*
X123176190Y-103252380D01*
X123080952Y-103204761D01*
X123033333Y-103157142D01*
X122985714Y-103061904D01*
X122938095Y-102871428D01*
X122938095Y-102633333D01*
X122985714Y-102442857D01*
X123033333Y-102347619D01*
X123080952Y-102300000D01*
X123176190Y-102252380D01*
G04 #@! TO.C,SW30*
X119790476Y-92204761D02*
X119933333Y-92252380D01*
X120171428Y-92252380D01*
X120266666Y-92204761D01*
X120314285Y-92157142D01*
X120361904Y-92061904D01*
X120361904Y-91966666D01*
X120314285Y-91871428D01*
X120266666Y-91823809D01*
X120171428Y-91776190D01*
X119980952Y-91728571D01*
X119885714Y-91680952D01*
X119838095Y-91633333D01*
X119790476Y-91538095D01*
X119790476Y-91442857D01*
X119838095Y-91347619D01*
X119885714Y-91300000D01*
X119980952Y-91252380D01*
X120219047Y-91252380D01*
X120361904Y-91300000D01*
X120695238Y-91252380D02*
X120933333Y-92252380D01*
X121123809Y-91538095D01*
X121314285Y-92252380D01*
X121552380Y-91252380D01*
X121838095Y-91252380D02*
X122457142Y-91252380D01*
X122123809Y-91633333D01*
X122266666Y-91633333D01*
X122361904Y-91680952D01*
X122409523Y-91728571D01*
X122457142Y-91823809D01*
X122457142Y-92061904D01*
X122409523Y-92157142D01*
X122361904Y-92204761D01*
X122266666Y-92252380D01*
X121980952Y-92252380D01*
X121885714Y-92204761D01*
X121838095Y-92157142D01*
X123076190Y-91252380D02*
X123171428Y-91252380D01*
X123266666Y-91300000D01*
X123314285Y-91347619D01*
X123361904Y-91442857D01*
X123409523Y-91633333D01*
X123409523Y-91871428D01*
X123361904Y-92061904D01*
X123314285Y-92157142D01*
X123266666Y-92204761D01*
X123171428Y-92252380D01*
X123076190Y-92252380D01*
X122980952Y-92204761D01*
X122933333Y-92157142D01*
X122885714Y-92061904D01*
X122838095Y-91871428D01*
X122838095Y-91633333D01*
X122885714Y-91442857D01*
X122933333Y-91347619D01*
X122980952Y-91300000D01*
X123076190Y-91252380D01*
G04 #@! TO.C,C40*
X115857142Y-103857142D02*
X115809523Y-103904761D01*
X115666666Y-103952380D01*
X115571428Y-103952380D01*
X115428571Y-103904761D01*
X115333333Y-103809523D01*
X115285714Y-103714285D01*
X115238095Y-103523809D01*
X115238095Y-103380952D01*
X115285714Y-103190476D01*
X115333333Y-103095238D01*
X115428571Y-103000000D01*
X115571428Y-102952380D01*
X115666666Y-102952380D01*
X115809523Y-103000000D01*
X115857142Y-103047619D01*
X116714285Y-103285714D02*
X116714285Y-103952380D01*
X116476190Y-102904761D02*
X116238095Y-103619047D01*
X116857142Y-103619047D01*
X117428571Y-102952380D02*
X117523809Y-102952380D01*
X117619047Y-103000000D01*
X117666666Y-103047619D01*
X117714285Y-103142857D01*
X117761904Y-103333333D01*
X117761904Y-103571428D01*
X117714285Y-103761904D01*
X117666666Y-103857142D01*
X117619047Y-103904761D01*
X117523809Y-103952380D01*
X117428571Y-103952380D01*
X117333333Y-103904761D01*
X117285714Y-103857142D01*
X117238095Y-103761904D01*
X117190476Y-103571428D01*
X117190476Y-103333333D01*
X117238095Y-103142857D01*
X117285714Y-103047619D01*
X117333333Y-103000000D01*
X117428571Y-102952380D01*
G04 #@! TO.C,JP60*
X101952380Y-125309523D02*
X102666666Y-125309523D01*
X102809523Y-125357142D01*
X102904761Y-125452380D01*
X102952380Y-125595238D01*
X102952380Y-125690476D01*
X102952380Y-124833333D02*
X101952380Y-124833333D01*
X101952380Y-124452380D01*
X102000000Y-124357142D01*
X102047619Y-124309523D01*
X102142857Y-124261904D01*
X102285714Y-124261904D01*
X102380952Y-124309523D01*
X102428571Y-124357142D01*
X102476190Y-124452380D01*
X102476190Y-124833333D01*
X101952380Y-123404761D02*
X101952380Y-123595238D01*
X102000000Y-123690476D01*
X102047619Y-123738095D01*
X102190476Y-123833333D01*
X102380952Y-123880952D01*
X102761904Y-123880952D01*
X102857142Y-123833333D01*
X102904761Y-123785714D01*
X102952380Y-123690476D01*
X102952380Y-123500000D01*
X102904761Y-123404761D01*
X102857142Y-123357142D01*
X102761904Y-123309523D01*
X102523809Y-123309523D01*
X102428571Y-123357142D01*
X102380952Y-123404761D01*
X102333333Y-123500000D01*
X102333333Y-123690476D01*
X102380952Y-123785714D01*
X102428571Y-123833333D01*
X102523809Y-123880952D01*
X101952380Y-122690476D02*
X101952380Y-122595238D01*
X102000000Y-122500000D01*
X102047619Y-122452380D01*
X102142857Y-122404761D01*
X102333333Y-122357142D01*
X102571428Y-122357142D01*
X102761904Y-122404761D01*
X102857142Y-122452380D01*
X102904761Y-122500000D01*
X102952380Y-122595238D01*
X102952380Y-122690476D01*
X102904761Y-122785714D01*
X102857142Y-122833333D01*
X102761904Y-122880952D01*
X102571428Y-122928571D01*
X102333333Y-122928571D01*
X102142857Y-122880952D01*
X102047619Y-122833333D01*
X102000000Y-122785714D01*
X101952380Y-122690476D01*
G04 #@! TD*
M02*
