G04 #@! TF.GenerationSoftware,KiCad,Pcbnew,(5.0.1-3-g963ef8bb5)*
G04 #@! TF.CreationDate,2019-05-15T15:03:22+02:00*
G04 #@! TF.ProjectId,HapticDriverShield,48617074696344726976657253686965,rev?*
G04 #@! TF.SameCoordinates,Original*
G04 #@! TF.FileFunction,Copper,L2,Bot,Signal*
G04 #@! TF.FilePolarity,Positive*
%FSLAX46Y46*%
G04 Gerber Fmt 4.6, Leading zero omitted, Abs format (unit mm)*
G04 Created by KiCad (PCBNEW (5.0.1-3-g963ef8bb5)) date 2019 May 15, Wednesday 15:03:22*
%MOMM*%
%LPD*%
G01*
G04 APERTURE LIST*
G04 #@! TA.AperFunction,ComponentPad*
%ADD10C,2.200000*%
G04 #@! TD*
G04 #@! TA.AperFunction,ComponentPad*
%ADD11O,1.524000X2.540000*%
G04 #@! TD*
G04 #@! TA.AperFunction,ComponentPad*
%ADD12C,3.937000*%
G04 #@! TD*
G04 #@! TA.AperFunction,ComponentPad*
%ADD13C,1.524000*%
G04 #@! TD*
G04 #@! TA.AperFunction,ComponentPad*
%ADD14C,2.000000*%
G04 #@! TD*
G04 #@! TA.AperFunction,ComponentPad*
%ADD15C,1.800000*%
G04 #@! TD*
G04 #@! TA.AperFunction,ComponentPad*
%ADD16C,4.000000*%
G04 #@! TD*
G04 #@! TA.AperFunction,ComponentPad*
%ADD17C,4.400000*%
G04 #@! TD*
G04 #@! TA.AperFunction,ComponentPad*
%ADD18C,1.300000*%
G04 #@! TD*
G04 #@! TA.AperFunction,ComponentPad*
%ADD19R,1.700000X1.700000*%
G04 #@! TD*
G04 #@! TA.AperFunction,ComponentPad*
%ADD20O,1.700000X1.700000*%
G04 #@! TD*
G04 #@! TA.AperFunction,ViaPad*
%ADD21C,0.800000*%
G04 #@! TD*
G04 #@! TA.AperFunction,Conductor*
%ADD22C,0.400000*%
G04 #@! TD*
G04 #@! TA.AperFunction,Conductor*
%ADD23C,0.250000*%
G04 #@! TD*
G04 #@! TA.AperFunction,Conductor*
%ADD24C,0.254000*%
G04 #@! TD*
G04 APERTURE END LIST*
D10*
G04 #@! TO.P,J71,R_S*
G04 #@! TO.N,N/C*
X97000000Y-93350000D03*
G04 #@! TO.P,J71,T_S*
X101600000Y-100000000D03*
G04 #@! TO.P,J71,R*
G04 #@! TO.N,AUDIO1-R*
X98400000Y-90950000D03*
G04 #@! TO.P,J71,T*
G04 #@! TO.N,AUDIO1-L*
X93900000Y-100550000D03*
G04 #@! TO.P,J71,S*
G04 #@! TO.N,GND*
X90500000Y-96000000D03*
G04 #@! TD*
G04 #@! TO.P,J70,R_S*
G04 #@! TO.N,N/C*
X97000000Y-106350000D03*
G04 #@! TO.P,J70,T_S*
X101600000Y-113000000D03*
G04 #@! TO.P,J70,R*
G04 #@! TO.N,AUDIO0-R*
X98400000Y-103950000D03*
G04 #@! TO.P,J70,T*
G04 #@! TO.N,AUDIO0-L*
X93900000Y-113550000D03*
G04 #@! TO.P,J70,S*
G04 #@! TO.N,GND*
X90500000Y-109000000D03*
G04 #@! TD*
D11*
G04 #@! TO.P,SHIELD00,NC*
G04 #@! TO.N,Net-(SHIELD00-PadNC)*
X117090000Y-137360000D03*
G04 #@! TO.P,SHIELD00,IOREF*
G04 #@! TO.N,Net-(SHIELD00-PadIOREF)*
X119630000Y-137360000D03*
G04 #@! TO.P,SHIELD00,SCL*
G04 #@! TO.N,SCL*
X108200000Y-89100000D03*
G04 #@! TO.P,SHIELD00,SDA*
G04 #@! TO.N,SDA*
X110740000Y-89100000D03*
D12*
G04 #@! TO.P,SHIELD00,*
G04 #@! TO.N,*
X103120000Y-137360000D03*
X104390000Y-89100000D03*
X155190000Y-104340000D03*
X155190000Y-132280000D03*
D11*
G04 #@! TO.P,SHIELD00,5V*
G04 #@! TO.N,5V*
X127250000Y-137360000D03*
G04 #@! TO.P,SHIELD00,AREF*
G04 #@! TO.N,Net-(SHIELD00-PadAREF)*
X113026000Y-89100000D03*
G04 #@! TO.P,SHIELD00,GND3*
G04 #@! TO.N,GND*
X115566000Y-89100000D03*
G04 #@! TO.P,SHIELD00,13*
G04 #@! TO.N,Net-(SHIELD00-Pad13)*
X118106000Y-89100000D03*
G04 #@! TO.P,SHIELD00,12*
G04 #@! TO.N,IO12*
X120646000Y-89100000D03*
G04 #@! TO.P,SHIELD00,11*
G04 #@! TO.N,IO11*
X123186000Y-89100000D03*
G04 #@! TO.P,SHIELD00,10*
G04 #@! TO.N,IO10*
X125726000Y-89100000D03*
G04 #@! TO.P,SHIELD00,9*
G04 #@! TO.N,IO9*
X128266000Y-89100000D03*
G04 #@! TO.P,SHIELD00,ee*
G04 #@! TO.N,Net-(SHIELD00-Pad8)*
X130806000Y-89100000D03*
G04 #@! TO.P,SHIELD00,7*
G04 #@! TO.N,Net-(SHIELD00-Pad7)*
X134870000Y-89100000D03*
G04 #@! TO.P,SHIELD00,6*
G04 #@! TO.N,IO6*
X137410000Y-89100000D03*
G04 #@! TO.P,SHIELD00,5*
G04 #@! TO.N,Net-(SHIELD00-Pad5)*
X139950000Y-89100000D03*
G04 #@! TO.P,SHIELD00,4*
G04 #@! TO.N,Net-(SHIELD00-Pad4)*
X142490000Y-89100000D03*
G04 #@! TO.P,SHIELD00,3*
G04 #@! TO.N,Net-(SHIELD00-Pad3)*
X145030000Y-89100000D03*
G04 #@! TO.P,SHIELD00,2*
G04 #@! TO.N,Net-(SHIELD00-Pad2)*
X147570000Y-89100000D03*
G04 #@! TO.P,SHIELD00,1*
G04 #@! TO.N,Net-(SHIELD00-Pad1)*
X150110000Y-89100000D03*
G04 #@! TO.P,SHIELD00,0*
G04 #@! TO.N,Net-(SHIELD00-Pad0)*
X152650000Y-89100000D03*
G04 #@! TO.P,SHIELD00,RST*
G04 #@! TO.N,Net-(SHIELD00-PadRST)*
X122170000Y-137360000D03*
G04 #@! TO.P,SHIELD00,3V3*
G04 #@! TO.N,Net-(SHIELD00-Pad3V3)*
X124710000Y-137360000D03*
G04 #@! TO.P,SHIELD00,GND1*
G04 #@! TO.N,GND*
X129790000Y-137360000D03*
G04 #@! TO.P,SHIELD00,GND2*
X132330000Y-137360000D03*
G04 #@! TO.P,SHIELD00,V_IN*
G04 #@! TO.N,Net-(SHIELD00-PadV_IN)*
X134870000Y-137360000D03*
G04 #@! TO.P,SHIELD00,AD2*
G04 #@! TO.N,Net-(SHIELD00-PadAD2)*
X145030000Y-137360000D03*
G04 #@! TO.P,SHIELD00,AD1*
G04 #@! TO.N,Net-(SHIELD00-PadAD1)*
X142490000Y-137360000D03*
G04 #@! TO.P,SHIELD00,AD0*
G04 #@! TO.N,Net-(SHIELD00-PadAD0)*
X139950000Y-137360000D03*
G04 #@! TO.P,SHIELD00,AD3*
G04 #@! TO.N,Net-(SHIELD00-PadAD3)*
X147570000Y-137360000D03*
G04 #@! TO.P,SHIELD00,AD4*
G04 #@! TO.N,Net-(SHIELD00-PadAD4)*
X150110000Y-137360000D03*
G04 #@! TO.P,SHIELD00,AD5*
G04 #@! TO.N,Net-(SHIELD00-PadAD5)*
X152650000Y-137360000D03*
G04 #@! TD*
D13*
G04 #@! TO.P,J00,1*
G04 #@! TO.N,Net-(J00-Pad1)*
X147000000Y-127595000D03*
G04 #@! TO.P,J00,2*
G04 #@! TO.N,Net-(J00-Pad2)*
X147000000Y-131405000D03*
G04 #@! TD*
G04 #@! TO.P,J10,2*
G04 #@! TO.N,Net-(J10-Pad2)*
X147000000Y-120405000D03*
G04 #@! TO.P,J10,1*
G04 #@! TO.N,Net-(J10-Pad1)*
X147000000Y-116595000D03*
G04 #@! TD*
G04 #@! TO.P,J20,2*
G04 #@! TO.N,Net-(J20-Pad2)*
X147000000Y-109405000D03*
G04 #@! TO.P,J20,1*
G04 #@! TO.N,Net-(J20-Pad1)*
X147000000Y-105595000D03*
G04 #@! TD*
G04 #@! TO.P,J30,1*
G04 #@! TO.N,Net-(J30-Pad1)*
X147000000Y-94595000D03*
G04 #@! TO.P,J30,2*
G04 #@! TO.N,Net-(J30-Pad2)*
X147000000Y-98405000D03*
G04 #@! TD*
D14*
G04 #@! TO.P,J60,6*
G04 #@! TO.N,GND*
X94350000Y-129275000D03*
X94350000Y-136725000D03*
D15*
X90550000Y-129125000D03*
X90550000Y-136875000D03*
G04 #@! TD*
D16*
G04 #@! TO.P,J61,3*
G04 #@! TO.N,N/C*
X95900000Y-125400000D03*
G04 #@! TO.P,J61,2*
G04 #@! TO.N,GND*
X93100000Y-120600000D03*
D17*
G04 #@! TO.P,J61,1*
G04 #@! TO.N,Net-(C60-Pad1)*
X98900000Y-120600000D03*
G04 #@! TD*
D18*
G04 #@! TO.P,SW00,1*
G04 #@! TO.N,Net-(R00-Pad1)*
X125500000Y-129500000D03*
G04 #@! TO.P,SW00,2*
G04 #@! TO.N,IO6*
X125500000Y-132040000D03*
G04 #@! TO.P,SW00,3*
G04 #@! TO.N,AUDIO0-L*
X125500000Y-126960000D03*
G04 #@! TD*
G04 #@! TO.P,SW10,3*
G04 #@! TO.N,AUDIO0-R*
X125500000Y-115960000D03*
G04 #@! TO.P,SW10,2*
G04 #@! TO.N,IO9*
X125500000Y-121040000D03*
G04 #@! TO.P,SW10,1*
G04 #@! TO.N,Net-(R10-Pad1)*
X125500000Y-118500000D03*
G04 #@! TD*
G04 #@! TO.P,SW20,1*
G04 #@! TO.N,Net-(R20-Pad1)*
X125500000Y-107500000D03*
G04 #@! TO.P,SW20,2*
G04 #@! TO.N,IO10*
X125500000Y-110040000D03*
G04 #@! TO.P,SW20,3*
G04 #@! TO.N,AUDIO1-L*
X125500000Y-104960000D03*
G04 #@! TD*
G04 #@! TO.P,SW30,3*
G04 #@! TO.N,AUDIO1-R*
X125500000Y-93960000D03*
G04 #@! TO.P,SW30,2*
G04 #@! TO.N,IO11*
X125500000Y-99040000D03*
G04 #@! TO.P,SW30,1*
G04 #@! TO.N,Net-(R30-Pad1)*
X125500000Y-96500000D03*
G04 #@! TD*
D19*
G04 #@! TO.P,JP60,1*
G04 #@! TO.N,Net-(C60-Pad1)*
X105000000Y-118900000D03*
D20*
G04 #@! TO.P,JP60,2*
G04 #@! TO.N,VDD*
X105000000Y-121440000D03*
G04 #@! TO.P,JP60,3*
G04 #@! TO.N,5V*
X105000000Y-123980000D03*
G04 #@! TD*
D21*
G04 #@! TO.N,VDD*
X139500000Y-100000000D03*
X139500000Y-122000000D03*
X139500000Y-111000000D03*
X139500000Y-133000000D03*
X128700000Y-93500000D03*
X128700000Y-96500000D03*
X128700000Y-107500000D03*
X128700000Y-104500000D03*
X128700000Y-115500000D03*
X128700000Y-118500000D03*
X128700000Y-126500000D03*
X128700000Y-129500000D03*
X128700000Y-134400000D03*
X139500000Y-134400000D03*
G04 #@! TO.N,GND*
X142000000Y-108500000D03*
X142000000Y-130500000D03*
X142000000Y-119500000D03*
X142000000Y-97500000D03*
X107500000Y-97000000D03*
X134000000Y-133000000D03*
G04 #@! TO.N,Net-(J00-Pad1)*
X142500000Y-132500000D03*
G04 #@! TO.N,Net-(J10-Pad1)*
X142500000Y-121500000D03*
G04 #@! TO.N,Net-(J20-Pad1)*
X142500000Y-110500000D03*
G04 #@! TO.N,Net-(J30-Pad1)*
X142500000Y-99500000D03*
G04 #@! TD*
D22*
G04 #@! TO.N,VDD*
X139500000Y-111000000D02*
X139500000Y-100000000D01*
X139500000Y-122000000D02*
X139500000Y-111000000D01*
X139500000Y-133000000D02*
X139500000Y-122000000D01*
X128700000Y-96500000D02*
X128700000Y-93500000D01*
X128700000Y-104500000D02*
X128700000Y-96500000D01*
X128700000Y-107500000D02*
X128700000Y-104500000D01*
X128700000Y-115500000D02*
X128700000Y-107500000D01*
X128700000Y-118500000D02*
X128700000Y-115500000D01*
X128700000Y-126500000D02*
X128700000Y-118500000D01*
X128700000Y-129500000D02*
X128700000Y-126500000D01*
X128700000Y-134400000D02*
X128700000Y-129500000D01*
X139500000Y-134400000D02*
X139500000Y-133000000D01*
D23*
G04 #@! TO.N,Net-(J00-Pad1)*
X147000000Y-128000000D02*
X147000000Y-127595000D01*
X142500000Y-132500000D02*
X147000000Y-128000000D01*
G04 #@! TO.N,Net-(J10-Pad1)*
X147000000Y-117000000D02*
X147000000Y-116595000D01*
X142500000Y-121500000D02*
X147000000Y-117000000D01*
G04 #@! TO.N,Net-(J20-Pad1)*
X147000000Y-106000000D02*
X147000000Y-105595000D01*
X142500000Y-110500000D02*
X147000000Y-106000000D01*
G04 #@! TO.N,Net-(J30-Pad1)*
X147000000Y-95000000D02*
X147000000Y-94595000D01*
X142500000Y-99500000D02*
X147000000Y-95000000D01*
G04 #@! TO.N,AUDIO0-R*
X113040000Y-103500000D02*
X125500000Y-115960000D01*
X97900000Y-103500000D02*
X113040000Y-103500000D01*
G04 #@! TO.N,AUDIO0-L*
X112040000Y-113500000D02*
X125500000Y-126960000D01*
X93400000Y-113500000D02*
X112040000Y-113500000D01*
G04 #@! TO.N,AUDIO1-L*
X121040000Y-100500000D02*
X125500000Y-104960000D01*
X93400000Y-100500000D02*
X121040000Y-100500000D01*
G04 #@! TO.N,AUDIO1-R*
X101360000Y-93960000D02*
X125500000Y-93960000D01*
X97900000Y-90500000D02*
X101360000Y-93960000D01*
D22*
G04 #@! TO.N,5V*
X106202081Y-123980000D02*
X105000000Y-123980000D01*
X114387499Y-123980000D02*
X106202081Y-123980000D01*
X127250000Y-136842501D02*
X114387499Y-123980000D01*
X127250000Y-137350501D02*
X127250000Y-136842501D01*
D23*
G04 #@! TO.N,IO6*
X126149999Y-131390001D02*
X125500000Y-132040000D01*
X127825031Y-92811379D02*
X127825031Y-129714969D01*
X129636410Y-91000000D02*
X127825031Y-92811379D01*
X137020501Y-91000000D02*
X129636410Y-91000000D01*
X127540000Y-130000000D02*
X126149999Y-131390001D01*
X137410000Y-90610501D02*
X137020501Y-91000000D01*
X127825031Y-129714969D02*
X127540000Y-130000000D01*
X137410000Y-89090501D02*
X137410000Y-90610501D01*
G04 #@! TO.N,IO9*
X127375021Y-119164979D02*
X125500000Y-121040000D01*
X127375021Y-92624979D02*
X127375021Y-119164979D01*
X128266000Y-91734000D02*
X127375021Y-92624979D01*
X128266000Y-89090501D02*
X128266000Y-91734000D01*
G04 #@! TO.N,IO10*
X126925011Y-108614989D02*
X126149999Y-109390001D01*
X126925011Y-92701102D02*
X126925011Y-108614989D01*
X126149999Y-109390001D02*
X125500000Y-110040000D01*
X125726000Y-91502091D02*
X126925011Y-92701102D01*
X125726000Y-89090501D02*
X125726000Y-91502091D01*
G04 #@! TO.N,IO11*
X126149999Y-98390001D02*
X125500000Y-99040000D01*
X126475001Y-98064999D02*
X126149999Y-98390001D01*
X123186000Y-89598501D02*
X126475001Y-92887502D01*
X126475001Y-92887502D02*
X126475001Y-98064999D01*
X123186000Y-89090501D02*
X123186000Y-89598501D01*
G04 #@! TD*
D24*
G04 #@! TO.N,GND*
G36*
X102182859Y-87625235D02*
X101786500Y-88582132D01*
X101786500Y-89617868D01*
X102182859Y-90574765D01*
X102915235Y-91307141D01*
X103872132Y-91703500D01*
X104907868Y-91703500D01*
X105864765Y-91307141D01*
X106597141Y-90574765D01*
X106847640Y-89970006D01*
X106884056Y-90153082D01*
X107192821Y-90615180D01*
X107654919Y-90923944D01*
X108200000Y-91032368D01*
X108745082Y-90923944D01*
X109207180Y-90615180D01*
X109470000Y-90221842D01*
X109732821Y-90615180D01*
X110194919Y-90923944D01*
X110740000Y-91032368D01*
X111285082Y-90923944D01*
X111747180Y-90615180D01*
X111883000Y-90411911D01*
X112018821Y-90615180D01*
X112480919Y-90923944D01*
X113026000Y-91032368D01*
X113571082Y-90923944D01*
X114033180Y-90615180D01*
X114307580Y-90204511D01*
X114323941Y-90259941D01*
X114667974Y-90685630D01*
X115148723Y-90947260D01*
X115222930Y-90962220D01*
X115439000Y-90839720D01*
X115439000Y-89227000D01*
X115419000Y-89227000D01*
X115419000Y-88973000D01*
X115439000Y-88973000D01*
X115439000Y-88953000D01*
X115693000Y-88953000D01*
X115693000Y-88973000D01*
X115713000Y-88973000D01*
X115713000Y-89227000D01*
X115693000Y-89227000D01*
X115693000Y-90839720D01*
X115909070Y-90962220D01*
X115983277Y-90947260D01*
X116464026Y-90685630D01*
X116808059Y-90259941D01*
X116824420Y-90204511D01*
X117098821Y-90615180D01*
X117560919Y-90923944D01*
X118106000Y-91032368D01*
X118651082Y-90923944D01*
X119113180Y-90615180D01*
X119376000Y-90221842D01*
X119638821Y-90615180D01*
X120100919Y-90923944D01*
X120646000Y-91032368D01*
X121191082Y-90923944D01*
X121653180Y-90615180D01*
X121916000Y-90221842D01*
X122178821Y-90615180D01*
X122640919Y-90923944D01*
X123186000Y-91032368D01*
X123485493Y-90972795D01*
X125204304Y-92691607D01*
X124772106Y-92870629D01*
X124442735Y-93200000D01*
X101674802Y-93200000D01*
X100028069Y-91553268D01*
X100135000Y-91295113D01*
X100135000Y-90604887D01*
X99870862Y-89967201D01*
X99382799Y-89479138D01*
X98745113Y-89215000D01*
X98054887Y-89215000D01*
X97417201Y-89479138D01*
X96929138Y-89967201D01*
X96665000Y-90604887D01*
X96665000Y-91295113D01*
X96797501Y-91615000D01*
X96654887Y-91615000D01*
X96017201Y-91879138D01*
X95529138Y-92367201D01*
X95265000Y-93004887D01*
X95265000Y-93695113D01*
X95529138Y-94332799D01*
X96017201Y-94820862D01*
X96654887Y-95085000D01*
X97345113Y-95085000D01*
X97982799Y-94820862D01*
X98470862Y-94332799D01*
X98735000Y-93695113D01*
X98735000Y-93004887D01*
X98602499Y-92685000D01*
X98745113Y-92685000D01*
X98932557Y-92607358D01*
X100769671Y-94444473D01*
X100812071Y-94507929D01*
X101063463Y-94675904D01*
X101285148Y-94720000D01*
X101285153Y-94720000D01*
X101360000Y-94734888D01*
X101434847Y-94720000D01*
X124442735Y-94720000D01*
X124772106Y-95049371D01*
X125208185Y-95230000D01*
X124772106Y-95410629D01*
X124410629Y-95772106D01*
X124215000Y-96244398D01*
X124215000Y-96755602D01*
X124410629Y-97227894D01*
X124772106Y-97589371D01*
X125208185Y-97770000D01*
X124772106Y-97950629D01*
X124410629Y-98312106D01*
X124215000Y-98784398D01*
X124215000Y-99295602D01*
X124410629Y-99767894D01*
X124772106Y-100129371D01*
X125244398Y-100325000D01*
X125755602Y-100325000D01*
X126165011Y-100155418D01*
X126165012Y-103844582D01*
X125755602Y-103675000D01*
X125289803Y-103675000D01*
X121630331Y-100015530D01*
X121587929Y-99952071D01*
X121336537Y-99784096D01*
X121114852Y-99740000D01*
X121114847Y-99740000D01*
X121040000Y-99725112D01*
X120965153Y-99740000D01*
X103335000Y-99740000D01*
X103335000Y-99654887D01*
X103070862Y-99017201D01*
X102582799Y-98529138D01*
X101945113Y-98265000D01*
X101254887Y-98265000D01*
X100617201Y-98529138D01*
X100129138Y-99017201D01*
X99865000Y-99654887D01*
X99865000Y-99740000D01*
X95442438Y-99740000D01*
X95370862Y-99567201D01*
X94882799Y-99079138D01*
X94245113Y-98815000D01*
X93554887Y-98815000D01*
X92917201Y-99079138D01*
X92429138Y-99567201D01*
X92165000Y-100204887D01*
X92165000Y-100895113D01*
X92429138Y-101532799D01*
X92917201Y-102020862D01*
X93554887Y-102285000D01*
X94245113Y-102285000D01*
X94882799Y-102020862D01*
X95370862Y-101532799D01*
X95483859Y-101260000D01*
X100406339Y-101260000D01*
X100617201Y-101470862D01*
X101254887Y-101735000D01*
X101945113Y-101735000D01*
X102582799Y-101470862D01*
X102793661Y-101260000D01*
X120725199Y-101260000D01*
X124215000Y-104749803D01*
X124215000Y-105215602D01*
X124410629Y-105687894D01*
X124772106Y-106049371D01*
X125208185Y-106230000D01*
X124772106Y-106410629D01*
X124410629Y-106772106D01*
X124215000Y-107244398D01*
X124215000Y-107755602D01*
X124410629Y-108227894D01*
X124772106Y-108589371D01*
X125208185Y-108770000D01*
X124772106Y-108950629D01*
X124410629Y-109312106D01*
X124215000Y-109784398D01*
X124215000Y-110295602D01*
X124410629Y-110767894D01*
X124772106Y-111129371D01*
X125244398Y-111325000D01*
X125755602Y-111325000D01*
X126227894Y-111129371D01*
X126589371Y-110767894D01*
X126615022Y-110705968D01*
X126615022Y-115294033D01*
X126589371Y-115232106D01*
X126227894Y-114870629D01*
X125755602Y-114675000D01*
X125289802Y-114675000D01*
X113630331Y-103015530D01*
X113587929Y-102952071D01*
X113336537Y-102784096D01*
X113114852Y-102740000D01*
X113114847Y-102740000D01*
X113040000Y-102725112D01*
X112965153Y-102740000D01*
X99643661Y-102740000D01*
X99382799Y-102479138D01*
X98745113Y-102215000D01*
X98054887Y-102215000D01*
X97417201Y-102479138D01*
X96929138Y-102967201D01*
X96665000Y-103604887D01*
X96665000Y-104295113D01*
X96797501Y-104615000D01*
X96654887Y-104615000D01*
X96017201Y-104879138D01*
X95529138Y-105367201D01*
X95265000Y-106004887D01*
X95265000Y-106695113D01*
X95529138Y-107332799D01*
X96017201Y-107820862D01*
X96654887Y-108085000D01*
X97345113Y-108085000D01*
X97982799Y-107820862D01*
X98470862Y-107332799D01*
X98735000Y-106695113D01*
X98735000Y-106004887D01*
X98602499Y-105685000D01*
X98745113Y-105685000D01*
X99382799Y-105420862D01*
X99870862Y-104932799D01*
X100135000Y-104295113D01*
X100135000Y-104260000D01*
X112725199Y-104260000D01*
X124215000Y-115749802D01*
X124215000Y-116215602D01*
X124410629Y-116687894D01*
X124772106Y-117049371D01*
X125208185Y-117230000D01*
X124772106Y-117410629D01*
X124410629Y-117772106D01*
X124215000Y-118244398D01*
X124215000Y-118755602D01*
X124410629Y-119227894D01*
X124772106Y-119589371D01*
X125208185Y-119770000D01*
X124772106Y-119950629D01*
X124410629Y-120312106D01*
X124215000Y-120784398D01*
X124215000Y-121295602D01*
X124410629Y-121767894D01*
X124772106Y-122129371D01*
X125244398Y-122325000D01*
X125755602Y-122325000D01*
X126227894Y-122129371D01*
X126589371Y-121767894D01*
X126785000Y-121295602D01*
X126785000Y-120829801D01*
X127065032Y-120549770D01*
X127065032Y-129400167D01*
X127055530Y-129409669D01*
X127055527Y-129409671D01*
X126785000Y-129680198D01*
X126785000Y-129244398D01*
X126589371Y-128772106D01*
X126227894Y-128410629D01*
X125791815Y-128230000D01*
X126227894Y-128049371D01*
X126589371Y-127687894D01*
X126785000Y-127215602D01*
X126785000Y-126704398D01*
X126589371Y-126232106D01*
X126227894Y-125870629D01*
X125755602Y-125675000D01*
X125289802Y-125675000D01*
X112630331Y-113015530D01*
X112587929Y-112952071D01*
X112336537Y-112784096D01*
X112114852Y-112740000D01*
X112114847Y-112740000D01*
X112040000Y-112725112D01*
X111965153Y-112740000D01*
X103335000Y-112740000D01*
X103335000Y-112654887D01*
X103070862Y-112017201D01*
X102582799Y-111529138D01*
X101945113Y-111265000D01*
X101254887Y-111265000D01*
X100617201Y-111529138D01*
X100129138Y-112017201D01*
X99865000Y-112654887D01*
X99865000Y-112740000D01*
X95442438Y-112740000D01*
X95370862Y-112567201D01*
X94882799Y-112079138D01*
X94245113Y-111815000D01*
X93554887Y-111815000D01*
X92917201Y-112079138D01*
X92429138Y-112567201D01*
X92165000Y-113204887D01*
X92165000Y-113895113D01*
X92429138Y-114532799D01*
X92917201Y-115020862D01*
X93554887Y-115285000D01*
X94245113Y-115285000D01*
X94882799Y-115020862D01*
X95370862Y-114532799D01*
X95483859Y-114260000D01*
X100406339Y-114260000D01*
X100617201Y-114470862D01*
X101254887Y-114735000D01*
X101945113Y-114735000D01*
X102582799Y-114470862D01*
X102793661Y-114260000D01*
X111725199Y-114260000D01*
X124215000Y-126749802D01*
X124215000Y-127215602D01*
X124410629Y-127687894D01*
X124772106Y-128049371D01*
X125208185Y-128230000D01*
X124772106Y-128410629D01*
X124410629Y-128772106D01*
X124215000Y-129244398D01*
X124215000Y-129755602D01*
X124410629Y-130227894D01*
X124772106Y-130589371D01*
X125208185Y-130770000D01*
X124772106Y-130950629D01*
X124410629Y-131312106D01*
X124215000Y-131784398D01*
X124215000Y-132295602D01*
X124410629Y-132767894D01*
X124772106Y-133129371D01*
X125244398Y-133325000D01*
X125755602Y-133325000D01*
X126227894Y-133129371D01*
X126589371Y-132767894D01*
X126785000Y-132295602D01*
X126785000Y-131829801D01*
X127865001Y-130749801D01*
X127865000Y-133771289D01*
X127822569Y-133813720D01*
X127665000Y-134194126D01*
X127665000Y-134605874D01*
X127822569Y-134986280D01*
X128113720Y-135277431D01*
X128494126Y-135435000D01*
X128905874Y-135435000D01*
X129286280Y-135277431D01*
X129577431Y-134986280D01*
X129735000Y-134605874D01*
X129735000Y-134194126D01*
X129577431Y-133813720D01*
X129535000Y-133771289D01*
X129535000Y-130128711D01*
X129577431Y-130086280D01*
X129735000Y-129705874D01*
X129735000Y-129294126D01*
X129577431Y-128913720D01*
X129535000Y-128871289D01*
X129535000Y-127128711D01*
X129577431Y-127086280D01*
X129735000Y-126705874D01*
X129735000Y-126294126D01*
X129577431Y-125913720D01*
X129535000Y-125871289D01*
X129535000Y-119128711D01*
X129577431Y-119086280D01*
X129735000Y-118705874D01*
X129735000Y-118294126D01*
X129577431Y-117913720D01*
X129535000Y-117871289D01*
X129535000Y-116128711D01*
X129577431Y-116086280D01*
X129735000Y-115705874D01*
X129735000Y-115294126D01*
X129577431Y-114913720D01*
X129535000Y-114871289D01*
X129535000Y-108128711D01*
X129577431Y-108086280D01*
X129735000Y-107705874D01*
X129735000Y-107294126D01*
X129577431Y-106913720D01*
X129535000Y-106871289D01*
X129535000Y-105128711D01*
X129577431Y-105086280D01*
X129735000Y-104705874D01*
X129735000Y-104294126D01*
X129577431Y-103913720D01*
X129535000Y-103871289D01*
X129535000Y-99794126D01*
X138465000Y-99794126D01*
X138465000Y-100205874D01*
X138622569Y-100586280D01*
X138665001Y-100628712D01*
X138665000Y-110371289D01*
X138622569Y-110413720D01*
X138465000Y-110794126D01*
X138465000Y-111205874D01*
X138622569Y-111586280D01*
X138665001Y-111628712D01*
X138665000Y-121371289D01*
X138622569Y-121413720D01*
X138465000Y-121794126D01*
X138465000Y-122205874D01*
X138622569Y-122586280D01*
X138665001Y-122628712D01*
X138665000Y-132371289D01*
X138622569Y-132413720D01*
X138465000Y-132794126D01*
X138465000Y-133205874D01*
X138622569Y-133586280D01*
X138665001Y-133628712D01*
X138665000Y-133771289D01*
X138622569Y-133813720D01*
X138465000Y-134194126D01*
X138465000Y-134605874D01*
X138622569Y-134986280D01*
X138913720Y-135277431D01*
X139294126Y-135435000D01*
X139705874Y-135435000D01*
X140086280Y-135277431D01*
X140377431Y-134986280D01*
X140535000Y-134605874D01*
X140535000Y-134194126D01*
X140377431Y-133813720D01*
X140335000Y-133771289D01*
X140335000Y-133628711D01*
X140377431Y-133586280D01*
X140535000Y-133205874D01*
X140535000Y-132794126D01*
X140377431Y-132413720D01*
X140335000Y-132371289D01*
X140335000Y-132294126D01*
X141465000Y-132294126D01*
X141465000Y-132705874D01*
X141622569Y-133086280D01*
X141913720Y-133377431D01*
X142294126Y-133535000D01*
X142705874Y-133535000D01*
X143086280Y-133377431D01*
X143377431Y-133086280D01*
X143535000Y-132705874D01*
X143535000Y-132539801D01*
X144947682Y-131127119D01*
X145603000Y-131127119D01*
X145603000Y-131682881D01*
X145815680Y-132196337D01*
X146208663Y-132589320D01*
X146722119Y-132802000D01*
X147277881Y-132802000D01*
X147791337Y-132589320D01*
X148184320Y-132196337D01*
X148397000Y-131682881D01*
X148397000Y-131127119D01*
X148184320Y-130613663D01*
X147791337Y-130220680D01*
X147277881Y-130008000D01*
X146722119Y-130008000D01*
X146208663Y-130220680D01*
X145815680Y-130613663D01*
X145603000Y-131127119D01*
X144947682Y-131127119D01*
X147082802Y-128992000D01*
X147277881Y-128992000D01*
X147791337Y-128779320D01*
X148184320Y-128386337D01*
X148397000Y-127872881D01*
X148397000Y-127317119D01*
X148184320Y-126803663D01*
X147791337Y-126410680D01*
X147277881Y-126198000D01*
X146722119Y-126198000D01*
X146208663Y-126410680D01*
X145815680Y-126803663D01*
X145603000Y-127317119D01*
X145603000Y-127872881D01*
X145734602Y-128190596D01*
X142460199Y-131465000D01*
X142294126Y-131465000D01*
X141913720Y-131622569D01*
X141622569Y-131913720D01*
X141465000Y-132294126D01*
X140335000Y-132294126D01*
X140335000Y-122628711D01*
X140377431Y-122586280D01*
X140535000Y-122205874D01*
X140535000Y-121794126D01*
X140377431Y-121413720D01*
X140335000Y-121371289D01*
X140335000Y-121294126D01*
X141465000Y-121294126D01*
X141465000Y-121705874D01*
X141622569Y-122086280D01*
X141913720Y-122377431D01*
X142294126Y-122535000D01*
X142705874Y-122535000D01*
X143086280Y-122377431D01*
X143377431Y-122086280D01*
X143535000Y-121705874D01*
X143535000Y-121539801D01*
X144947682Y-120127119D01*
X145603000Y-120127119D01*
X145603000Y-120682881D01*
X145815680Y-121196337D01*
X146208663Y-121589320D01*
X146722119Y-121802000D01*
X147277881Y-121802000D01*
X147791337Y-121589320D01*
X148184320Y-121196337D01*
X148397000Y-120682881D01*
X148397000Y-120127119D01*
X148184320Y-119613663D01*
X147791337Y-119220680D01*
X147277881Y-119008000D01*
X146722119Y-119008000D01*
X146208663Y-119220680D01*
X145815680Y-119613663D01*
X145603000Y-120127119D01*
X144947682Y-120127119D01*
X147082802Y-117992000D01*
X147277881Y-117992000D01*
X147791337Y-117779320D01*
X148184320Y-117386337D01*
X148397000Y-116872881D01*
X148397000Y-116317119D01*
X148184320Y-115803663D01*
X147791337Y-115410680D01*
X147277881Y-115198000D01*
X146722119Y-115198000D01*
X146208663Y-115410680D01*
X145815680Y-115803663D01*
X145603000Y-116317119D01*
X145603000Y-116872881D01*
X145734602Y-117190596D01*
X142460199Y-120465000D01*
X142294126Y-120465000D01*
X141913720Y-120622569D01*
X141622569Y-120913720D01*
X141465000Y-121294126D01*
X140335000Y-121294126D01*
X140335000Y-111628711D01*
X140377431Y-111586280D01*
X140535000Y-111205874D01*
X140535000Y-110794126D01*
X140377431Y-110413720D01*
X140335000Y-110371289D01*
X140335000Y-110294126D01*
X141465000Y-110294126D01*
X141465000Y-110705874D01*
X141622569Y-111086280D01*
X141913720Y-111377431D01*
X142294126Y-111535000D01*
X142705874Y-111535000D01*
X143086280Y-111377431D01*
X143377431Y-111086280D01*
X143535000Y-110705874D01*
X143535000Y-110539801D01*
X144947682Y-109127119D01*
X145603000Y-109127119D01*
X145603000Y-109682881D01*
X145815680Y-110196337D01*
X146208663Y-110589320D01*
X146722119Y-110802000D01*
X147277881Y-110802000D01*
X147791337Y-110589320D01*
X148184320Y-110196337D01*
X148397000Y-109682881D01*
X148397000Y-109127119D01*
X148184320Y-108613663D01*
X147791337Y-108220680D01*
X147277881Y-108008000D01*
X146722119Y-108008000D01*
X146208663Y-108220680D01*
X145815680Y-108613663D01*
X145603000Y-109127119D01*
X144947682Y-109127119D01*
X147082802Y-106992000D01*
X147277881Y-106992000D01*
X147791337Y-106779320D01*
X148184320Y-106386337D01*
X148397000Y-105872881D01*
X148397000Y-105317119D01*
X148184320Y-104803663D01*
X147791337Y-104410680D01*
X147277881Y-104198000D01*
X146722119Y-104198000D01*
X146208663Y-104410680D01*
X145815680Y-104803663D01*
X145603000Y-105317119D01*
X145603000Y-105872881D01*
X145734602Y-106190596D01*
X142460199Y-109465000D01*
X142294126Y-109465000D01*
X141913720Y-109622569D01*
X141622569Y-109913720D01*
X141465000Y-110294126D01*
X140335000Y-110294126D01*
X140335000Y-100628711D01*
X140377431Y-100586280D01*
X140535000Y-100205874D01*
X140535000Y-99794126D01*
X140377431Y-99413720D01*
X140257837Y-99294126D01*
X141465000Y-99294126D01*
X141465000Y-99705874D01*
X141622569Y-100086280D01*
X141913720Y-100377431D01*
X142294126Y-100535000D01*
X142705874Y-100535000D01*
X143086280Y-100377431D01*
X143377431Y-100086280D01*
X143535000Y-99705874D01*
X143535000Y-99539801D01*
X144947682Y-98127119D01*
X145603000Y-98127119D01*
X145603000Y-98682881D01*
X145815680Y-99196337D01*
X146208663Y-99589320D01*
X146722119Y-99802000D01*
X147277881Y-99802000D01*
X147791337Y-99589320D01*
X148184320Y-99196337D01*
X148397000Y-98682881D01*
X148397000Y-98127119D01*
X148184320Y-97613663D01*
X147791337Y-97220680D01*
X147277881Y-97008000D01*
X146722119Y-97008000D01*
X146208663Y-97220680D01*
X145815680Y-97613663D01*
X145603000Y-98127119D01*
X144947682Y-98127119D01*
X147082802Y-95992000D01*
X147277881Y-95992000D01*
X147791337Y-95779320D01*
X148184320Y-95386337D01*
X148397000Y-94872881D01*
X148397000Y-94317119D01*
X148184320Y-93803663D01*
X147791337Y-93410680D01*
X147277881Y-93198000D01*
X146722119Y-93198000D01*
X146208663Y-93410680D01*
X145815680Y-93803663D01*
X145603000Y-94317119D01*
X145603000Y-94872881D01*
X145734602Y-95190596D01*
X142460199Y-98465000D01*
X142294126Y-98465000D01*
X141913720Y-98622569D01*
X141622569Y-98913720D01*
X141465000Y-99294126D01*
X140257837Y-99294126D01*
X140086280Y-99122569D01*
X139705874Y-98965000D01*
X139294126Y-98965000D01*
X138913720Y-99122569D01*
X138622569Y-99413720D01*
X138465000Y-99794126D01*
X129535000Y-99794126D01*
X129535000Y-97128711D01*
X129577431Y-97086280D01*
X129735000Y-96705874D01*
X129735000Y-96294126D01*
X129577431Y-95913720D01*
X129535000Y-95871289D01*
X129535000Y-94128711D01*
X129577431Y-94086280D01*
X129735000Y-93705874D01*
X129735000Y-93294126D01*
X129577431Y-92913720D01*
X129286280Y-92622569D01*
X129146529Y-92564682D01*
X129951212Y-91760000D01*
X136945654Y-91760000D01*
X137020501Y-91774888D01*
X137095348Y-91760000D01*
X137095353Y-91760000D01*
X137317038Y-91715904D01*
X137568430Y-91547929D01*
X137610832Y-91484470D01*
X137894470Y-91200832D01*
X137957929Y-91158430D01*
X138089033Y-90962220D01*
X138125904Y-90907039D01*
X138147884Y-90796537D01*
X138148210Y-90794900D01*
X138417180Y-90615180D01*
X138680000Y-90221842D01*
X138942821Y-90615180D01*
X139404919Y-90923944D01*
X139950000Y-91032368D01*
X140495082Y-90923944D01*
X140957180Y-90615180D01*
X141220000Y-90221842D01*
X141482821Y-90615180D01*
X141944919Y-90923944D01*
X142490000Y-91032368D01*
X143035082Y-90923944D01*
X143497180Y-90615180D01*
X143760000Y-90221842D01*
X144022821Y-90615180D01*
X144484919Y-90923944D01*
X145030000Y-91032368D01*
X145575082Y-90923944D01*
X146037180Y-90615180D01*
X146300000Y-90221842D01*
X146562821Y-90615180D01*
X147024919Y-90923944D01*
X147570000Y-91032368D01*
X148115082Y-90923944D01*
X148577180Y-90615180D01*
X148840000Y-90221842D01*
X149102821Y-90615180D01*
X149564919Y-90923944D01*
X150110000Y-91032368D01*
X150655082Y-90923944D01*
X151117180Y-90615180D01*
X151380000Y-90221842D01*
X151642821Y-90615180D01*
X152104919Y-90923944D01*
X152650000Y-91032368D01*
X153195082Y-90923944D01*
X153657180Y-90615180D01*
X153965944Y-90153082D01*
X154047000Y-89745588D01*
X154047000Y-88454412D01*
X153965944Y-88046918D01*
X153657179Y-87584820D01*
X153358876Y-87385500D01*
X153578068Y-87385500D01*
X154364501Y-88171934D01*
X154364500Y-99178698D01*
X154348328Y-99260000D01*
X154364500Y-99341301D01*
X154364500Y-99341302D01*
X154412396Y-99582093D01*
X154594848Y-99855152D01*
X154663777Y-99901209D01*
X156904500Y-102141934D01*
X156904500Y-102372594D01*
X156664765Y-102132859D01*
X155707868Y-101736500D01*
X154672132Y-101736500D01*
X153715235Y-102132859D01*
X152982859Y-102865235D01*
X152586500Y-103822132D01*
X152586500Y-104857868D01*
X152982859Y-105814765D01*
X153715235Y-106547141D01*
X154672132Y-106943500D01*
X155707868Y-106943500D01*
X156664765Y-106547141D01*
X156904500Y-106307406D01*
X156904501Y-130312595D01*
X156664765Y-130072859D01*
X155707868Y-129676500D01*
X154672132Y-129676500D01*
X153715235Y-130072859D01*
X152982859Y-130805235D01*
X152586500Y-131762132D01*
X152586500Y-132797868D01*
X152982859Y-133754765D01*
X153715235Y-134487141D01*
X154672132Y-134883500D01*
X155707868Y-134883500D01*
X156664765Y-134487141D01*
X156904501Y-134247405D01*
X156904501Y-134478065D01*
X154663777Y-136718791D01*
X154594848Y-136764848D01*
X154412396Y-137037907D01*
X154364500Y-137278697D01*
X154348328Y-137360000D01*
X154364500Y-137441302D01*
X154364501Y-139074500D01*
X153358877Y-139074500D01*
X153657180Y-138875180D01*
X153965944Y-138413082D01*
X154047000Y-138005588D01*
X154047000Y-136714412D01*
X153965944Y-136306918D01*
X153657179Y-135844820D01*
X153195081Y-135536056D01*
X152650000Y-135427632D01*
X152104918Y-135536056D01*
X151642820Y-135844821D01*
X151380000Y-136238159D01*
X151117179Y-135844820D01*
X150655081Y-135536056D01*
X150110000Y-135427632D01*
X149564918Y-135536056D01*
X149102820Y-135844821D01*
X148840000Y-136238159D01*
X148577179Y-135844820D01*
X148115081Y-135536056D01*
X147570000Y-135427632D01*
X147024918Y-135536056D01*
X146562820Y-135844821D01*
X146300000Y-136238159D01*
X146037179Y-135844820D01*
X145575081Y-135536056D01*
X145030000Y-135427632D01*
X144484918Y-135536056D01*
X144022820Y-135844821D01*
X143760000Y-136238159D01*
X143497179Y-135844820D01*
X143035081Y-135536056D01*
X142490000Y-135427632D01*
X141944918Y-135536056D01*
X141482820Y-135844821D01*
X141220000Y-136238159D01*
X140957179Y-135844820D01*
X140495081Y-135536056D01*
X139950000Y-135427632D01*
X139404918Y-135536056D01*
X138942820Y-135844821D01*
X138634056Y-136306919D01*
X138553000Y-136714413D01*
X138553000Y-138005588D01*
X138634056Y-138413082D01*
X138942821Y-138875180D01*
X139241124Y-139074500D01*
X135578877Y-139074500D01*
X135877180Y-138875180D01*
X136185944Y-138413082D01*
X136267000Y-138005588D01*
X136267000Y-136714412D01*
X136185944Y-136306918D01*
X135877179Y-135844820D01*
X135415081Y-135536056D01*
X134870000Y-135427632D01*
X134324918Y-135536056D01*
X133862820Y-135844821D01*
X133588420Y-136255490D01*
X133572059Y-136200059D01*
X133228026Y-135774370D01*
X132747277Y-135512740D01*
X132673070Y-135497780D01*
X132457000Y-135620280D01*
X132457000Y-137233000D01*
X132477000Y-137233000D01*
X132477000Y-137487000D01*
X132457000Y-137487000D01*
X132457000Y-137507000D01*
X132203000Y-137507000D01*
X132203000Y-137487000D01*
X129917000Y-137487000D01*
X129917000Y-137507000D01*
X129663000Y-137507000D01*
X129663000Y-137487000D01*
X129643000Y-137487000D01*
X129643000Y-137233000D01*
X129663000Y-137233000D01*
X129663000Y-135620280D01*
X129917000Y-135620280D01*
X129917000Y-137233000D01*
X132203000Y-137233000D01*
X132203000Y-135620280D01*
X131986930Y-135497780D01*
X131912723Y-135512740D01*
X131431974Y-135774370D01*
X131087941Y-136200059D01*
X131060000Y-136294723D01*
X131032059Y-136200059D01*
X130688026Y-135774370D01*
X130207277Y-135512740D01*
X130133070Y-135497780D01*
X129917000Y-135620280D01*
X129663000Y-135620280D01*
X129446930Y-135497780D01*
X129372723Y-135512740D01*
X128891974Y-135774370D01*
X128547941Y-136200059D01*
X128531580Y-136255489D01*
X128257179Y-135844820D01*
X127795081Y-135536056D01*
X127250000Y-135427632D01*
X127054823Y-135466455D01*
X115036086Y-123447720D01*
X114989500Y-123377999D01*
X114713300Y-123193448D01*
X114469736Y-123145000D01*
X114469732Y-123145000D01*
X114387499Y-123128643D01*
X114305266Y-123145000D01*
X106228065Y-123145000D01*
X106070625Y-122909375D01*
X105772239Y-122710000D01*
X106070625Y-122510625D01*
X106398839Y-122019418D01*
X106514092Y-121440000D01*
X106398839Y-120860582D01*
X106070625Y-120369375D01*
X106052381Y-120357184D01*
X106097765Y-120348157D01*
X106307809Y-120207809D01*
X106448157Y-119997765D01*
X106497440Y-119750000D01*
X106497440Y-118050000D01*
X106448157Y-117802235D01*
X106307809Y-117592191D01*
X106097765Y-117451843D01*
X105850000Y-117402560D01*
X104150000Y-117402560D01*
X103902235Y-117451843D01*
X103692191Y-117592191D01*
X103551843Y-117802235D01*
X103502560Y-118050000D01*
X103502560Y-119750000D01*
X103551843Y-119997765D01*
X103692191Y-120207809D01*
X103902235Y-120348157D01*
X103947619Y-120357184D01*
X103929375Y-120369375D01*
X103601161Y-120860582D01*
X103485908Y-121440000D01*
X103601161Y-122019418D01*
X103929375Y-122510625D01*
X104227761Y-122710000D01*
X103929375Y-122909375D01*
X103601161Y-123400582D01*
X103485908Y-123980000D01*
X103601161Y-124559418D01*
X103929375Y-125050625D01*
X104420582Y-125378839D01*
X104853744Y-125465000D01*
X105146256Y-125465000D01*
X105579418Y-125378839D01*
X106070625Y-125050625D01*
X106228065Y-124815000D01*
X114041632Y-124815000D01*
X124663510Y-135436880D01*
X124164918Y-135536056D01*
X123702820Y-135844821D01*
X123440000Y-136238159D01*
X123177179Y-135844820D01*
X122715081Y-135536056D01*
X122170000Y-135427632D01*
X121624918Y-135536056D01*
X121162820Y-135844821D01*
X120900000Y-136238159D01*
X120637179Y-135844820D01*
X120175081Y-135536056D01*
X119630000Y-135427632D01*
X119084918Y-135536056D01*
X118622820Y-135844821D01*
X118360000Y-136238159D01*
X118097179Y-135844820D01*
X117635081Y-135536056D01*
X117090000Y-135427632D01*
X116544918Y-135536056D01*
X116082820Y-135844821D01*
X115774056Y-136306919D01*
X115693000Y-136714413D01*
X115693000Y-138005588D01*
X115774056Y-138413082D01*
X116082821Y-138875180D01*
X116381124Y-139074500D01*
X105087406Y-139074500D01*
X105327141Y-138834765D01*
X105723500Y-137877868D01*
X105723500Y-136842132D01*
X105327141Y-135885235D01*
X104594765Y-135152859D01*
X103637868Y-134756500D01*
X102602132Y-134756500D01*
X101645235Y-135152859D01*
X100912859Y-135885235D01*
X100516500Y-136842132D01*
X100516500Y-137877868D01*
X100912859Y-138834765D01*
X101152594Y-139074500D01*
X89975500Y-139074500D01*
X89975500Y-138299321D01*
X90309336Y-138421458D01*
X90919460Y-138395839D01*
X91364148Y-138211643D01*
X91450554Y-137955159D01*
X91372927Y-137877532D01*
X93377073Y-137877532D01*
X93475736Y-138144387D01*
X94085461Y-138370908D01*
X94735460Y-138346856D01*
X95224264Y-138144387D01*
X95322927Y-137877532D01*
X94350000Y-136904605D01*
X93377073Y-137877532D01*
X91372927Y-137877532D01*
X90550000Y-137054605D01*
X90535858Y-137068748D01*
X90356253Y-136889143D01*
X90370395Y-136875000D01*
X90729605Y-136875000D01*
X91630159Y-137775554D01*
X91886643Y-137689148D01*
X92096458Y-137115664D01*
X92070839Y-136505540D01*
X91886643Y-136060852D01*
X91630159Y-135974446D01*
X90729605Y-136875000D01*
X90370395Y-136875000D01*
X90356253Y-136860858D01*
X90535858Y-136681253D01*
X90550000Y-136695395D01*
X91450554Y-135794841D01*
X91364148Y-135538357D01*
X90790664Y-135328542D01*
X90180540Y-135354161D01*
X89975500Y-135439091D01*
X89975500Y-135294126D01*
X92265000Y-135294126D01*
X92265000Y-135705874D01*
X92422569Y-136086280D01*
X92713720Y-136377431D01*
X92732109Y-136385048D01*
X92704092Y-136460461D01*
X92728144Y-137110460D01*
X92930613Y-137599264D01*
X93197468Y-137697927D01*
X94170395Y-136725000D01*
X94529605Y-136725000D01*
X95502532Y-137697927D01*
X95769387Y-137599264D01*
X95995908Y-136989539D01*
X95971856Y-136339540D01*
X95769387Y-135850736D01*
X95502532Y-135752073D01*
X94529605Y-136725000D01*
X94170395Y-136725000D01*
X94156253Y-136710858D01*
X94335858Y-136531253D01*
X94350000Y-136545395D01*
X95322927Y-135572468D01*
X95224264Y-135305613D01*
X94614539Y-135079092D01*
X94251495Y-135092526D01*
X94177431Y-134913720D01*
X93886280Y-134622569D01*
X93505874Y-134465000D01*
X93094126Y-134465000D01*
X92713720Y-134622569D01*
X92422569Y-134913720D01*
X92265000Y-135294126D01*
X89975500Y-135294126D01*
X89975500Y-130549321D01*
X90309336Y-130671458D01*
X90919460Y-130645839D01*
X91364148Y-130461643D01*
X91420582Y-130294126D01*
X92265000Y-130294126D01*
X92265000Y-130705874D01*
X92422569Y-131086280D01*
X92713720Y-131377431D01*
X93094126Y-131535000D01*
X93505874Y-131535000D01*
X93886280Y-131377431D01*
X94177431Y-131086280D01*
X94248428Y-130914878D01*
X94735460Y-130896856D01*
X95224264Y-130694387D01*
X95322927Y-130427532D01*
X94350000Y-129454605D01*
X94335858Y-129468748D01*
X94156253Y-129289143D01*
X94170395Y-129275000D01*
X94529605Y-129275000D01*
X95502532Y-130247927D01*
X95769387Y-130149264D01*
X95995908Y-129539539D01*
X95971856Y-128889540D01*
X95769387Y-128400736D01*
X95502532Y-128302073D01*
X94529605Y-129275000D01*
X94170395Y-129275000D01*
X93197468Y-128302073D01*
X92930613Y-128400736D01*
X92704092Y-129010461D01*
X92726545Y-129617257D01*
X92713720Y-129622569D01*
X92422569Y-129913720D01*
X92265000Y-130294126D01*
X91420582Y-130294126D01*
X91450554Y-130205159D01*
X90550000Y-129304605D01*
X90535858Y-129318748D01*
X90356253Y-129139143D01*
X90370395Y-129125000D01*
X90729605Y-129125000D01*
X91630159Y-130025554D01*
X91886643Y-129939148D01*
X92096458Y-129365664D01*
X92070839Y-128755540D01*
X91886643Y-128310852D01*
X91630159Y-128224446D01*
X90729605Y-129125000D01*
X90370395Y-129125000D01*
X90356253Y-129110858D01*
X90535858Y-128931253D01*
X90550000Y-128945395D01*
X91450554Y-128044841D01*
X91364148Y-127788357D01*
X90790664Y-127578542D01*
X90180540Y-127604161D01*
X89975500Y-127689091D01*
X89975500Y-124875866D01*
X93265000Y-124875866D01*
X93265000Y-125924134D01*
X93666155Y-126892608D01*
X94407392Y-127633845D01*
X94413846Y-127636518D01*
X93964540Y-127653144D01*
X93475736Y-127855613D01*
X93377073Y-128122468D01*
X94350000Y-129095395D01*
X95322927Y-128122468D01*
X95275166Y-127993289D01*
X95375866Y-128035000D01*
X96424134Y-128035000D01*
X97392608Y-127633845D01*
X98133845Y-126892608D01*
X98535000Y-125924134D01*
X98535000Y-124875866D01*
X98133845Y-123907392D01*
X97392608Y-123166155D01*
X96424134Y-122765000D01*
X95375866Y-122765000D01*
X94407392Y-123166155D01*
X93666155Y-123907392D01*
X93265000Y-124875866D01*
X89975500Y-124875866D01*
X89975500Y-122475022D01*
X91404584Y-122475022D01*
X91625353Y-122845743D01*
X92597012Y-123239119D01*
X93645247Y-123230713D01*
X94574647Y-122845743D01*
X94795416Y-122475022D01*
X93100000Y-120779605D01*
X91404584Y-122475022D01*
X89975500Y-122475022D01*
X89975500Y-120097012D01*
X90460881Y-120097012D01*
X90469287Y-121145247D01*
X90854257Y-122074647D01*
X91224978Y-122295416D01*
X92920395Y-120600000D01*
X93279605Y-120600000D01*
X94975022Y-122295416D01*
X95345743Y-122074647D01*
X95739119Y-121102988D01*
X95730713Y-120054753D01*
X95722980Y-120036083D01*
X96065000Y-120036083D01*
X96065000Y-121163917D01*
X96496603Y-122205899D01*
X97294101Y-123003397D01*
X98336083Y-123435000D01*
X99463917Y-123435000D01*
X100505899Y-123003397D01*
X101303397Y-122205899D01*
X101735000Y-121163917D01*
X101735000Y-120036083D01*
X101303397Y-118994101D01*
X100505899Y-118196603D01*
X99463917Y-117765000D01*
X98336083Y-117765000D01*
X97294101Y-118196603D01*
X96496603Y-118994101D01*
X96065000Y-120036083D01*
X95722980Y-120036083D01*
X95345743Y-119125353D01*
X94975022Y-118904584D01*
X93279605Y-120600000D01*
X92920395Y-120600000D01*
X91224978Y-118904584D01*
X90854257Y-119125353D01*
X90460881Y-120097012D01*
X89975500Y-120097012D01*
X89975500Y-118724978D01*
X91404584Y-118724978D01*
X93100000Y-120420395D01*
X94795416Y-118724978D01*
X94574647Y-118354257D01*
X93602988Y-117960881D01*
X92554753Y-117969287D01*
X91625353Y-118354257D01*
X91404584Y-118724978D01*
X89975500Y-118724978D01*
X89975500Y-110656426D01*
X90211593Y-110745323D01*
X90901453Y-110722836D01*
X91434359Y-110502099D01*
X91545263Y-110224868D01*
X90500000Y-109179605D01*
X90485858Y-109193748D01*
X90306253Y-109014143D01*
X90320395Y-109000000D01*
X90679605Y-109000000D01*
X91724868Y-110045263D01*
X92002099Y-109934359D01*
X92245323Y-109288407D01*
X92222836Y-108598547D01*
X92002099Y-108065641D01*
X91724868Y-107954737D01*
X90679605Y-109000000D01*
X90320395Y-109000000D01*
X90306253Y-108985858D01*
X90485858Y-108806253D01*
X90500000Y-108820395D01*
X91545263Y-107775132D01*
X91434359Y-107497901D01*
X90788407Y-107254677D01*
X90098547Y-107277164D01*
X89975500Y-107328132D01*
X89975500Y-97656426D01*
X90211593Y-97745323D01*
X90901453Y-97722836D01*
X91434359Y-97502099D01*
X91545263Y-97224868D01*
X90500000Y-96179605D01*
X90485858Y-96193748D01*
X90306253Y-96014143D01*
X90320395Y-96000000D01*
X90679605Y-96000000D01*
X91724868Y-97045263D01*
X92002099Y-96934359D01*
X92245323Y-96288407D01*
X92222836Y-95598547D01*
X92002099Y-95065641D01*
X91724868Y-94954737D01*
X90679605Y-96000000D01*
X90320395Y-96000000D01*
X90306253Y-95985858D01*
X90485858Y-95806253D01*
X90500000Y-95820395D01*
X91545263Y-94775132D01*
X91434359Y-94497901D01*
X90788407Y-94254677D01*
X90098547Y-94277164D01*
X89975500Y-94328132D01*
X89975500Y-87385500D01*
X102422594Y-87385500D01*
X102182859Y-87625235D01*
X102182859Y-87625235D01*
G37*
X102182859Y-87625235D02*
X101786500Y-88582132D01*
X101786500Y-89617868D01*
X102182859Y-90574765D01*
X102915235Y-91307141D01*
X103872132Y-91703500D01*
X104907868Y-91703500D01*
X105864765Y-91307141D01*
X106597141Y-90574765D01*
X106847640Y-89970006D01*
X106884056Y-90153082D01*
X107192821Y-90615180D01*
X107654919Y-90923944D01*
X108200000Y-91032368D01*
X108745082Y-90923944D01*
X109207180Y-90615180D01*
X109470000Y-90221842D01*
X109732821Y-90615180D01*
X110194919Y-90923944D01*
X110740000Y-91032368D01*
X111285082Y-90923944D01*
X111747180Y-90615180D01*
X111883000Y-90411911D01*
X112018821Y-90615180D01*
X112480919Y-90923944D01*
X113026000Y-91032368D01*
X113571082Y-90923944D01*
X114033180Y-90615180D01*
X114307580Y-90204511D01*
X114323941Y-90259941D01*
X114667974Y-90685630D01*
X115148723Y-90947260D01*
X115222930Y-90962220D01*
X115439000Y-90839720D01*
X115439000Y-89227000D01*
X115419000Y-89227000D01*
X115419000Y-88973000D01*
X115439000Y-88973000D01*
X115439000Y-88953000D01*
X115693000Y-88953000D01*
X115693000Y-88973000D01*
X115713000Y-88973000D01*
X115713000Y-89227000D01*
X115693000Y-89227000D01*
X115693000Y-90839720D01*
X115909070Y-90962220D01*
X115983277Y-90947260D01*
X116464026Y-90685630D01*
X116808059Y-90259941D01*
X116824420Y-90204511D01*
X117098821Y-90615180D01*
X117560919Y-90923944D01*
X118106000Y-91032368D01*
X118651082Y-90923944D01*
X119113180Y-90615180D01*
X119376000Y-90221842D01*
X119638821Y-90615180D01*
X120100919Y-90923944D01*
X120646000Y-91032368D01*
X121191082Y-90923944D01*
X121653180Y-90615180D01*
X121916000Y-90221842D01*
X122178821Y-90615180D01*
X122640919Y-90923944D01*
X123186000Y-91032368D01*
X123485493Y-90972795D01*
X125204304Y-92691607D01*
X124772106Y-92870629D01*
X124442735Y-93200000D01*
X101674802Y-93200000D01*
X100028069Y-91553268D01*
X100135000Y-91295113D01*
X100135000Y-90604887D01*
X99870862Y-89967201D01*
X99382799Y-89479138D01*
X98745113Y-89215000D01*
X98054887Y-89215000D01*
X97417201Y-89479138D01*
X96929138Y-89967201D01*
X96665000Y-90604887D01*
X96665000Y-91295113D01*
X96797501Y-91615000D01*
X96654887Y-91615000D01*
X96017201Y-91879138D01*
X95529138Y-92367201D01*
X95265000Y-93004887D01*
X95265000Y-93695113D01*
X95529138Y-94332799D01*
X96017201Y-94820862D01*
X96654887Y-95085000D01*
X97345113Y-95085000D01*
X97982799Y-94820862D01*
X98470862Y-94332799D01*
X98735000Y-93695113D01*
X98735000Y-93004887D01*
X98602499Y-92685000D01*
X98745113Y-92685000D01*
X98932557Y-92607358D01*
X100769671Y-94444473D01*
X100812071Y-94507929D01*
X101063463Y-94675904D01*
X101285148Y-94720000D01*
X101285153Y-94720000D01*
X101360000Y-94734888D01*
X101434847Y-94720000D01*
X124442735Y-94720000D01*
X124772106Y-95049371D01*
X125208185Y-95230000D01*
X124772106Y-95410629D01*
X124410629Y-95772106D01*
X124215000Y-96244398D01*
X124215000Y-96755602D01*
X124410629Y-97227894D01*
X124772106Y-97589371D01*
X125208185Y-97770000D01*
X124772106Y-97950629D01*
X124410629Y-98312106D01*
X124215000Y-98784398D01*
X124215000Y-99295602D01*
X124410629Y-99767894D01*
X124772106Y-100129371D01*
X125244398Y-100325000D01*
X125755602Y-100325000D01*
X126165011Y-100155418D01*
X126165012Y-103844582D01*
X125755602Y-103675000D01*
X125289803Y-103675000D01*
X121630331Y-100015530D01*
X121587929Y-99952071D01*
X121336537Y-99784096D01*
X121114852Y-99740000D01*
X121114847Y-99740000D01*
X121040000Y-99725112D01*
X120965153Y-99740000D01*
X103335000Y-99740000D01*
X103335000Y-99654887D01*
X103070862Y-99017201D01*
X102582799Y-98529138D01*
X101945113Y-98265000D01*
X101254887Y-98265000D01*
X100617201Y-98529138D01*
X100129138Y-99017201D01*
X99865000Y-99654887D01*
X99865000Y-99740000D01*
X95442438Y-99740000D01*
X95370862Y-99567201D01*
X94882799Y-99079138D01*
X94245113Y-98815000D01*
X93554887Y-98815000D01*
X92917201Y-99079138D01*
X92429138Y-99567201D01*
X92165000Y-100204887D01*
X92165000Y-100895113D01*
X92429138Y-101532799D01*
X92917201Y-102020862D01*
X93554887Y-102285000D01*
X94245113Y-102285000D01*
X94882799Y-102020862D01*
X95370862Y-101532799D01*
X95483859Y-101260000D01*
X100406339Y-101260000D01*
X100617201Y-101470862D01*
X101254887Y-101735000D01*
X101945113Y-101735000D01*
X102582799Y-101470862D01*
X102793661Y-101260000D01*
X120725199Y-101260000D01*
X124215000Y-104749803D01*
X124215000Y-105215602D01*
X124410629Y-105687894D01*
X124772106Y-106049371D01*
X125208185Y-106230000D01*
X124772106Y-106410629D01*
X124410629Y-106772106D01*
X124215000Y-107244398D01*
X124215000Y-107755602D01*
X124410629Y-108227894D01*
X124772106Y-108589371D01*
X125208185Y-108770000D01*
X124772106Y-108950629D01*
X124410629Y-109312106D01*
X124215000Y-109784398D01*
X124215000Y-110295602D01*
X124410629Y-110767894D01*
X124772106Y-111129371D01*
X125244398Y-111325000D01*
X125755602Y-111325000D01*
X126227894Y-111129371D01*
X126589371Y-110767894D01*
X126615022Y-110705968D01*
X126615022Y-115294033D01*
X126589371Y-115232106D01*
X126227894Y-114870629D01*
X125755602Y-114675000D01*
X125289802Y-114675000D01*
X113630331Y-103015530D01*
X113587929Y-102952071D01*
X113336537Y-102784096D01*
X113114852Y-102740000D01*
X113114847Y-102740000D01*
X113040000Y-102725112D01*
X112965153Y-102740000D01*
X99643661Y-102740000D01*
X99382799Y-102479138D01*
X98745113Y-102215000D01*
X98054887Y-102215000D01*
X97417201Y-102479138D01*
X96929138Y-102967201D01*
X96665000Y-103604887D01*
X96665000Y-104295113D01*
X96797501Y-104615000D01*
X96654887Y-104615000D01*
X96017201Y-104879138D01*
X95529138Y-105367201D01*
X95265000Y-106004887D01*
X95265000Y-106695113D01*
X95529138Y-107332799D01*
X96017201Y-107820862D01*
X96654887Y-108085000D01*
X97345113Y-108085000D01*
X97982799Y-107820862D01*
X98470862Y-107332799D01*
X98735000Y-106695113D01*
X98735000Y-106004887D01*
X98602499Y-105685000D01*
X98745113Y-105685000D01*
X99382799Y-105420862D01*
X99870862Y-104932799D01*
X100135000Y-104295113D01*
X100135000Y-104260000D01*
X112725199Y-104260000D01*
X124215000Y-115749802D01*
X124215000Y-116215602D01*
X124410629Y-116687894D01*
X124772106Y-117049371D01*
X125208185Y-117230000D01*
X124772106Y-117410629D01*
X124410629Y-117772106D01*
X124215000Y-118244398D01*
X124215000Y-118755602D01*
X124410629Y-119227894D01*
X124772106Y-119589371D01*
X125208185Y-119770000D01*
X124772106Y-119950629D01*
X124410629Y-120312106D01*
X124215000Y-120784398D01*
X124215000Y-121295602D01*
X124410629Y-121767894D01*
X124772106Y-122129371D01*
X125244398Y-122325000D01*
X125755602Y-122325000D01*
X126227894Y-122129371D01*
X126589371Y-121767894D01*
X126785000Y-121295602D01*
X126785000Y-120829801D01*
X127065032Y-120549770D01*
X127065032Y-129400167D01*
X127055530Y-129409669D01*
X127055527Y-129409671D01*
X126785000Y-129680198D01*
X126785000Y-129244398D01*
X126589371Y-128772106D01*
X126227894Y-128410629D01*
X125791815Y-128230000D01*
X126227894Y-128049371D01*
X126589371Y-127687894D01*
X126785000Y-127215602D01*
X126785000Y-126704398D01*
X126589371Y-126232106D01*
X126227894Y-125870629D01*
X125755602Y-125675000D01*
X125289802Y-125675000D01*
X112630331Y-113015530D01*
X112587929Y-112952071D01*
X112336537Y-112784096D01*
X112114852Y-112740000D01*
X112114847Y-112740000D01*
X112040000Y-112725112D01*
X111965153Y-112740000D01*
X103335000Y-112740000D01*
X103335000Y-112654887D01*
X103070862Y-112017201D01*
X102582799Y-111529138D01*
X101945113Y-111265000D01*
X101254887Y-111265000D01*
X100617201Y-111529138D01*
X100129138Y-112017201D01*
X99865000Y-112654887D01*
X99865000Y-112740000D01*
X95442438Y-112740000D01*
X95370862Y-112567201D01*
X94882799Y-112079138D01*
X94245113Y-111815000D01*
X93554887Y-111815000D01*
X92917201Y-112079138D01*
X92429138Y-112567201D01*
X92165000Y-113204887D01*
X92165000Y-113895113D01*
X92429138Y-114532799D01*
X92917201Y-115020862D01*
X93554887Y-115285000D01*
X94245113Y-115285000D01*
X94882799Y-115020862D01*
X95370862Y-114532799D01*
X95483859Y-114260000D01*
X100406339Y-114260000D01*
X100617201Y-114470862D01*
X101254887Y-114735000D01*
X101945113Y-114735000D01*
X102582799Y-114470862D01*
X102793661Y-114260000D01*
X111725199Y-114260000D01*
X124215000Y-126749802D01*
X124215000Y-127215602D01*
X124410629Y-127687894D01*
X124772106Y-128049371D01*
X125208185Y-128230000D01*
X124772106Y-128410629D01*
X124410629Y-128772106D01*
X124215000Y-129244398D01*
X124215000Y-129755602D01*
X124410629Y-130227894D01*
X124772106Y-130589371D01*
X125208185Y-130770000D01*
X124772106Y-130950629D01*
X124410629Y-131312106D01*
X124215000Y-131784398D01*
X124215000Y-132295602D01*
X124410629Y-132767894D01*
X124772106Y-133129371D01*
X125244398Y-133325000D01*
X125755602Y-133325000D01*
X126227894Y-133129371D01*
X126589371Y-132767894D01*
X126785000Y-132295602D01*
X126785000Y-131829801D01*
X127865001Y-130749801D01*
X127865000Y-133771289D01*
X127822569Y-133813720D01*
X127665000Y-134194126D01*
X127665000Y-134605874D01*
X127822569Y-134986280D01*
X128113720Y-135277431D01*
X128494126Y-135435000D01*
X128905874Y-135435000D01*
X129286280Y-135277431D01*
X129577431Y-134986280D01*
X129735000Y-134605874D01*
X129735000Y-134194126D01*
X129577431Y-133813720D01*
X129535000Y-133771289D01*
X129535000Y-130128711D01*
X129577431Y-130086280D01*
X129735000Y-129705874D01*
X129735000Y-129294126D01*
X129577431Y-128913720D01*
X129535000Y-128871289D01*
X129535000Y-127128711D01*
X129577431Y-127086280D01*
X129735000Y-126705874D01*
X129735000Y-126294126D01*
X129577431Y-125913720D01*
X129535000Y-125871289D01*
X129535000Y-119128711D01*
X129577431Y-119086280D01*
X129735000Y-118705874D01*
X129735000Y-118294126D01*
X129577431Y-117913720D01*
X129535000Y-117871289D01*
X129535000Y-116128711D01*
X129577431Y-116086280D01*
X129735000Y-115705874D01*
X129735000Y-115294126D01*
X129577431Y-114913720D01*
X129535000Y-114871289D01*
X129535000Y-108128711D01*
X129577431Y-108086280D01*
X129735000Y-107705874D01*
X129735000Y-107294126D01*
X129577431Y-106913720D01*
X129535000Y-106871289D01*
X129535000Y-105128711D01*
X129577431Y-105086280D01*
X129735000Y-104705874D01*
X129735000Y-104294126D01*
X129577431Y-103913720D01*
X129535000Y-103871289D01*
X129535000Y-99794126D01*
X138465000Y-99794126D01*
X138465000Y-100205874D01*
X138622569Y-100586280D01*
X138665001Y-100628712D01*
X138665000Y-110371289D01*
X138622569Y-110413720D01*
X138465000Y-110794126D01*
X138465000Y-111205874D01*
X138622569Y-111586280D01*
X138665001Y-111628712D01*
X138665000Y-121371289D01*
X138622569Y-121413720D01*
X138465000Y-121794126D01*
X138465000Y-122205874D01*
X138622569Y-122586280D01*
X138665001Y-122628712D01*
X138665000Y-132371289D01*
X138622569Y-132413720D01*
X138465000Y-132794126D01*
X138465000Y-133205874D01*
X138622569Y-133586280D01*
X138665001Y-133628712D01*
X138665000Y-133771289D01*
X138622569Y-133813720D01*
X138465000Y-134194126D01*
X138465000Y-134605874D01*
X138622569Y-134986280D01*
X138913720Y-135277431D01*
X139294126Y-135435000D01*
X139705874Y-135435000D01*
X140086280Y-135277431D01*
X140377431Y-134986280D01*
X140535000Y-134605874D01*
X140535000Y-134194126D01*
X140377431Y-133813720D01*
X140335000Y-133771289D01*
X140335000Y-133628711D01*
X140377431Y-133586280D01*
X140535000Y-133205874D01*
X140535000Y-132794126D01*
X140377431Y-132413720D01*
X140335000Y-132371289D01*
X140335000Y-132294126D01*
X141465000Y-132294126D01*
X141465000Y-132705874D01*
X141622569Y-133086280D01*
X141913720Y-133377431D01*
X142294126Y-133535000D01*
X142705874Y-133535000D01*
X143086280Y-133377431D01*
X143377431Y-133086280D01*
X143535000Y-132705874D01*
X143535000Y-132539801D01*
X144947682Y-131127119D01*
X145603000Y-131127119D01*
X145603000Y-131682881D01*
X145815680Y-132196337D01*
X146208663Y-132589320D01*
X146722119Y-132802000D01*
X147277881Y-132802000D01*
X147791337Y-132589320D01*
X148184320Y-132196337D01*
X148397000Y-131682881D01*
X148397000Y-131127119D01*
X148184320Y-130613663D01*
X147791337Y-130220680D01*
X147277881Y-130008000D01*
X146722119Y-130008000D01*
X146208663Y-130220680D01*
X145815680Y-130613663D01*
X145603000Y-131127119D01*
X144947682Y-131127119D01*
X147082802Y-128992000D01*
X147277881Y-128992000D01*
X147791337Y-128779320D01*
X148184320Y-128386337D01*
X148397000Y-127872881D01*
X148397000Y-127317119D01*
X148184320Y-126803663D01*
X147791337Y-126410680D01*
X147277881Y-126198000D01*
X146722119Y-126198000D01*
X146208663Y-126410680D01*
X145815680Y-126803663D01*
X145603000Y-127317119D01*
X145603000Y-127872881D01*
X145734602Y-128190596D01*
X142460199Y-131465000D01*
X142294126Y-131465000D01*
X141913720Y-131622569D01*
X141622569Y-131913720D01*
X141465000Y-132294126D01*
X140335000Y-132294126D01*
X140335000Y-122628711D01*
X140377431Y-122586280D01*
X140535000Y-122205874D01*
X140535000Y-121794126D01*
X140377431Y-121413720D01*
X140335000Y-121371289D01*
X140335000Y-121294126D01*
X141465000Y-121294126D01*
X141465000Y-121705874D01*
X141622569Y-122086280D01*
X141913720Y-122377431D01*
X142294126Y-122535000D01*
X142705874Y-122535000D01*
X143086280Y-122377431D01*
X143377431Y-122086280D01*
X143535000Y-121705874D01*
X143535000Y-121539801D01*
X144947682Y-120127119D01*
X145603000Y-120127119D01*
X145603000Y-120682881D01*
X145815680Y-121196337D01*
X146208663Y-121589320D01*
X146722119Y-121802000D01*
X147277881Y-121802000D01*
X147791337Y-121589320D01*
X148184320Y-121196337D01*
X148397000Y-120682881D01*
X148397000Y-120127119D01*
X148184320Y-119613663D01*
X147791337Y-119220680D01*
X147277881Y-119008000D01*
X146722119Y-119008000D01*
X146208663Y-119220680D01*
X145815680Y-119613663D01*
X145603000Y-120127119D01*
X144947682Y-120127119D01*
X147082802Y-117992000D01*
X147277881Y-117992000D01*
X147791337Y-117779320D01*
X148184320Y-117386337D01*
X148397000Y-116872881D01*
X148397000Y-116317119D01*
X148184320Y-115803663D01*
X147791337Y-115410680D01*
X147277881Y-115198000D01*
X146722119Y-115198000D01*
X146208663Y-115410680D01*
X145815680Y-115803663D01*
X145603000Y-116317119D01*
X145603000Y-116872881D01*
X145734602Y-117190596D01*
X142460199Y-120465000D01*
X142294126Y-120465000D01*
X141913720Y-120622569D01*
X141622569Y-120913720D01*
X141465000Y-121294126D01*
X140335000Y-121294126D01*
X140335000Y-111628711D01*
X140377431Y-111586280D01*
X140535000Y-111205874D01*
X140535000Y-110794126D01*
X140377431Y-110413720D01*
X140335000Y-110371289D01*
X140335000Y-110294126D01*
X141465000Y-110294126D01*
X141465000Y-110705874D01*
X141622569Y-111086280D01*
X141913720Y-111377431D01*
X142294126Y-111535000D01*
X142705874Y-111535000D01*
X143086280Y-111377431D01*
X143377431Y-111086280D01*
X143535000Y-110705874D01*
X143535000Y-110539801D01*
X144947682Y-109127119D01*
X145603000Y-109127119D01*
X145603000Y-109682881D01*
X145815680Y-110196337D01*
X146208663Y-110589320D01*
X146722119Y-110802000D01*
X147277881Y-110802000D01*
X147791337Y-110589320D01*
X148184320Y-110196337D01*
X148397000Y-109682881D01*
X148397000Y-109127119D01*
X148184320Y-108613663D01*
X147791337Y-108220680D01*
X147277881Y-108008000D01*
X146722119Y-108008000D01*
X146208663Y-108220680D01*
X145815680Y-108613663D01*
X145603000Y-109127119D01*
X144947682Y-109127119D01*
X147082802Y-106992000D01*
X147277881Y-106992000D01*
X147791337Y-106779320D01*
X148184320Y-106386337D01*
X148397000Y-105872881D01*
X148397000Y-105317119D01*
X148184320Y-104803663D01*
X147791337Y-104410680D01*
X147277881Y-104198000D01*
X146722119Y-104198000D01*
X146208663Y-104410680D01*
X145815680Y-104803663D01*
X145603000Y-105317119D01*
X145603000Y-105872881D01*
X145734602Y-106190596D01*
X142460199Y-109465000D01*
X142294126Y-109465000D01*
X141913720Y-109622569D01*
X141622569Y-109913720D01*
X141465000Y-110294126D01*
X140335000Y-110294126D01*
X140335000Y-100628711D01*
X140377431Y-100586280D01*
X140535000Y-100205874D01*
X140535000Y-99794126D01*
X140377431Y-99413720D01*
X140257837Y-99294126D01*
X141465000Y-99294126D01*
X141465000Y-99705874D01*
X141622569Y-100086280D01*
X141913720Y-100377431D01*
X142294126Y-100535000D01*
X142705874Y-100535000D01*
X143086280Y-100377431D01*
X143377431Y-100086280D01*
X143535000Y-99705874D01*
X143535000Y-99539801D01*
X144947682Y-98127119D01*
X145603000Y-98127119D01*
X145603000Y-98682881D01*
X145815680Y-99196337D01*
X146208663Y-99589320D01*
X146722119Y-99802000D01*
X147277881Y-99802000D01*
X147791337Y-99589320D01*
X148184320Y-99196337D01*
X148397000Y-98682881D01*
X148397000Y-98127119D01*
X148184320Y-97613663D01*
X147791337Y-97220680D01*
X147277881Y-97008000D01*
X146722119Y-97008000D01*
X146208663Y-97220680D01*
X145815680Y-97613663D01*
X145603000Y-98127119D01*
X144947682Y-98127119D01*
X147082802Y-95992000D01*
X147277881Y-95992000D01*
X147791337Y-95779320D01*
X148184320Y-95386337D01*
X148397000Y-94872881D01*
X148397000Y-94317119D01*
X148184320Y-93803663D01*
X147791337Y-93410680D01*
X147277881Y-93198000D01*
X146722119Y-93198000D01*
X146208663Y-93410680D01*
X145815680Y-93803663D01*
X145603000Y-94317119D01*
X145603000Y-94872881D01*
X145734602Y-95190596D01*
X142460199Y-98465000D01*
X142294126Y-98465000D01*
X141913720Y-98622569D01*
X141622569Y-98913720D01*
X141465000Y-99294126D01*
X140257837Y-99294126D01*
X140086280Y-99122569D01*
X139705874Y-98965000D01*
X139294126Y-98965000D01*
X138913720Y-99122569D01*
X138622569Y-99413720D01*
X138465000Y-99794126D01*
X129535000Y-99794126D01*
X129535000Y-97128711D01*
X129577431Y-97086280D01*
X129735000Y-96705874D01*
X129735000Y-96294126D01*
X129577431Y-95913720D01*
X129535000Y-95871289D01*
X129535000Y-94128711D01*
X129577431Y-94086280D01*
X129735000Y-93705874D01*
X129735000Y-93294126D01*
X129577431Y-92913720D01*
X129286280Y-92622569D01*
X129146529Y-92564682D01*
X129951212Y-91760000D01*
X136945654Y-91760000D01*
X137020501Y-91774888D01*
X137095348Y-91760000D01*
X137095353Y-91760000D01*
X137317038Y-91715904D01*
X137568430Y-91547929D01*
X137610832Y-91484470D01*
X137894470Y-91200832D01*
X137957929Y-91158430D01*
X138089033Y-90962220D01*
X138125904Y-90907039D01*
X138147884Y-90796537D01*
X138148210Y-90794900D01*
X138417180Y-90615180D01*
X138680000Y-90221842D01*
X138942821Y-90615180D01*
X139404919Y-90923944D01*
X139950000Y-91032368D01*
X140495082Y-90923944D01*
X140957180Y-90615180D01*
X141220000Y-90221842D01*
X141482821Y-90615180D01*
X141944919Y-90923944D01*
X142490000Y-91032368D01*
X143035082Y-90923944D01*
X143497180Y-90615180D01*
X143760000Y-90221842D01*
X144022821Y-90615180D01*
X144484919Y-90923944D01*
X145030000Y-91032368D01*
X145575082Y-90923944D01*
X146037180Y-90615180D01*
X146300000Y-90221842D01*
X146562821Y-90615180D01*
X147024919Y-90923944D01*
X147570000Y-91032368D01*
X148115082Y-90923944D01*
X148577180Y-90615180D01*
X148840000Y-90221842D01*
X149102821Y-90615180D01*
X149564919Y-90923944D01*
X150110000Y-91032368D01*
X150655082Y-90923944D01*
X151117180Y-90615180D01*
X151380000Y-90221842D01*
X151642821Y-90615180D01*
X152104919Y-90923944D01*
X152650000Y-91032368D01*
X153195082Y-90923944D01*
X153657180Y-90615180D01*
X153965944Y-90153082D01*
X154047000Y-89745588D01*
X154047000Y-88454412D01*
X153965944Y-88046918D01*
X153657179Y-87584820D01*
X153358876Y-87385500D01*
X153578068Y-87385500D01*
X154364501Y-88171934D01*
X154364500Y-99178698D01*
X154348328Y-99260000D01*
X154364500Y-99341301D01*
X154364500Y-99341302D01*
X154412396Y-99582093D01*
X154594848Y-99855152D01*
X154663777Y-99901209D01*
X156904500Y-102141934D01*
X156904500Y-102372594D01*
X156664765Y-102132859D01*
X155707868Y-101736500D01*
X154672132Y-101736500D01*
X153715235Y-102132859D01*
X152982859Y-102865235D01*
X152586500Y-103822132D01*
X152586500Y-104857868D01*
X152982859Y-105814765D01*
X153715235Y-106547141D01*
X154672132Y-106943500D01*
X155707868Y-106943500D01*
X156664765Y-106547141D01*
X156904500Y-106307406D01*
X156904501Y-130312595D01*
X156664765Y-130072859D01*
X155707868Y-129676500D01*
X154672132Y-129676500D01*
X153715235Y-130072859D01*
X152982859Y-130805235D01*
X152586500Y-131762132D01*
X152586500Y-132797868D01*
X152982859Y-133754765D01*
X153715235Y-134487141D01*
X154672132Y-134883500D01*
X155707868Y-134883500D01*
X156664765Y-134487141D01*
X156904501Y-134247405D01*
X156904501Y-134478065D01*
X154663777Y-136718791D01*
X154594848Y-136764848D01*
X154412396Y-137037907D01*
X154364500Y-137278697D01*
X154348328Y-137360000D01*
X154364500Y-137441302D01*
X154364501Y-139074500D01*
X153358877Y-139074500D01*
X153657180Y-138875180D01*
X153965944Y-138413082D01*
X154047000Y-138005588D01*
X154047000Y-136714412D01*
X153965944Y-136306918D01*
X153657179Y-135844820D01*
X153195081Y-135536056D01*
X152650000Y-135427632D01*
X152104918Y-135536056D01*
X151642820Y-135844821D01*
X151380000Y-136238159D01*
X151117179Y-135844820D01*
X150655081Y-135536056D01*
X150110000Y-135427632D01*
X149564918Y-135536056D01*
X149102820Y-135844821D01*
X148840000Y-136238159D01*
X148577179Y-135844820D01*
X148115081Y-135536056D01*
X147570000Y-135427632D01*
X147024918Y-135536056D01*
X146562820Y-135844821D01*
X146300000Y-136238159D01*
X146037179Y-135844820D01*
X145575081Y-135536056D01*
X145030000Y-135427632D01*
X144484918Y-135536056D01*
X144022820Y-135844821D01*
X143760000Y-136238159D01*
X143497179Y-135844820D01*
X143035081Y-135536056D01*
X142490000Y-135427632D01*
X141944918Y-135536056D01*
X141482820Y-135844821D01*
X141220000Y-136238159D01*
X140957179Y-135844820D01*
X140495081Y-135536056D01*
X139950000Y-135427632D01*
X139404918Y-135536056D01*
X138942820Y-135844821D01*
X138634056Y-136306919D01*
X138553000Y-136714413D01*
X138553000Y-138005588D01*
X138634056Y-138413082D01*
X138942821Y-138875180D01*
X139241124Y-139074500D01*
X135578877Y-139074500D01*
X135877180Y-138875180D01*
X136185944Y-138413082D01*
X136267000Y-138005588D01*
X136267000Y-136714412D01*
X136185944Y-136306918D01*
X135877179Y-135844820D01*
X135415081Y-135536056D01*
X134870000Y-135427632D01*
X134324918Y-135536056D01*
X133862820Y-135844821D01*
X133588420Y-136255490D01*
X133572059Y-136200059D01*
X133228026Y-135774370D01*
X132747277Y-135512740D01*
X132673070Y-135497780D01*
X132457000Y-135620280D01*
X132457000Y-137233000D01*
X132477000Y-137233000D01*
X132477000Y-137487000D01*
X132457000Y-137487000D01*
X132457000Y-137507000D01*
X132203000Y-137507000D01*
X132203000Y-137487000D01*
X129917000Y-137487000D01*
X129917000Y-137507000D01*
X129663000Y-137507000D01*
X129663000Y-137487000D01*
X129643000Y-137487000D01*
X129643000Y-137233000D01*
X129663000Y-137233000D01*
X129663000Y-135620280D01*
X129917000Y-135620280D01*
X129917000Y-137233000D01*
X132203000Y-137233000D01*
X132203000Y-135620280D01*
X131986930Y-135497780D01*
X131912723Y-135512740D01*
X131431974Y-135774370D01*
X131087941Y-136200059D01*
X131060000Y-136294723D01*
X131032059Y-136200059D01*
X130688026Y-135774370D01*
X130207277Y-135512740D01*
X130133070Y-135497780D01*
X129917000Y-135620280D01*
X129663000Y-135620280D01*
X129446930Y-135497780D01*
X129372723Y-135512740D01*
X128891974Y-135774370D01*
X128547941Y-136200059D01*
X128531580Y-136255489D01*
X128257179Y-135844820D01*
X127795081Y-135536056D01*
X127250000Y-135427632D01*
X127054823Y-135466455D01*
X115036086Y-123447720D01*
X114989500Y-123377999D01*
X114713300Y-123193448D01*
X114469736Y-123145000D01*
X114469732Y-123145000D01*
X114387499Y-123128643D01*
X114305266Y-123145000D01*
X106228065Y-123145000D01*
X106070625Y-122909375D01*
X105772239Y-122710000D01*
X106070625Y-122510625D01*
X106398839Y-122019418D01*
X106514092Y-121440000D01*
X106398839Y-120860582D01*
X106070625Y-120369375D01*
X106052381Y-120357184D01*
X106097765Y-120348157D01*
X106307809Y-120207809D01*
X106448157Y-119997765D01*
X106497440Y-119750000D01*
X106497440Y-118050000D01*
X106448157Y-117802235D01*
X106307809Y-117592191D01*
X106097765Y-117451843D01*
X105850000Y-117402560D01*
X104150000Y-117402560D01*
X103902235Y-117451843D01*
X103692191Y-117592191D01*
X103551843Y-117802235D01*
X103502560Y-118050000D01*
X103502560Y-119750000D01*
X103551843Y-119997765D01*
X103692191Y-120207809D01*
X103902235Y-120348157D01*
X103947619Y-120357184D01*
X103929375Y-120369375D01*
X103601161Y-120860582D01*
X103485908Y-121440000D01*
X103601161Y-122019418D01*
X103929375Y-122510625D01*
X104227761Y-122710000D01*
X103929375Y-122909375D01*
X103601161Y-123400582D01*
X103485908Y-123980000D01*
X103601161Y-124559418D01*
X103929375Y-125050625D01*
X104420582Y-125378839D01*
X104853744Y-125465000D01*
X105146256Y-125465000D01*
X105579418Y-125378839D01*
X106070625Y-125050625D01*
X106228065Y-124815000D01*
X114041632Y-124815000D01*
X124663510Y-135436880D01*
X124164918Y-135536056D01*
X123702820Y-135844821D01*
X123440000Y-136238159D01*
X123177179Y-135844820D01*
X122715081Y-135536056D01*
X122170000Y-135427632D01*
X121624918Y-135536056D01*
X121162820Y-135844821D01*
X120900000Y-136238159D01*
X120637179Y-135844820D01*
X120175081Y-135536056D01*
X119630000Y-135427632D01*
X119084918Y-135536056D01*
X118622820Y-135844821D01*
X118360000Y-136238159D01*
X118097179Y-135844820D01*
X117635081Y-135536056D01*
X117090000Y-135427632D01*
X116544918Y-135536056D01*
X116082820Y-135844821D01*
X115774056Y-136306919D01*
X115693000Y-136714413D01*
X115693000Y-138005588D01*
X115774056Y-138413082D01*
X116082821Y-138875180D01*
X116381124Y-139074500D01*
X105087406Y-139074500D01*
X105327141Y-138834765D01*
X105723500Y-137877868D01*
X105723500Y-136842132D01*
X105327141Y-135885235D01*
X104594765Y-135152859D01*
X103637868Y-134756500D01*
X102602132Y-134756500D01*
X101645235Y-135152859D01*
X100912859Y-135885235D01*
X100516500Y-136842132D01*
X100516500Y-137877868D01*
X100912859Y-138834765D01*
X101152594Y-139074500D01*
X89975500Y-139074500D01*
X89975500Y-138299321D01*
X90309336Y-138421458D01*
X90919460Y-138395839D01*
X91364148Y-138211643D01*
X91450554Y-137955159D01*
X91372927Y-137877532D01*
X93377073Y-137877532D01*
X93475736Y-138144387D01*
X94085461Y-138370908D01*
X94735460Y-138346856D01*
X95224264Y-138144387D01*
X95322927Y-137877532D01*
X94350000Y-136904605D01*
X93377073Y-137877532D01*
X91372927Y-137877532D01*
X90550000Y-137054605D01*
X90535858Y-137068748D01*
X90356253Y-136889143D01*
X90370395Y-136875000D01*
X90729605Y-136875000D01*
X91630159Y-137775554D01*
X91886643Y-137689148D01*
X92096458Y-137115664D01*
X92070839Y-136505540D01*
X91886643Y-136060852D01*
X91630159Y-135974446D01*
X90729605Y-136875000D01*
X90370395Y-136875000D01*
X90356253Y-136860858D01*
X90535858Y-136681253D01*
X90550000Y-136695395D01*
X91450554Y-135794841D01*
X91364148Y-135538357D01*
X90790664Y-135328542D01*
X90180540Y-135354161D01*
X89975500Y-135439091D01*
X89975500Y-135294126D01*
X92265000Y-135294126D01*
X92265000Y-135705874D01*
X92422569Y-136086280D01*
X92713720Y-136377431D01*
X92732109Y-136385048D01*
X92704092Y-136460461D01*
X92728144Y-137110460D01*
X92930613Y-137599264D01*
X93197468Y-137697927D01*
X94170395Y-136725000D01*
X94529605Y-136725000D01*
X95502532Y-137697927D01*
X95769387Y-137599264D01*
X95995908Y-136989539D01*
X95971856Y-136339540D01*
X95769387Y-135850736D01*
X95502532Y-135752073D01*
X94529605Y-136725000D01*
X94170395Y-136725000D01*
X94156253Y-136710858D01*
X94335858Y-136531253D01*
X94350000Y-136545395D01*
X95322927Y-135572468D01*
X95224264Y-135305613D01*
X94614539Y-135079092D01*
X94251495Y-135092526D01*
X94177431Y-134913720D01*
X93886280Y-134622569D01*
X93505874Y-134465000D01*
X93094126Y-134465000D01*
X92713720Y-134622569D01*
X92422569Y-134913720D01*
X92265000Y-135294126D01*
X89975500Y-135294126D01*
X89975500Y-130549321D01*
X90309336Y-130671458D01*
X90919460Y-130645839D01*
X91364148Y-130461643D01*
X91420582Y-130294126D01*
X92265000Y-130294126D01*
X92265000Y-130705874D01*
X92422569Y-131086280D01*
X92713720Y-131377431D01*
X93094126Y-131535000D01*
X93505874Y-131535000D01*
X93886280Y-131377431D01*
X94177431Y-131086280D01*
X94248428Y-130914878D01*
X94735460Y-130896856D01*
X95224264Y-130694387D01*
X95322927Y-130427532D01*
X94350000Y-129454605D01*
X94335858Y-129468748D01*
X94156253Y-129289143D01*
X94170395Y-129275000D01*
X94529605Y-129275000D01*
X95502532Y-130247927D01*
X95769387Y-130149264D01*
X95995908Y-129539539D01*
X95971856Y-128889540D01*
X95769387Y-128400736D01*
X95502532Y-128302073D01*
X94529605Y-129275000D01*
X94170395Y-129275000D01*
X93197468Y-128302073D01*
X92930613Y-128400736D01*
X92704092Y-129010461D01*
X92726545Y-129617257D01*
X92713720Y-129622569D01*
X92422569Y-129913720D01*
X92265000Y-130294126D01*
X91420582Y-130294126D01*
X91450554Y-130205159D01*
X90550000Y-129304605D01*
X90535858Y-129318748D01*
X90356253Y-129139143D01*
X90370395Y-129125000D01*
X90729605Y-129125000D01*
X91630159Y-130025554D01*
X91886643Y-129939148D01*
X92096458Y-129365664D01*
X92070839Y-128755540D01*
X91886643Y-128310852D01*
X91630159Y-128224446D01*
X90729605Y-129125000D01*
X90370395Y-129125000D01*
X90356253Y-129110858D01*
X90535858Y-128931253D01*
X90550000Y-128945395D01*
X91450554Y-128044841D01*
X91364148Y-127788357D01*
X90790664Y-127578542D01*
X90180540Y-127604161D01*
X89975500Y-127689091D01*
X89975500Y-124875866D01*
X93265000Y-124875866D01*
X93265000Y-125924134D01*
X93666155Y-126892608D01*
X94407392Y-127633845D01*
X94413846Y-127636518D01*
X93964540Y-127653144D01*
X93475736Y-127855613D01*
X93377073Y-128122468D01*
X94350000Y-129095395D01*
X95322927Y-128122468D01*
X95275166Y-127993289D01*
X95375866Y-128035000D01*
X96424134Y-128035000D01*
X97392608Y-127633845D01*
X98133845Y-126892608D01*
X98535000Y-125924134D01*
X98535000Y-124875866D01*
X98133845Y-123907392D01*
X97392608Y-123166155D01*
X96424134Y-122765000D01*
X95375866Y-122765000D01*
X94407392Y-123166155D01*
X93666155Y-123907392D01*
X93265000Y-124875866D01*
X89975500Y-124875866D01*
X89975500Y-122475022D01*
X91404584Y-122475022D01*
X91625353Y-122845743D01*
X92597012Y-123239119D01*
X93645247Y-123230713D01*
X94574647Y-122845743D01*
X94795416Y-122475022D01*
X93100000Y-120779605D01*
X91404584Y-122475022D01*
X89975500Y-122475022D01*
X89975500Y-120097012D01*
X90460881Y-120097012D01*
X90469287Y-121145247D01*
X90854257Y-122074647D01*
X91224978Y-122295416D01*
X92920395Y-120600000D01*
X93279605Y-120600000D01*
X94975022Y-122295416D01*
X95345743Y-122074647D01*
X95739119Y-121102988D01*
X95730713Y-120054753D01*
X95722980Y-120036083D01*
X96065000Y-120036083D01*
X96065000Y-121163917D01*
X96496603Y-122205899D01*
X97294101Y-123003397D01*
X98336083Y-123435000D01*
X99463917Y-123435000D01*
X100505899Y-123003397D01*
X101303397Y-122205899D01*
X101735000Y-121163917D01*
X101735000Y-120036083D01*
X101303397Y-118994101D01*
X100505899Y-118196603D01*
X99463917Y-117765000D01*
X98336083Y-117765000D01*
X97294101Y-118196603D01*
X96496603Y-118994101D01*
X96065000Y-120036083D01*
X95722980Y-120036083D01*
X95345743Y-119125353D01*
X94975022Y-118904584D01*
X93279605Y-120600000D01*
X92920395Y-120600000D01*
X91224978Y-118904584D01*
X90854257Y-119125353D01*
X90460881Y-120097012D01*
X89975500Y-120097012D01*
X89975500Y-118724978D01*
X91404584Y-118724978D01*
X93100000Y-120420395D01*
X94795416Y-118724978D01*
X94574647Y-118354257D01*
X93602988Y-117960881D01*
X92554753Y-117969287D01*
X91625353Y-118354257D01*
X91404584Y-118724978D01*
X89975500Y-118724978D01*
X89975500Y-110656426D01*
X90211593Y-110745323D01*
X90901453Y-110722836D01*
X91434359Y-110502099D01*
X91545263Y-110224868D01*
X90500000Y-109179605D01*
X90485858Y-109193748D01*
X90306253Y-109014143D01*
X90320395Y-109000000D01*
X90679605Y-109000000D01*
X91724868Y-110045263D01*
X92002099Y-109934359D01*
X92245323Y-109288407D01*
X92222836Y-108598547D01*
X92002099Y-108065641D01*
X91724868Y-107954737D01*
X90679605Y-109000000D01*
X90320395Y-109000000D01*
X90306253Y-108985858D01*
X90485858Y-108806253D01*
X90500000Y-108820395D01*
X91545263Y-107775132D01*
X91434359Y-107497901D01*
X90788407Y-107254677D01*
X90098547Y-107277164D01*
X89975500Y-107328132D01*
X89975500Y-97656426D01*
X90211593Y-97745323D01*
X90901453Y-97722836D01*
X91434359Y-97502099D01*
X91545263Y-97224868D01*
X90500000Y-96179605D01*
X90485858Y-96193748D01*
X90306253Y-96014143D01*
X90320395Y-96000000D01*
X90679605Y-96000000D01*
X91724868Y-97045263D01*
X92002099Y-96934359D01*
X92245323Y-96288407D01*
X92222836Y-95598547D01*
X92002099Y-95065641D01*
X91724868Y-94954737D01*
X90679605Y-96000000D01*
X90320395Y-96000000D01*
X90306253Y-95985858D01*
X90485858Y-95806253D01*
X90500000Y-95820395D01*
X91545263Y-94775132D01*
X91434359Y-94497901D01*
X90788407Y-94254677D01*
X90098547Y-94277164D01*
X89975500Y-94328132D01*
X89975500Y-87385500D01*
X102422594Y-87385500D01*
X102182859Y-87625235D01*
G04 #@! TD*
M02*
