M48
;DRILL file {KiCad (5.0.1-3-g963ef8bb5)} date 2019 May 15, Wednesday 15:03:32
;FORMAT={-:-/ absolute / metric / decimal}
FMAT,2
METRIC,TZ
T1C0.400
T2C0.762
T3C0.800
T4C0.813
T5C1.000
T6C1.200
T7C1.400
T8C1.500
T9C3.000
T10C3.175
T11C0.800
%
G90
G05
M71
T1
X107.5Y-97.
X128.7Y-93.5
X128.7Y-96.5
X128.7Y-104.5
X128.7Y-107.5
X128.7Y-115.5
X128.7Y-118.5
X128.7Y-126.5
X128.7Y-129.5
X128.7Y-134.4
X134.Y-133.
X139.5Y-100.
X139.5Y-111.
X139.5Y-122.
X139.5Y-133.
X139.5Y-134.4
X142.Y-97.5
X142.Y-108.5
X142.Y-119.5
X142.Y-130.5
X142.5Y-99.5
X142.5Y-110.5
X142.5Y-121.5
X142.5Y-132.5
T2
X147.Y-116.595
X147.Y-120.405
X147.Y-105.595
X147.Y-109.405
X147.Y-127.595
X147.Y-131.405
X147.Y-94.595
X147.Y-98.405
T3
X125.5Y-93.96
X125.5Y-96.5
X125.5Y-99.04
X125.5Y-126.96
X125.5Y-129.5
X125.5Y-132.04
X125.5Y-115.96
X125.5Y-118.5
X125.5Y-121.04
X125.5Y-104.96
X125.5Y-107.5
X125.5Y-110.04
T4
X108.2Y-89.1
X110.74Y-89.1
X113.026Y-89.1
X115.566Y-89.1
X117.09Y-137.36
X118.106Y-89.1
X119.63Y-137.36
X120.646Y-89.1
X122.17Y-137.36
X123.186Y-89.1
X124.71Y-137.36
X125.726Y-89.1
X127.25Y-137.36
X128.266Y-89.1
X129.79Y-137.36
X130.806Y-89.1
X132.33Y-137.36
X134.87Y-89.1
X134.87Y-137.36
X137.41Y-89.1
X139.95Y-89.1
X139.95Y-137.36
X142.49Y-89.1
X142.49Y-137.36
X145.03Y-89.1
X145.03Y-137.36
X147.57Y-89.1
X147.57Y-137.36
X150.11Y-89.1
X150.11Y-137.36
X152.65Y-89.1
X152.65Y-137.36
T5
X105.Y-118.9
X105.Y-121.44
X105.Y-123.98
T6
X90.55Y-129.125
X90.55Y-136.875
T7
X94.35Y-129.275
X94.35Y-136.725
T8
X90.5Y-96.
X93.9Y-100.55
X97.Y-93.35
X98.4Y-90.95
X101.6Y-100.
X90.5Y-109.
X93.9Y-113.55
X97.Y-106.35
X98.4Y-103.95
X101.6Y-113.
T10
X103.12Y-137.36
X104.39Y-89.1
X155.19Y-104.34
X155.19Y-132.28
T11
X93.3Y-130.5
X93.3Y-135.5
T9
X93.1Y-120.6G85X93.1Y-120.6
G05
X95.9Y-125.4G85X95.9Y-125.4
G05
X98.9Y-120.6G85X98.9Y-120.6
G05
T0
M30
